<svg width="60" height="40" viewBox="0 0 60 40" fill="none" xmlns="http://www.w3.org/2000/svg">
<path d="M0 5C0 2.23858 2.23858 0 5 0H55C57.7614 0 60 2.23858 60 5V35C60 37.7614 57.7614 40 55 40H5C2.23858 40 0 37.7614 0 35V5Z" fill="#23262F"/>
<path d="M0.5 5C0.5 2.51472 2.51472 0.5 5 0.5H55C57.4853 0.5 59.5 2.51472 59.5 5V35C59.5 37.4853 57.4853 39.5 55 39.5H5C2.51472 39.5 0.5 37.4853 0.5 35V5Z" stroke="#ADB7D0" stroke-opacity="0.3"/>
<path d="M28.6466 21.3439V27.1236H26.8003V12.8502H31.6971C32.2816 12.8381 32.8628 12.9411 33.407 13.1531C33.9512 13.3652 34.4478 13.6822 34.868 14.0859C35.2925 14.465 35.6303 14.93 35.8587 15.4496C36.0872 15.9692 36.201 16.5313 36.1926 17.0982C36.2047 17.6681 36.0926 18.2339 35.864 18.7568C35.6354 19.2797 35.2956 19.7473 34.868 20.1276C34.0117 20.9384 32.9548 21.3435 31.6971 21.3427H28.6466V21.3439ZM28.6466 14.6075V19.59H31.743C32.0824 19.6 32.4203 19.5395 32.7348 19.4125C33.0494 19.2854 33.3338 19.0945 33.5698 18.852C33.8046 18.6253 33.9913 18.3542 34.1187 18.0546C34.2462 17.755 34.3119 17.4331 34.3119 17.1079C34.3119 16.7826 34.2462 16.4607 34.1187 16.1611C33.9913 15.8616 33.8046 15.5904 33.5698 15.3637C33.3368 15.1161 33.0533 14.9206 32.7384 14.79C32.4234 14.6594 32.0841 14.5968 31.743 14.6064H28.6466V14.6075Z" fill="#E4E5E7"/>
<path d="M40.4471 17.0389C41.8118 17.0389 42.8891 17.4011 43.6788 18.1254C44.4686 18.8497 44.8631 19.8428 44.8623 21.1047V27.1236H43.0962V25.7683H43.016C42.2514 26.8844 41.2346 27.4424 39.9655 27.4424C38.8821 27.4424 37.9758 27.1236 37.2464 26.4858C36.8964 26.1931 36.6166 25.8265 36.4273 25.4127C36.238 24.999 36.1441 24.5485 36.1524 24.0942C36.1524 23.0836 36.5369 22.28 37.3061 21.6832C38.0752 21.0865 39.102 20.7873 40.3864 20.7858C41.4827 20.7858 42.3856 20.9851 43.0951 21.3837V20.9646C43.0972 20.6548 43.0298 20.3485 42.8979 20.0678C42.766 19.7871 42.5729 19.5391 42.3325 19.3417C41.8442 18.9043 41.2079 18.6656 40.5504 18.6732C39.519 18.6732 38.7029 19.1052 38.1019 19.9692L36.4758 18.9522C37.3703 17.6767 38.6941 17.0389 40.4471 17.0389ZM38.0584 24.134C38.0571 24.3674 38.1121 24.5977 38.2186 24.8057C38.3251 25.0137 38.4801 25.1934 38.6708 25.3298C39.0791 25.6488 39.5859 25.8178 40.1054 25.8082C40.8845 25.8069 41.6314 25.4989 42.1822 24.9517C42.7939 24.38 43.0997 23.7092 43.0997 22.9394C42.524 22.4838 41.7212 22.2561 40.6914 22.2561C39.9414 22.2561 39.316 22.4356 38.8153 22.7947C38.3095 23.1592 38.0584 23.6022 38.0584 24.134Z" fill="#E4E5E7"/>
<path d="M55 17.3578L48.8348 31.4285H46.9288L49.2167 26.5052L45.1628 17.3578H47.1696L50.0997 24.3732H50.1399L52.9896 17.3578H55Z" fill="#E4E5E7"/>
<path d="M21.1855 20.098C21.1862 19.5392 21.1387 18.9814 21.0433 18.4307H13.2566V21.5887H17.7165C17.6252 22.0931 17.4321 22.5739 17.1486 23.0022C16.8652 23.4304 16.4974 23.7973 16.0674 24.0806V26.1305H18.7291C20.2876 24.7035 21.1855 22.5932 21.1855 20.098Z" fill="#4285F4"/>
<path d="M23.3027 28.111C24.1939 28.111 24.9444 27.3844 25.4917 26.1317L24.427 24.0817C24.1306 24.5806 23.749 24.8653 23.3027 24.8653C22.4412 24.8653 21.71 23.4235 21.4485 21.4806H20.3517V23.5932C20.6266 24.9512 21.0481 26.0929 21.5692 26.8907C22.0903 27.6885 22.6905 28.111 23.3027 28.111Z" fill="#34A853"/>
<path d="M8.62121 21.4806C8.27564 20.4625 8.27564 19.36 8.62121 18.3419V16.2293H5.87922C5.30109 17.3717 5 18.6326 5 19.9112C5 21.1898 5.30109 22.4507 5.87922 23.5932L8.62121 21.4806Z" fill="#FBBC04"/>
<path d="M13.2566 14.9571C14.4341 14.938 15.5719 15.3799 16.4241 16.1871L18.7807 13.8467C17.2864 12.4529 15.3067 11.6876 13.2566 11.7114C11.7261 11.7115 10.2258 12.134 8.92303 12.9317C7.62031 13.7295 6.56651 14.8712 5.87927 16.2292L8.62126 18.3418C9.27494 16.3989 11.1029 14.9571 13.2566 14.9571Z" fill="#EA4335"/>
</svg>
