<svg width="60" height="40" viewBox="0 0 60 40" fill="none" xmlns="http://www.w3.org/2000/svg">
<path d="M0 5C0 2.23858 2.23858 0 5 0H55C57.7614 0 60 2.23858 60 5V35C60 37.7614 57.7614 40 55 40H5C2.23858 40 0 37.7614 0 35V5Z" fill="#23262F"/>
<path d="M0.5 5C0.5 2.51472 2.51472 0.5 5 0.5H55C57.4853 0.5 59.5 2.51472 59.5 5V35C59.5 37.4853 57.4853 39.5 55 39.5H5C2.51472 39.5 0.5 37.4853 0.5 35V5Z" stroke="#ADB7D0" stroke-opacity="0.3"/>
<path d="M36.5611 31.7948H23.4373V8.20914H36.5611V31.7948Z" fill="#6C6BBD"/>
<path d="M24.278 20C24.278 15.2155 26.5182 10.9537 30.0066 8.20713C27.4556 6.19874 24.2361 5 20.7371 5C12.4537 5 5.73903 11.7156 5.73903 20C5.73903 28.2844 12.4537 35 20.7371 35C24.2361 35 27.4556 33.8013 30.0066 31.7929C26.5182 29.0463 24.278 24.7845 24.278 20Z" fill="#EB001B"/>
<path d="M54.261 20C54.261 28.2844 47.5463 35 39.2628 35C35.7639 35 32.5443 33.8013 29.9924 31.7929C33.4818 29.0463 35.7219 24.7845 35.7219 20C35.7219 15.2155 33.4818 10.9537 29.9924 8.20713C32.5443 6.19874 35.7639 5 39.2628 5C47.5463 5 54.261 11.7156 54.261 20Z" fill="#0099DF"/>
</svg>
