<svg width="60" height="40" viewBox="0 0 60 40" fill="none" xmlns="http://www.w3.org/2000/svg">
<g clip-path="url(#clip0)">
<g filter="url(#filter0_d)">
<path d="M0 5C0 2.23858 2.23858 0 5 0H55C57.7614 0 60 2.23858 60 5V35C60 37.7614 57.7614 40 55 40H5C2.23858 40 0 37.7614 0 35V5Z" fill="#23262F"/>
<path d="M0.5 5C0.5 2.51472 2.51472 0.5 5 0.5H55C57.4853 0.5 59.5 2.51472 59.5 5V35C59.5 37.4853 57.4853 39.5 55 39.5H5C2.51472 39.5 0.5 37.4853 0.5 35V5Z" stroke="#ADB7D0" stroke-opacity="0.3"/>
</g>
<path d="M36.26 8.15919L23.3487 8.20358L23.74 31.8409L36.6513 31.7965L36.26 8.15919Z" fill="#FF5F00"/>
<path d="M24.1985 20.0699C24.1186 15.2623 26.2723 10.9905 29.6456 8.21962C27.0994 6.22156 23.9072 5.02006 20.4469 5.03191C12.2491 5.05999 5.72855 11.8134 5.8668 20.1327C6.00505 28.452 12.7493 35.16 20.9471 35.1319C24.4074 35.12 27.5593 33.8968 30.0388 31.8815C26.5745 29.1759 24.2784 24.8775 24.1985 20.0699Z" fill="#EB001B"/>
<path d="M54.1332 19.8674C54.2715 28.1867 47.7509 34.9401 39.5532 34.9682C36.0928 34.98 32.9006 33.7786 30.3544 31.7805C33.7689 29.0095 35.8814 24.7378 35.8015 19.9302C35.7216 15.1226 33.4262 10.866 29.9612 8.11857C32.4407 6.10329 35.5926 4.88007 39.053 4.86821C47.2507 4.84014 53.9957 11.5899 54.1332 19.8674Z" fill="#F79E1B"/>
</g>
<defs>
<filter id="filter0_d" x="-30" y="-30" width="160" height="140" filterUnits="userSpaceOnUse" color-interpolation-filters="sRGB">
<feFlood flood-opacity="0" result="BackgroundImageFix"/>
<feColorMatrix in="SourceAlpha" type="matrix" values="0 0 0 0 0 0 0 0 0 0 0 0 0 0 0 0 0 0 127 0"/>
<feOffset dx="20" dy="20"/>
<feGaussianBlur stdDeviation="25"/>
<feColorMatrix type="matrix" values="0 0 0 0 0 0 0 0 0 0 0 0 0 0 0 0 0 0 0.25 0"/>
<feBlend mode="normal" in2="BackgroundImageFix" result="effect1_dropShadow"/>
<feBlend mode="normal" in="SourceGraphic" in2="effect1_dropShadow" result="shape"/>
</filter>
<clipPath id="clip0">
<rect width="60" height="40" fill="white"/>
</clipPath>
</defs>
</svg>
