<svg width="60" height="40" viewBox="0 0 60 40" fill="none" xmlns="http://www.w3.org/2000/svg">
<path d="M0 5C0 2.23858 2.23858 0 5 0H55C57.7614 0 60 2.23858 60 5V35C60 37.7614 57.7614 40 55 40H5C2.23858 40 0 37.7614 0 35V5Z" fill="#23262F"/>
<path d="M0.5 5C0.5 2.51472 2.51472 0.5 5 0.5H55C57.4853 0.5 59.5 2.51472 59.5 5V35C59.5 37.4853 57.4853 39.5 55 39.5H5C2.51472 39.5 0.5 37.4853 0.5 35V5Z" stroke="#ADB7D0" stroke-opacity="0.3"/>
<path d="M13.4635 14.3968C12.8368 13.9659 12.019 13.75 11.0101 13.75H7.10425C6.79496 13.75 6.62409 13.9047 6.59163 14.2137L5.00498 24.1735C4.98849 24.2714 5.01296 24.3608 5.07818 24.4422C5.14302 24.5236 5.22458 24.5642 5.32225 24.5642H7.17752C7.50292 24.5642 7.68178 24.4099 7.71461 24.1004L8.15395 21.4153C8.17 21.2851 8.22723 21.1793 8.3249 21.0979C8.4225 21.0165 8.54457 20.9633 8.69104 20.939C8.83752 20.9148 8.97563 20.9026 9.10606 20.9026C9.23612 20.9026 9.39065 20.9109 9.56995 20.9271C9.74881 20.9433 9.86282 20.9512 9.9117 20.9512C11.3112 20.9512 12.4097 20.5569 13.2073 19.7673C14.0045 18.9782 14.4035 17.8838 14.4035 16.4839C14.4035 15.5237 14.0899 14.8281 13.4635 14.3966V14.3968ZM11.4497 17.3874C11.3681 17.9571 11.1568 18.3312 10.815 18.5103C10.4732 18.6896 9.98497 18.7789 9.35036 18.7789L8.54472 18.8032L8.95981 16.1911C8.9922 16.0122 9.09793 15.9227 9.27708 15.9227H9.74105C10.3917 15.9227 10.864 16.0165 11.1569 16.2033C11.4497 16.3906 11.5474 16.7854 11.4497 17.3874Z" fill="#0041B8"/>
<path d="M54.6823 13.75H52.8761C52.6965 13.75 52.5909 13.8395 52.5587 14.0187L50.9719 24.174L50.9474 24.2228C50.9474 24.3046 50.9799 24.3815 51.0452 24.4548C51.1099 24.5279 51.1917 24.5645 51.2892 24.5645H52.9006C53.2093 24.5645 53.3803 24.4102 53.4133 24.1008L55 14.1164V14.0921C54.9999 13.8642 54.8938 13.7503 54.6823 13.7503V13.75Z" fill="#009CDE"/>
<path d="M32.8586 17.6806C32.8586 17.5994 32.8259 17.522 32.7612 17.4489C32.6959 17.3757 32.6226 17.3389 32.5414 17.3389H30.6618C30.4824 17.3389 30.3359 17.4206 30.2222 17.5829L27.6346 21.3913L26.5605 17.7296C26.4787 17.4694 26.3 17.3389 26.0235 17.3389H24.1923C24.1108 17.3389 24.0376 17.3756 23.9729 17.4489C23.9076 17.522 23.8752 17.5996 23.8752 17.6806C23.8752 17.7134 24.0339 18.1933 24.3512 19.1209C24.6685 20.0489 25.0102 21.0498 25.3764 22.1239C25.7426 23.1979 25.9337 23.7678 25.9501 23.8324C24.6155 25.6554 23.9485 26.6318 23.9485 26.7618C23.9485 26.9736 24.0541 27.0792 24.2658 27.0792H26.1455C26.3244 27.0792 26.4708 26.998 26.585 26.8352L32.8101 17.8514C32.8424 17.8192 32.8586 17.7625 32.8586 17.6805V17.6806Z" fill="#0041B8"/>
<path d="M50.362 17.339H48.5066C48.2785 17.339 48.1407 17.6076 48.0918 18.1447C47.6682 17.4939 46.8957 17.1681 45.7725 17.1681C44.6008 17.1681 43.6039 17.6076 42.7822 18.4864C41.9602 19.3653 41.5495 20.399 41.5495 21.5869C41.5495 22.5473 41.8302 23.3121 42.3915 23.8815C42.953 24.4515 43.7056 24.7359 44.6498 24.7359C45.1217 24.7359 45.6018 24.6381 46.09 24.443C46.5782 24.2477 46.9603 23.9875 47.2375 23.6618C47.2375 23.6782 47.2209 23.7512 47.1887 23.8813C47.1558 24.0117 47.1397 24.1097 47.1397 24.1742C47.1397 24.4349 47.2453 24.5648 47.4572 24.5648H49.1417C49.4505 24.5648 49.6297 24.4105 49.6784 24.101L50.6794 17.7295C50.6955 17.6318 50.6712 17.5424 50.6062 17.461C50.5407 17.3798 50.4596 17.339 50.362 17.339ZM47.1763 22.1483C46.7613 22.5552 46.2608 22.7585 45.675 22.7585C45.2028 22.7585 44.8207 22.6285 44.5276 22.368C44.2345 22.1082 44.088 21.7501 44.088 21.2939C44.088 20.6922 44.2915 20.1831 44.6985 19.7682C45.1048 19.3532 45.6098 19.1457 46.212 19.1457C46.6673 19.1457 47.0457 19.28 47.3471 19.5484C47.6479 19.817 47.7989 20.1872 47.7989 20.6593C47.7987 21.2452 47.5912 21.7417 47.1763 22.1483Z" fill="#009CDE"/>
<path d="M22.63 17.339H20.7747C20.5465 17.339 20.4085 17.6076 20.3596 18.1447C19.9202 17.4939 19.1471 17.1681 18.0405 17.1681C16.8687 17.1681 15.8718 17.6076 15.05 18.4864C14.228 19.3653 13.8173 20.399 13.8173 21.5869C13.8173 22.5473 14.0981 23.3121 14.6595 23.8815C15.221 24.4515 15.9735 24.7359 16.9176 24.7359C17.373 24.7359 17.8453 24.6381 18.3334 24.443C18.8216 24.2477 19.2123 23.9875 19.5052 23.6618C19.4399 23.857 19.4075 24.0279 19.4075 24.1742C19.4075 24.4349 19.5133 24.5648 19.7249 24.5648H21.4092C21.7182 24.5648 21.8975 24.4105 21.9463 24.101L22.9472 17.7295C22.9632 17.6318 22.9389 17.5424 22.874 17.461C22.8088 17.3798 22.7276 17.339 22.63 17.339ZM19.4443 22.1604C19.0292 22.5596 18.5204 22.7585 17.9186 22.7585C17.4464 22.7585 17.068 22.6285 16.7834 22.368C16.4985 22.1082 16.3562 21.7501 16.3562 21.2939C16.3562 20.6922 16.5595 20.1831 16.9665 19.7682C17.3731 19.3532 17.8777 19.1457 18.48 19.1457C18.9355 19.1457 19.3139 19.28 19.6153 19.5484C19.9161 19.817 20.0668 20.1872 20.0668 20.6593C20.0668 21.2615 19.8593 21.7621 19.4443 22.1604Z" fill="#0041B8"/>
<path d="M41.1954 14.3968C40.5688 13.9659 39.7512 13.75 38.7421 13.75H34.8606C34.535 13.75 34.3559 13.9047 34.3236 14.2137L32.7368 24.1735C32.7203 24.2714 32.7447 24.3608 32.81 24.4422C32.8746 24.5236 32.9564 24.5642 33.054 24.5642H35.0557C35.251 24.5642 35.3811 24.4585 35.4464 24.2469L35.8858 21.4153C35.902 21.2851 35.9589 21.1793 36.0567 21.0979C36.1544 21.0165 36.2763 20.9633 36.423 20.939C36.5693 20.9148 36.7074 20.9026 36.8379 20.9026C36.968 20.9026 37.1225 20.9109 37.3016 20.9271C37.4806 20.9433 37.5949 20.9512 37.6434 20.9512C39.0432 20.9512 40.1415 20.5569 40.939 19.7673C41.7365 18.9782 42.1352 17.8838 42.1352 16.4839C42.1353 15.5237 41.8218 14.828 41.1954 14.3966V14.3968ZM38.6933 18.4126C38.3352 18.6566 37.7981 18.7786 37.0822 18.7786L36.3009 18.8031L36.7159 16.1909C36.7481 16.0121 36.8539 15.9225 37.0332 15.9225H37.4724C37.8305 15.9225 38.1153 15.9388 38.3272 15.9713C38.5383 16.0039 38.7421 16.1055 38.9374 16.2763C39.1328 16.4472 39.2303 16.6956 39.2303 17.0209C39.2303 17.7047 39.0511 18.1683 38.6933 18.4126Z" fill="#009CDE"/>
</svg>
