<svg width="60" height="40" viewBox="0 0 60 40" fill="none" xmlns="http://www.w3.org/2000/svg">
<g clip-path="url(#clip0)">
<g filter="url(#filter0_d)">
<path d="M0 5C0 2.23858 2.23858 0 5 0H55C57.7614 0 60 2.23858 60 5V35C60 37.7614 57.7614 40 55 40H5C2.23858 40 0 37.7614 0 35V5Z" fill="#23262F"/>
<path d="M0.5 5C0.5 2.51472 2.51472 0.5 5 0.5H55C57.4853 0.5 59.5 2.51472 59.5 5V35C59.5 37.4853 57.4853 39.5 55 39.5H5C2.51472 39.5 0.5 37.4853 0.5 35V5Z" stroke="#ADB7D0" stroke-opacity="0.3"/>
</g>
<path d="M51.6374 12.5438H48.4942C47.5439 12.5438 46.8129 12.8362 46.3743 13.7865L40.3801 27.456H44.6199C44.6199 27.456 45.3509 25.6286 45.4971 25.19C45.9357 25.19 50.1023 25.19 50.6871 25.19C50.8333 25.7017 51.1988 27.3829 51.1988 27.3829H55L51.6374 12.5438ZM46.6667 22.1198C47.0322 21.2426 48.2749 17.9531 48.2749 17.9531C48.2749 18.0262 48.6404 17.0759 48.7865 16.5642L49.0789 17.88C49.0789 17.88 49.883 21.4619 50.0292 22.1929H46.6667V22.1198Z" fill="#3362AB"/>
<path d="M40.6725 22.5584C40.6725 25.6286 37.8947 27.6754 33.5819 27.6754C31.7544 27.6754 30 27.3099 29.0497 26.8713L29.6345 23.5087L30.1462 23.728C31.462 24.3128 32.3392 24.5321 33.9474 24.5321C35.117 24.5321 36.3597 24.0935 36.3597 23.0701C36.3597 22.4122 35.848 21.9736 34.2398 21.2427C32.7047 20.5117 30.6579 19.3421 30.6579 17.2222C30.6579 14.2982 33.5088 12.3245 37.5292 12.3245C39.0643 12.3245 40.3801 12.6169 41.1842 12.9824L40.5994 16.1988L40.307 15.9064C39.576 15.614 38.6257 15.3216 37.2368 15.3216C35.7018 15.3947 34.9708 16.0526 34.9708 16.6374C34.9708 17.2953 35.848 17.807 37.2368 18.4649C39.576 19.5614 40.6725 20.8041 40.6725 22.5584Z" fill="#3362AB"/>
<path d="M5 12.69L5.0731 12.3976H11.3596C12.2368 12.3976 12.8947 12.69 13.114 13.6403L14.5029 20.2193C13.114 16.7105 9.89766 13.8596 5 12.69Z" fill="#F9B50B"/>
<path d="M23.348 12.5438L16.9883 27.383H12.6754L9.02047 14.9561C11.652 16.6374 13.845 19.2689 14.6491 21.0964L15.0877 22.6315L19.0351 12.4707H23.348V12.5438Z" fill="#3362AB"/>
<path d="M25.0292 12.4707H29.0497L26.4912 27.383H22.4708L25.0292 12.4707Z" fill="#3362AB"/>
</g>
<defs>
<filter id="filter0_d" x="-30" y="-30" width="160" height="140" filterUnits="userSpaceOnUse" color-interpolation-filters="sRGB">
<feFlood flood-opacity="0" result="BackgroundImageFix"/>
<feColorMatrix in="SourceAlpha" type="matrix" values="0 0 0 0 0 0 0 0 0 0 0 0 0 0 0 0 0 0 127 0"/>
<feOffset dx="20" dy="20"/>
<feGaussianBlur stdDeviation="25"/>
<feColorMatrix type="matrix" values="0 0 0 0 0 0 0 0 0 0 0 0 0 0 0 0 0 0 0.25 0"/>
<feBlend mode="normal" in2="BackgroundImageFix" result="effect1_dropShadow"/>
<feBlend mode="normal" in="SourceGraphic" in2="effect1_dropShadow" result="shape"/>
</filter>
<clipPath id="clip0">
<rect width="60" height="40" fill="white"/>
</clipPath>
</defs>
</svg>
