<svg width="28" height="29" viewBox="0 0 28 29" fill="none" xmlns="http://www.w3.org/2000/svg">
<path d="M6.82115 14.4968C6.82115 18.6114 10.0263 21.9303 14 21.9303C17.9737 21.9303 21.1788 18.6114 21.1788 14.4968C21.1788 10.3821 17.9737 7.06319 14 7.06319C10.0263 7.06319 6.82115 10.3821 6.82115 14.4968ZM18.6672 14.4968C18.6672 17.1558 16.5741 19.3296 14 19.3296C11.4259 19.3296 9.33281 17.1622 9.33281 14.4968C9.33281 11.8313 11.4259 9.66397 14 9.66397C16.5741 9.66397 18.6672 11.8378 18.6672 14.4968ZM6.5275 5.02526C7.45844 5.02526 8.20194 5.80161 8.20194 6.75912C8.20194 7.72309 7.45219 8.49297 6.5275 8.49297C5.60281 8.49297 4.85306 7.71662 4.85306 6.75912C4.85306 5.80161 5.60281 5.02526 6.5275 5.02526ZM8.22693 0.101894C5.98393 0.211876 3.9971 0.742386 2.36015 2.44389C0.723195 4.13893 0.210867 6.19626 0.0984048 8.51885C-0.0328013 10.9126 -0.0328014 18.0874 0.0984046 20.4811C0.204619 22.7973 0.716947 24.8546 2.3539 26.5561C3.99085 28.2576 5.97769 28.7817 8.22069 28.8981C10.5324 29.034 17.4613 29.034 19.7731 28.8981C22.0161 28.7881 24.0029 28.2576 25.6399 26.5561C27.2768 24.8546 27.7891 22.8037 27.9016 20.4811C28.0328 18.0874 28.0328 10.9126 27.9016 8.51885C27.7954 6.19626 27.2831 4.13893 25.6399 2.44389C24.0029 0.748856 22.0161 0.218346 19.7731 0.101895C17.4613 -0.0339677 10.5387 -0.0339678 8.22693 0.101894ZM22.2535 3.19437C23.4781 3.699 24.4215 4.6759 24.9151 5.95041C25.6461 7.85895 25.4774 12.3877 25.4774 14.4968C25.4774 16.6059 25.6399 21.141 24.9151 23.0431C24.4278 24.3112 23.4843 25.2881 22.2535 25.7992C20.4104 26.5561 16.0368 26.3814 14 26.3814C11.9632 26.3814 7.5834 26.5496 5.74651 25.7992C4.52192 25.2945 3.57849 24.3176 3.0849 23.0431C2.3539 21.1346 2.52259 16.6059 2.52259 14.4968C2.52259 12.3877 2.36015 7.85248 3.0849 5.95041C3.57224 4.68237 4.51568 3.70546 5.74651 3.19437C7.58965 2.43742 11.9632 2.6121 14 2.6121C16.0368 2.6121 20.4166 2.43742 22.2535 3.19437Z" fill="#F1C86E"/>
</svg>
