<svg width="111" height="36" viewBox="0 0 111 36" fill="none" xmlns="http://www.w3.org/2000/svg">
<path d="M53.6315 21.4266C52.5786 20.6094 51.1947 20.1554 49.841 20.1554C46.5619 20.1554 43.8845 22.5767 43.8845 25.5428C43.8845 28.5392 46.5619 30.9605 49.841 30.9605C51.2549 30.9605 52.5786 30.5065 53.6616 29.6591C53.7518 29.5985 53.8721 29.4472 53.8721 29.2353V28.3576C53.8721 28.176 53.7518 28.1155 53.7217 28.0852C53.6315 28.0549 53.5111 28.0852 53.4209 28.2063C52.5786 29.2353 51.285 29.8407 49.8711 29.8407C47.2839 29.8407 45.2082 27.9339 45.2082 25.5731C45.2082 23.2123 47.314 21.3055 49.8711 21.3055C51.285 21.3055 52.5786 21.8806 53.4209 22.9096C53.5111 23.0307 53.6315 23.061 53.7217 23.0307C53.7819 23.0004 53.8721 22.9399 53.8721 22.7583V21.8806C53.8421 21.6687 53.7217 21.4871 53.6315 21.4266Z" fill="white"/>
<path d="M62.3856 25.0283C63.2581 24.5441 63.7093 23.8782 63.7093 23.0307C63.7093 21.2753 62.3556 20.3068 59.8887 20.3068H57.2113C56.8804 20.3068 56.5796 20.5792 56.5796 20.8818V30.1736C56.5796 30.5066 56.8503 30.7487 57.2113 30.7487H60.2497C62.2352 30.7487 64.2508 29.6894 64.2508 27.6615C64.2508 26.693 63.5589 25.7245 62.3856 25.0283ZM60.2497 29.5683H58.1138C57.9032 29.5683 57.9033 29.4472 57.9033 29.417V25.7547C57.9033 25.6337 57.9333 25.6034 58.0537 25.6034H60.2497C61.5734 25.6034 62.9572 26.3903 62.9572 27.7221C62.9572 28.9932 61.5433 29.5683 60.2497 29.5683ZM59.8587 24.3927H58.0236C57.9032 24.3927 57.8732 24.3625 57.8732 24.2414V21.6688C57.8732 21.6082 57.8732 21.5477 58.0537 21.5477H59.9489C61.6937 21.5477 62.4157 22.0017 62.4157 23.061C62.4157 24.1809 61.4832 24.3927 59.8587 24.3927Z" fill="white"/>
<path d="M67.6799 20.3369H67.6498C67.3189 20.3369 67.0181 20.6093 67.0181 20.912V30.2038C67.0181 30.5367 67.2888 30.7789 67.6498 30.7789H67.6799C68.0108 30.7789 68.3116 30.5065 68.3116 30.2038V20.912C68.3116 20.579 68.0409 20.3369 67.6799 20.3369Z" fill="white"/>
<path d="M77.4269 20.3369H71.4103C71.0794 20.3369 70.7786 20.6093 70.7786 20.9422C70.7786 21.2752 71.0493 21.5173 71.4103 21.5173H73.7568C73.7568 21.5173 73.7568 21.5173 73.7869 21.5173V21.5476V30.2038C73.7869 30.5367 74.0576 30.7789 74.4186 30.7789H74.4487C74.7796 30.7789 75.0805 30.5065 75.0805 30.2038V21.5173C75.0805 21.5173 75.1105 21.5173 75.1406 21.5173H77.457C77.7879 21.5173 78.0888 21.2449 78.0888 20.9422V20.912C78.0587 20.579 77.7579 20.3369 77.4269 20.3369Z" fill="white"/>
<path d="M84.3465 20.67C84.2563 20.4581 84.0156 20.3068 83.7448 20.3068C83.5343 20.3068 83.2635 20.4278 83.1733 20.67L78.8714 29.9618C78.8112 30.0828 78.8112 30.2342 78.8413 30.3855C78.9015 30.5368 79.0218 30.6579 79.2023 30.7487H79.2324C79.2925 30.779 79.3828 30.779 79.443 30.779C79.6836 30.779 79.9243 30.6276 80.0145 30.4158C80.0446 30.3552 83.2635 23.2123 83.5042 22.6978C83.6245 22.4254 83.6847 22.3346 83.7448 22.2741C83.805 22.3649 83.9253 22.5767 83.9554 22.6978C84.1359 23.1215 87.2947 30.1131 87.4451 30.4158C87.5654 30.7184 87.9264 30.8395 88.2573 30.7184H88.2874C88.4679 30.6579 88.5882 30.5368 88.6484 30.3552C88.7086 30.2039 88.7086 30.0526 88.6183 29.9315L84.3465 20.67Z" fill="white"/>
<path d="M96.1089 20.67C96.0187 20.4581 95.778 20.3068 95.5073 20.3068C95.2365 20.3068 94.9959 20.4581 94.9056 20.67L90.6037 29.9618C90.5436 30.1131 90.5436 30.2644 90.6037 30.4158C90.6639 30.5671 90.7842 30.6882 90.9346 30.7184L90.9647 30.7487C91.055 30.779 91.1151 30.8092 91.2054 30.8092C91.446 30.8092 91.6566 30.6882 91.777 30.4763C91.777 30.4763 92.86 28.1155 92.9502 27.9642C93.0104 27.8431 93.0405 27.8431 93.1909 27.8431H97.7936C97.9741 27.8431 98.0042 27.9036 98.0343 27.9339C98.0944 28.055 99.2075 30.4763 99.2075 30.5066C99.3579 30.8092 99.7189 30.9303 100.02 30.8092H100.05C100.23 30.7487 100.351 30.6276 100.411 30.4763C100.471 30.325 100.471 30.1736 100.381 30.0526L96.1089 20.67ZM97.4326 26.5719H97.4025H93.6421H93.612C93.6421 26.5114 93.6722 26.4206 93.7324 26.2693C94.1234 25.4218 95.1162 23.1215 95.5073 22.3649V22.3346C95.5073 22.3346 95.5073 22.3346 95.5073 22.3649C95.6577 22.7281 95.9585 23.3939 96.2894 24.0901C96.9513 25.5429 97.4025 26.4811 97.4326 26.5719Z" fill="white"/>
<path d="M38.3792 4.08386C35.7319 4.08386 33.5959 6.50518 33.5959 9.47129C33.5959 12.4677 35.7319 14.889 38.3792 14.889C40.9964 14.889 43.0421 12.4979 43.0421 9.47129C43.0421 6.44464 40.9964 4.08386 38.3792 4.08386ZM38.8605 13.6783C38.8605 13.6783 38.8605 13.6783 38.8605 13.6481V5.29452C38.8605 5.26425 38.8605 5.26425 38.8605 5.26425C40.6354 5.53665 41.929 7.32237 41.929 9.50156C41.9591 11.6505 40.6655 13.4059 38.8605 13.6783ZM37.7775 13.6783C36.0026 13.3454 34.6789 11.5294 34.6789 9.47129C34.6789 7.3829 35.9725 5.62745 37.7474 5.26425C37.7775 5.26425 37.7775 5.26425 37.7775 5.26425V13.6783Z" fill="white"/>
<path d="M45.8097 14.7073C46.1105 14.7073 46.3512 14.4349 46.3512 14.1323V4.84044C46.3512 4.50751 46.1105 4.26538 45.8097 4.26538C45.5088 4.26538 45.2682 4.53778 45.2682 4.84044V14.1323C45.2381 14.4652 45.4787 14.7073 45.8097 14.7073Z" fill="white"/>
<path d="M52.7289 4.59843C52.6386 4.38657 52.4581 4.23523 52.2175 4.23523C52.037 4.23523 51.7963 4.3563 51.7361 4.59843L48.3067 13.8902C48.1863 14.1929 48.3067 14.5258 48.5774 14.6469H48.6075C48.7278 14.7074 48.8782 14.7074 48.9986 14.6469C49.149 14.5864 49.2392 14.4653 49.2994 14.314C49.3295 14.2534 51.8866 7.11054 52.0671 6.59601C52.1272 6.41441 52.1874 6.29335 52.2175 6.23282C52.2776 6.32362 52.3378 6.50521 52.3679 6.59601C52.5183 7.01974 55.0453 14.0113 55.1355 14.314C55.1957 14.4653 55.286 14.5864 55.4063 14.6469C55.4665 14.6772 55.5567 14.6772 55.6169 14.6772C55.677 14.6772 55.7673 14.6772 55.8274 14.6469L55.8575 14.6166C56.1283 14.4956 56.2486 14.1626 56.1283 13.86L52.7289 4.59843Z" fill="white"/>
<path d="M61.9644 4.08386C59.3171 4.08386 57.1812 6.50518 57.1812 9.47129C57.1812 12.4677 59.3171 14.889 61.9644 14.889C64.5816 14.889 66.6273 12.4979 66.6273 9.47129C66.6273 6.44464 64.5816 4.08386 61.9644 4.08386ZM61.9644 13.7691C59.9187 13.7691 58.2641 11.8623 58.2641 9.50156C58.2641 7.14077 59.9187 5.23398 61.9644 5.23398C63.98 5.23398 65.5443 7.11051 65.5443 9.50156C65.5443 11.8926 63.98 13.7691 61.9644 13.7691Z" fill="white"/>
<path d="M76.5246 13.5875C76.5848 13.527 76.675 13.3757 76.675 13.1941V12.3164C76.675 12.1045 76.5547 12.0742 76.5246 12.044C76.4945 12.044 76.3441 12.0137 76.2539 12.165C75.592 13.1941 74.5692 13.7691 73.4561 13.7691C71.4105 13.7691 69.7559 11.8624 69.7559 9.50157C69.7559 7.14078 71.4105 5.23399 73.4561 5.23399C74.5692 5.23399 75.592 5.80906 76.2539 6.83812C76.3742 6.98945 76.4945 6.98945 76.5246 6.95918C76.5848 6.92892 76.675 6.86839 76.675 6.68679V5.80906C76.675 5.62746 76.5848 5.47612 76.4945 5.41559C75.6522 4.5984 74.5391 4.11414 73.426 4.11414C70.7787 4.11414 68.6428 6.53545 68.6428 9.50157C68.6428 12.498 70.7787 14.9193 73.426 14.9193C74.5692 14.889 75.6522 14.435 76.5246 13.5875Z" fill="white"/>
<path d="M83.3833 14.889C86.0006 14.889 88.0462 12.4979 88.0462 9.47129C88.0462 6.44464 86.0006 4.08386 83.3833 4.08386C80.736 4.08386 78.6001 6.50518 78.6001 9.47129C78.6001 12.4677 80.736 14.889 83.3833 14.889ZM83.3833 5.20373C85.3989 5.20373 86.9632 7.08024 86.9632 9.47129C86.9632 11.8623 85.3989 13.7389 83.3833 13.7389C81.3377 13.7389 79.6831 11.8321 79.6831 9.47129C79.6831 7.11051 81.3377 5.20373 83.3833 5.20373Z" fill="white"/>
<path d="M94.845 14.889C97.4622 14.889 99.5079 12.4979 99.5079 9.47129C99.5079 6.44464 97.4622 4.08386 94.845 4.08386C92.1977 4.08386 90.0618 6.50518 90.0618 9.47129C90.0618 12.4677 92.2278 14.889 94.845 14.889ZM94.2132 5.29452C94.2433 5.26425 94.2433 5.29452 94.2132 5.29452L94.2433 13.6783C94.2433 13.6783 94.2433 13.6783 94.2132 13.6783C92.4684 13.3454 91.1448 11.5294 91.1448 9.47129C91.1448 7.41317 92.4383 5.62745 94.2132 5.29452ZM95.3263 13.6481V5.29452C95.3263 5.26425 95.3263 5.26425 95.3263 5.26425C97.1012 5.53665 98.3948 7.32237 98.3948 9.50156C98.3948 11.6505 97.1012 13.4362 95.2962 13.7086C95.3263 13.6783 95.3263 13.6783 95.3263 13.6481Z" fill="white"/>
<path d="M102.246 4.23523C101.945 4.23523 101.704 4.50763 101.704 4.81029V14.1021C101.704 14.435 101.945 14.6772 102.246 14.6772C102.547 14.6772 102.787 14.4048 102.787 14.1021V4.84056C102.817 4.50763 102.577 4.23523 102.246 4.23523Z" fill="white"/>
<path d="M110.218 5.35501C109.736 4.71941 109.014 4.38647 108.112 4.38647C107.661 4.38647 107.27 4.47727 106.909 4.6286C106.548 4.77994 106.217 4.9918 105.946 5.29447C105.675 5.56687 105.465 5.8998 105.314 6.29326C105.164 6.68672 105.104 7.08019 105.104 7.53419C105.104 7.95792 105.164 8.32112 105.284 8.65405C105.405 8.98698 105.555 9.25938 105.766 9.50151C105.976 9.74364 106.187 9.92524 106.457 10.0766H106.488C106.337 10.1674 106.217 10.2582 106.127 10.349C105.856 10.5911 105.645 10.8938 105.525 11.1964C105.405 11.4991 105.314 11.8018 105.254 12.1347C105.224 12.4374 105.194 12.7098 105.194 12.9519V13.981C105.194 14.102 105.194 14.1928 105.164 14.2836C105.134 14.4047 105.134 14.4652 105.104 14.5257L105.013 14.8889H106.187L106.217 14.6468C106.247 14.556 106.247 14.435 106.277 14.2836C106.307 14.1323 106.307 13.9809 106.307 13.8902V12.9822C106.307 12.7098 106.337 12.4374 106.397 12.1347C106.457 11.8623 106.548 11.6202 106.698 11.378C106.849 11.1662 107.089 10.9543 107.39 10.803C107.691 10.6516 108.112 10.5608 108.653 10.5608H109.887V14.8587H111V7.83685C110.94 6.80779 110.699 5.96034 110.218 5.35501ZM109.797 9.44098H108.593C108.232 9.44098 107.901 9.41071 107.601 9.31991C107.3 9.22911 107.059 9.10805 106.849 8.95672C106.638 8.80538 106.488 8.59352 106.367 8.35139C106.247 8.10925 106.187 7.80659 106.187 7.44339C106.187 7.11046 106.247 6.83806 106.337 6.59592C106.427 6.35379 106.578 6.14193 106.758 5.99059C106.939 5.83926 107.119 5.7182 107.36 5.6274C107.57 5.5366 107.811 5.50634 108.022 5.50634C108.202 5.50634 108.383 5.5366 108.623 5.59713C108.804 5.65767 109.014 5.74847 109.165 5.8998C109.345 6.05113 109.496 6.29326 109.616 6.59592C109.736 6.89859 109.797 7.35259 109.797 7.86712V9.44098Z" fill="white"/>
<path d="M21.7682 21.429C23.6889 19.2697 24.873 16.4285 24.873 13.3095C24.873 6.76839 19.6896 1.41429 13.2169 1.14911V0H12.1645V1.16174C5.71813 1.45217 0.574219 6.79364 0.574219 13.3221C0.574219 16.9967 2.20554 20.3052 4.79722 22.5403L9.52015 30.1547L8.80974 30.8366L8.99392 31.0134L9.48068 31.6069L8.7308 32.3266L8.91499 32.5034L9.20441 32.857L8.71765 33.4126L8.87552 33.5389L10.8094 35.3825V35.3951H10.8226L10.862 35.433L10.9015 35.3951L14.7035 35.4078L14.7298 35.433L14.7562 35.4078L16.7164 33.5389L16.8742 33.4126L16.4269 32.8949L16.8611 32.3645L17.0453 32.1877L16.4138 31.5816L16.8742 31.026L17.0584 30.8492L16.3743 30.1926L21.7682 21.429ZM23.8205 13.3221C23.8205 18.651 20.0974 23.1085 15.1377 24.2197C15.0456 24.0051 14.7167 23.8409 14.2694 23.7272L16.3875 19.7748C16.4269 19.7874 16.4796 19.8001 16.5322 19.8001C16.7558 19.8001 16.94 19.6233 16.94 19.396C16.94 19.1939 16.7953 19.0298 16.598 19.0045C16.4927 17.6281 15.0587 16.5043 13.2301 16.3275V2.17195C19.0976 2.4245 23.8205 7.324 23.8205 13.3221ZM13.2169 28.6394V25.4825C13.4669 25.4699 13.7168 25.4572 13.9668 25.432L13.4274 28.6394H13.2169ZM11.9671 28.6394L11.4146 25.4193C11.6645 25.4446 11.9145 25.4699 12.1645 25.4825V28.6394H11.9671ZM9.02023 18.9793C9.13863 17.7039 10.4542 16.6558 12.1645 16.4664V23.5631C11.9277 23.5757 11.6909 23.601 11.4672 23.6389L9.2965 19.5728C9.33597 19.5096 9.34913 19.4465 9.34913 19.3707C9.34913 19.1813 9.20441 19.0172 9.02023 18.9793ZM16.5322 19.4086C16.5322 19.4212 16.519 19.4339 16.5322 19.4339C16.5322 19.4339 16.519 19.4212 16.519 19.4086C16.519 19.396 16.5322 19.3834 16.519 19.3834C16.519 19.3834 16.5322 19.3834 16.5322 19.4086ZM16.1244 19.4086C16.1244 19.4844 16.1507 19.5475 16.177 19.6106L14.0063 23.6641C13.7695 23.6136 13.4932 23.5883 13.2169 23.5757V16.4664C14.9798 16.6305 16.348 17.7039 16.4532 19.0172C16.2691 19.0424 16.1244 19.2066 16.1244 19.4086ZM13.2169 24.4723V23.8283C14.1378 23.8914 14.743 24.0934 14.8746 24.2702C14.3352 24.3713 13.7826 24.447 13.2169 24.4723ZM12.1645 23.8283V24.4723C11.5988 24.447 11.0331 24.3713 10.4937 24.2576C10.6384 24.0808 11.2567 23.8788 12.1645 23.8283ZM12.1645 2.17195V16.3527C10.3884 16.5548 9.00708 17.6407 8.88867 18.9919C8.69134 19.0172 8.54662 19.1813 8.54662 19.3834C8.54662 19.6106 8.7308 19.7874 8.95445 19.7874C9.00708 19.7874 9.0597 19.7748 9.09917 19.7622L11.2041 23.702C10.7042 23.803 10.3358 23.9798 10.2306 24.1945C5.3103 23.058 1.62668 18.6131 1.62668 13.3221C1.62668 7.34926 6.31014 2.46238 12.1645 2.17195ZM11.0068 25.3688L11.5593 28.6394H10.3227V29.5233H15.1903V28.6394H13.8089L14.3615 25.3815C16.7164 25.0531 18.8608 24.0556 20.5973 22.5781L16.0586 29.8895H9.82273L5.69182 23.2348C7.23105 24.346 9.04654 25.091 11.0068 25.3688ZM10.2569 34.3218H15.2955L14.5588 35.0163L10.9673 35.0037L10.2569 34.3218ZM9.8622 33.943L9.25704 33.3747L9.53331 33.0464H16.0191L16.2954 33.3621L15.6902 33.943H9.8622ZM16.0849 32.6676H9.55962L9.27019 32.3266L9.82273 31.7963L9.80958 31.7836H16.0586L16.4664 32.1751L16.0849 32.6676ZM16.0586 31.4048H9.77011L9.79642 31.3922L9.34913 30.8492L9.90167 30.3188L9.8622 30.281H15.9665L15.927 30.3188L16.4796 30.8492L16.0323 31.3922L16.0586 31.4048Z" fill="white"/>
</svg>
