<svg width="16" height="18" viewBox="0 0 16 18" fill="none" xmlns="http://www.w3.org/2000/svg">
<path fill-rule="evenodd" clip-rule="evenodd" d="M2.65406 2.18377C4.07191 0.785524 5.99492 0 8.00006 0C10.0052 0 11.9282 0.785524 13.3461 2.18377C14.7639 3.58201 15.5604 5.47843 15.5604 7.45584C15.5604 9.43326 14.7639 11.3297 13.3461 12.7279L8.00006 18L2.65406 12.7279C1.95197 12.0356 1.39503 11.2137 1.01506 10.3091C0.635085 9.40452 0.439514 8.43497 0.439514 7.45584C0.439514 6.47672 0.635085 5.50717 1.01506 4.60259C1.39503 3.698 1.95197 2.87608 2.65406 2.18377ZM8.00006 9.58598C8.57293 9.58598 9.12233 9.36155 9.52741 8.96208C9.93249 8.5626 10.1601 8.02079 10.1601 7.45584C10.1601 6.8909 9.93249 6.34909 9.52741 5.94961C9.12233 5.55014 8.57293 5.32571 8.00006 5.32571C7.42719 5.32571 6.87779 5.55014 6.47271 5.94961C6.06763 6.34909 5.84006 6.8909 5.84006 7.45584C5.84006 8.02079 6.06763 8.5626 6.47271 8.96208C6.87779 9.36155 7.42719 9.58598 8.00006 9.58598Z" fill="#F1C86E"/>
</svg>
