<svg width="13" height="13" viewBox="0 0 13 13" fill="none" xmlns="http://www.w3.org/2000/svg">
<path fill-rule="evenodd" clip-rule="evenodd" d="M1.515 4.625L1.5 4.58187C1.1625 3.615 0.875 2.29375 0.875 1.5C0.875 1.15625 1.15625 0.875 1.5 0.875H3.375C3.70652 0.875 4.02446 1.0067 4.25888 1.24112C4.4933 1.47554 4.625 1.79348 4.625 2.125V3.375C4.625 3.70652 4.4933 4.02446 4.25888 4.25888C4.02446 4.4933 3.70652 4.625 3.375 4.625H2.85188C3.35648 5.86811 4.10527 6.9974 5.05393 7.94607C6.0026 8.89473 7.13189 9.64352 8.375 10.1481V9.625C8.375 9.29348 8.5067 8.97554 8.74112 8.74112C8.97554 8.5067 9.29348 8.375 9.625 8.375H10.875C11.2065 8.375 11.5245 8.5067 11.7589 8.74112C11.9933 8.97554 12.125 9.29348 12.125 9.625V11.5C12.125 11.7812 11.7812 12.125 11.5 12.125C10.4219 12.125 9.35 11.84 8.375 11.5C5.17875 10.355 2.645 7.82125 1.515 4.625Z" fill="#23262F"/>
</svg>
