<svg width="16" height="16" viewBox="0 0 16 16" fill="none" xmlns="http://www.w3.org/2000/svg">
<path d="M8 1C9.79573 1 11.25 2.45427 11.25 4.25C11.25 6.04573 9.79573 7.5 8 7.5C6.20427 7.5 4.75 6.04573 4.75 4.25C4.75 2.45427 6.20427 1 8 1ZM8.0001 15H8.00004H7.99996H7.9999L7.99913 15L7.99556 15L7.9805 14.9999L7.91994 14.9996C7.86648 14.9991 7.78751 14.9982 7.68666 14.9964C7.48492 14.9928 7.19596 14.9856 6.84894 14.9711C6.15363 14.9422 5.23098 14.8844 4.31202 14.7695C3.38554 14.6537 2.4947 14.4835 1.84744 14.2408C1.52221 14.1189 1.29222 13.9907 1.15152 13.8676C1.01724 13.7501 1 13.6717 1 13.625C1 12.7606 1.72986 11.7197 3.07772 10.8589C4.39537 10.0174 6.17756 9.4375 8 9.4375C9.82244 9.4375 11.6046 10.0174 12.9223 10.8589C14.2701 11.7197 15 12.7606 15 13.625C15 13.6717 14.9828 13.7501 14.8485 13.8676C14.7078 13.9907 14.4778 14.1189 14.1526 14.2408C13.5053 14.4835 12.6145 14.6537 11.688 14.7695C10.769 14.8844 9.84637 14.9422 9.15106 14.9711C8.80404 14.9856 8.51508 14.9928 8.31334 14.9964C8.21249 14.9982 8.13352 14.9991 8.08006 14.9996L8.0195 14.9999L8.00444 15L8.00087 15L8.0001 15Z" stroke="white"/>
</svg>
