<svg width="110" height="30" viewBox="0 0 110 30" fill="none" xmlns="http://www.w3.org/2000/svg">
<path fill-rule="evenodd" clip-rule="evenodd" d="M9.8897 26.9652L19.8622 16.8636C20.2366 16.4839 20.2374 15.8763 19.8622 15.4958C19.4866 15.1153 18.8879 15.1157 18.5119 15.4958L12.3154 21.7729L7.18688 26.9652H9.8897ZM18.64 3.89949C14.6453 7.94643 10.6506 11.993 6.65597 16.0395C5.75451 16.9527 7.13044 18.2826 8.00037 17.4014L18.64 6.62361V3.89949ZM5.06207 14.4249C9.05791 10.3776 13.0534 6.33026 17.0492 2.28252H14.332L3.70638 13.052C2.73797 14.0334 2.25338 15.32 2.25338 16.6057C2.25338 17.8911 2.73797 19.1777 3.70638 20.1583C4.67517 21.14 5.94484 21.6305 7.21413 21.6305C8.48341 21.6305 9.75347 21.14 10.7219 20.1583L16.9184 13.8816C18.1671 12.6164 20.207 12.6164 21.4557 13.8816C22.7063 15.1481 22.7071 17.2114 21.4557 18.4778L13.074 26.9652H15.7772L22.8059 19.8452C23.7743 18.8642 24.2589 17.5777 24.2589 16.2923C24.2589 15.0065 23.7743 13.72 22.8059 12.7386C21.8371 11.7576 20.5675 11.2667 19.2982 11.2667C18.0289 11.2667 16.7588 11.7576 15.7908 12.7386L9.59388 19.016C8.34718 20.2789 6.30877 20.2789 5.06207 19.016C3.81381 17.7511 3.81303 15.6906 5.06207 14.4249ZM20.8936 0V7.5695L19.4944 8.98695C21.2747 9.03545 23.041 9.74793 24.3998 11.1244C25.8081 12.5513 26.5126 14.4218 26.5126 16.2923C26.5126 18.0165 25.8801 19.9055 24.6855 21.1601L24.5419 21.3107C21.8617 24.0928 19.297 26.6289 16.7114 29.2481H1.76489L7.01834 23.9107C5.23761 23.8618 3.47167 23.1493 2.11287 21.7729C0.703851 20.3463 0.00012207 18.4758 0.00012207 16.6057C0.00012207 14.7349 0.703851 12.8648 2.11287 11.4378L13.4103 0H20.8936Z" fill="#EEEEEE"/>
<path d="M32.0259 17.6446C32.6934 18.0491 33.3037 18.3284 33.8566 18.4827C34.4095 18.637 34.9253 18.7141 35.4041 18.7141C36.193 18.7141 36.7881 18.5958 37.1893 18.3593C37.5905 18.1228 37.7911 17.8023 37.7911 17.3978C37.7911 17.1715 37.7287 16.983 37.604 16.8322C37.4792 16.6813 37.2989 16.5545 37.0629 16.4517C36.8269 16.3488 36.5302 16.258 36.1728 16.1792L35.718 16.0821C35.4777 16.0323 35.218 15.9807 34.9388 15.9272C34.5882 15.8724 34.2106 15.7935 33.806 15.6907C33.4014 15.5878 33.0255 15.4267 32.6782 15.2074C32.331 14.988 32.0427 14.6949 31.8135 14.3281C31.5842 13.9613 31.4696 13.4866 31.4696 12.9038C31.4696 12.4102 31.5572 11.9594 31.7325 11.5515C31.9079 11.1436 32.1776 10.7905 32.5417 10.4923C32.9058 10.1941 33.3677 9.96269 33.9274 9.79815C34.487 9.63361 35.1512 9.55134 35.9199 9.55134C36.7156 9.55134 37.459 9.64047 38.1502 9.81872C38.8413 9.99697 39.4971 10.2438 40.1174 10.5591L39.4499 12.513C39.2004 12.4033 38.9374 12.2937 38.6609 12.184C38.3845 12.0743 38.0996 11.9766 37.8063 11.8909C37.5129 11.8052 37.2146 11.7366 36.9111 11.6852C36.6077 11.6338 36.3009 11.6081 35.9907 11.6081C35.6131 11.6081 35.2962 11.6441 35.04 11.7161C34.7837 11.788 34.5764 11.884 34.4179 12.004C34.2595 12.124 34.1465 12.2611 34.0791 12.4153C34.0117 12.5696 33.978 12.7256 33.978 12.8832C33.978 13.2466 34.1718 13.5174 34.5595 13.6957C34.9473 13.8739 35.5592 14.011 36.3953 14.107C36.901 14.1893 37.3983 14.2904 37.8872 14.4104C38.376 14.5303 38.8127 14.7017 39.197 14.9246C39.5814 15.1474 39.8915 15.4422 40.1275 15.8089C40.3635 16.1757 40.4815 16.6505 40.4815 17.2332C40.4815 17.7886 40.3652 18.2873 40.1326 18.7295C39.9 19.1717 39.5712 19.5436 39.1464 19.8453C38.7216 20.1469 38.2142 20.3783 37.6242 20.5394C37.0342 20.7005 36.3818 20.7811 35.6671 20.7811C35.2557 20.7811 34.8647 20.764 34.4938 20.7297C34.1229 20.6954 33.7605 20.6388 33.4065 20.56C33.0525 20.4812 32.7035 20.3732 32.3596 20.2361C32.0157 20.0989 31.6651 19.9276 31.3077 19.7219L32.0259 17.6446ZM42.9165 6.86731L44.7169 6.85703V9.87014H48.0344V12.0297H44.7068V16.3591C44.7068 16.7842 44.7556 17.1355 44.8534 17.4132C44.9512 17.6909 45.0827 17.9102 45.2479 18.0714C45.4131 18.2325 45.6069 18.3456 45.8295 18.4107C46.052 18.4758 46.288 18.5084 46.5375 18.5084H48.3176L48.2974 20.5651H46.3048C45.7452 20.5651 45.2192 20.5069 44.727 20.3903C44.2348 20.2738 43.8066 20.0595 43.4425 19.7476C43.0783 19.4356 42.7901 19.0089 42.5777 18.4673C42.3653 17.9257 42.2591 17.2298 42.2591 16.3797V12.0297H40.5194V10.0964L42.1984 9.62333L42.9165 6.86731ZM56.9932 19.2488C56.7235 19.4819 56.4234 19.691 56.093 19.8761C55.7626 20.0612 55.417 20.2155 55.0563 20.3389C54.6955 20.4623 54.3264 20.5566 53.9488 20.6217C53.5711 20.6868 53.1969 20.716 52.8261 20.7091C52.3271 20.7023 51.8568 20.632 51.4151 20.4983C50.9734 20.3646 50.5874 20.1555 50.257 19.871C49.9266 19.5865 49.6636 19.2214 49.4681 18.7758C49.2725 18.3302 49.1747 17.7886 49.1747 17.151C49.1747 16.5682 49.313 16.0866 49.5894 15.7061C49.8659 15.3256 50.2384 15.0223 50.7071 14.796C51.1757 14.5698 51.7253 14.4104 52.3557 14.3178C52.9862 14.2253 53.6554 14.179 54.3634 14.179C54.5657 14.179 54.7844 14.1815 55.0195 14.1864L56.1373 14.2176C56.3404 14.2227 56.538 14.227 56.7302 14.2304V13.274C56.7302 13.0478 56.6763 12.8335 56.5684 12.6313C56.4605 12.4291 56.302 12.2525 56.093 12.1017C55.884 11.9509 55.6244 11.8309 55.3142 11.7418C55.004 11.6526 54.6467 11.6081 54.2421 11.6081C53.9251 11.6081 53.6234 11.6475 53.3368 11.7263C53.0503 11.8052 52.8008 11.908 52.5884 12.0348C52.376 12.1617 52.2074 12.3108 52.0826 12.4822C51.9579 12.6536 51.8955 12.8318 51.8955 13.0169H49.4175C49.431 12.4616 49.5608 11.968 49.8069 11.5361C50.053 11.1042 50.3885 10.7408 50.8133 10.446C51.2381 10.1512 51.7387 9.92841 52.3153 9.77758C52.8918 9.62676 53.5138 9.55134 54.1814 9.55134C54.9771 9.55134 55.6867 9.63704 56.3105 9.80843C56.9342 9.97983 57.4601 10.2215 57.8883 10.5334C58.3165 10.8454 58.6419 11.219 58.8644 11.6544C59.0869 12.0897 59.1981 12.5679 59.1981 13.0889V20.452H57.1955L56.9932 19.2488ZM53.706 18.7346C54.0162 18.7346 54.3314 18.6952 54.6517 18.6164C54.972 18.5375 55.2721 18.4313 55.5519 18.2976C55.8317 18.1639 56.0745 18.0028 56.2801 17.8143C56.4858 17.6257 56.6358 17.4183 56.7302 17.1921V15.9683L56.0077 15.95C55.923 15.9477 55.8368 15.9452 55.7491 15.9426C55.3985 15.9324 55.0411 15.9272 54.677 15.9272C54.2994 15.9272 53.9319 15.9461 53.5745 15.9838C53.2171 16.0215 52.9002 16.0883 52.6238 16.1843C52.3473 16.2803 52.1231 16.414 51.9512 16.5854C51.7792 16.7568 51.6932 16.9796 51.6932 17.2538C51.6932 17.528 51.7455 17.7594 51.85 17.9479C51.9545 18.1365 52.0978 18.2907 52.2799 18.4107C52.4619 18.5307 52.676 18.6147 52.9221 18.6627C53.1683 18.7107 53.4295 18.7346 53.706 18.7346ZM67.813 12.0606L66.5892 12.0708C66.1104 12.0708 65.6789 12.1411 65.2945 12.2817C64.9102 12.4222 64.5815 12.6313 64.3084 12.909C64.0353 13.1866 63.8263 13.5328 63.6813 13.9476C63.5363 14.3624 63.4638 14.8406 63.4638 15.3822V20.452H61.006V9.87014H62.9986L63.2211 11.135C63.5717 10.7717 64.0151 10.47 64.5511 10.2301C65.0872 9.99011 65.7227 9.87014 66.4577 9.87014H67.813V12.0606ZM88.4211 9.87014L84.1325 20.452H81.9073L79.6923 15.2074L77.7099 20.452H75.4746L71.1962 9.87014H73.836L76.4152 16.5237L76.5669 17.1304H76.6074L76.7692 16.5237L78.4988 12.3691L77.4469 9.87014H80.0868L82.848 16.5237L82.9997 17.1304H83.0503L83.1919 16.5237L85.7711 9.87014H88.4211ZM96.1054 19.2488C95.8357 19.4819 95.5356 19.691 95.2052 19.8761C94.8748 20.0612 94.5293 20.2155 94.1685 20.3389C93.8078 20.4623 93.4386 20.5566 93.061 20.6217C92.6834 20.6868 92.3091 20.716 91.9383 20.7091C91.4393 20.7023 90.969 20.632 90.5273 20.4983C90.0856 20.3646 89.6996 20.1555 89.3692 19.871C89.0388 19.5865 88.7758 19.2214 88.5803 18.7758C88.3847 18.3302 88.287 17.7886 88.287 17.151C88.287 16.5682 88.4252 16.0866 88.7016 15.7061C88.9781 15.3256 89.3507 15.0223 89.8193 14.796C90.2879 14.5698 90.8375 14.4104 91.4679 14.3178C92.0984 14.2253 92.7676 14.179 93.4757 14.179C93.678 14.179 93.8966 14.1815 94.1317 14.1864L95.2495 14.2176C95.4526 14.2227 95.6503 14.227 95.8424 14.2304V13.274C95.8424 13.0478 95.7885 12.8335 95.6806 12.6313C95.5727 12.4291 95.4143 12.2525 95.2052 12.1017C94.9962 11.9509 94.7366 11.8309 94.4264 11.7418C94.1162 11.6526 93.7589 11.6081 93.3543 11.6081C93.0374 11.6081 92.7356 11.6475 92.449 11.7263C92.1625 11.8052 91.913 11.908 91.7006 12.0348C91.4882 12.1617 91.3196 12.3108 91.1949 12.4822C91.0701 12.6536 91.0077 12.8318 91.0077 13.0169H88.5297C88.5432 12.4616 88.673 11.968 88.9191 11.5361C89.1652 11.1042 89.5007 10.7408 89.9255 10.446C90.3503 10.1512 90.851 9.92841 91.4275 9.77758C92.004 9.62676 92.626 9.55134 93.2936 9.55134C94.0893 9.55134 94.799 9.63704 95.4227 9.80843C96.0464 9.97983 96.5724 10.2215 97.0005 10.5334C97.4287 10.8454 97.7541 11.219 97.9766 11.6544C98.1991 12.0897 98.3104 12.5679 98.3104 13.0889V20.452H96.3077L96.1054 19.2488ZM92.8182 18.7346C93.1284 18.7346 93.4436 18.6952 93.7639 18.6164C94.0842 18.5375 94.3843 18.4313 94.6641 18.2976C94.9439 18.1639 95.1867 18.0028 95.3923 17.8143C95.598 17.6257 95.748 17.4183 95.8424 17.1921V15.9683L95.1199 15.95C95.0352 15.9477 94.949 15.9452 94.8613 15.9426C94.5107 15.9324 94.1533 15.9272 93.7892 15.9272C93.4116 15.9272 93.0441 15.9461 92.6867 15.9838C92.3294 16.0215 92.0124 16.0883 91.736 16.1843C91.4595 16.2803 91.2353 16.414 91.0634 16.5854C90.8914 16.7568 90.8055 16.9796 90.8055 17.2538C90.8055 17.528 90.8577 17.7594 90.9622 17.9479C91.0667 18.1365 91.21 18.2907 91.3921 18.4107C91.5742 18.5307 91.7882 18.6147 92.0344 18.6627C92.2805 18.7107 92.5418 18.7346 92.8182 18.7346ZM110 9.87014L105.55 20.2155C105.226 21.0039 104.924 21.6449 104.644 22.1385C104.365 22.6322 104.065 23.0161 103.744 23.2903C103.424 23.5645 103.063 23.7514 102.662 23.8508C102.261 23.9502 101.78 23.9999 101.221 23.9999H99.5923L99.5822 21.9431H101.362C101.578 21.9431 101.764 21.8934 101.919 21.794C102.074 21.6946 102.214 21.5541 102.338 21.3724C102.463 21.1907 102.579 20.9713 102.687 20.7143L102.947 20.0866C102.978 20.0114 103.009 19.9344 103.041 19.8556L98.7933 9.87014H101.514L104.285 16.5956L104.407 17.1304L107.36 9.88042L110 9.87014Z" fill="#ADB7D0"/>
</svg>
