<svg width="20" height="20" viewBox="0 0 20 20" fill="none" xmlns="http://www.w3.org/2000/svg">
<path d="M9.9776 6.73999V10.0733L11.6443 11.74" stroke="#F1C86E" stroke-linecap="round" stroke-linejoin="round"/>
<path d="M2.51929 16.74V12.5733H6.68595M2.51929 9.23996C2.70603 7.40668 3.56117 5.70631 4.92156 4.46327C6.28195 3.22023 8.05236 2.52154 9.89501 2.50049C11.7377 2.47944 13.5236 3.13752 14.912 4.34916C16.3004 5.5608 17.1942 7.24119 17.4228 9.06973C17.6513 10.8983 17.1987 12.747 16.1512 14.2631C15.1038 15.7792 13.5348 16.8567 11.7437 17.2898C9.95255 17.723 8.06462 17.4816 6.44011 16.6117C4.8156 15.7418 3.56822 14.3042 2.93595 12.5733L2.51929 9.23996Z" stroke="#F1C86E" stroke-linecap="round" stroke-linejoin="round"/>
</svg>
