<svg width="176" height="261" viewBox="0 0 176 261" fill="none" xmlns="http://www.w3.org/2000/svg">
<g clip-path="url(#clip0)" filter="url(#filter0_d)">
<g opacity="0.8" filter="url(#filter1_f)">
<ellipse cx="93.0323" cy="113.226" rx="52.8387" ry="49.0645" fill="#ADB7D0"/>
</g>
<g opacity="0.8" filter="url(#filter2_f)">
<ellipse cx="94.9193" cy="120.774" rx="35.8548" ry="33.9677" fill="#CBA863"/>
</g>
<path d="M88 173.806C44.9859 173.806 10 137.255 10 92.4321C10 47.5245 44.9859 11.0582 88 11.0582C131.014 11.0582 166 47.5245 166 92.4321C166 137.255 131.014 173.806 88 173.806ZM88 17.8112C48.7042 17.8112 16.7606 51.2387 16.7606 92.4321C16.7606 133.626 48.7042 167.053 88 167.053C127.296 167.053 159.239 133.541 159.239 92.4321C159.239 51.3231 127.296 17.8112 88 17.8112Z" fill="white"/>
<path d="M91.211 3.37653H84.4504V197.779H91.211V3.37653Z" fill="white"/>
<path d="M97.5495 0H77.8594V6.75303H97.5495V0Z" fill="white"/>
<path d="M79.168 170.239L76.6658 170.646L81.1257 197.974L83.6279 197.566L79.168 170.239Z" fill="white"/>
<path d="M109.887 203.182H67.7183V205.714H109.887V203.182Z" fill="white"/>
<path d="M109.887 213.311H67.7183V215.844H109.887V213.311Z" fill="white"/>
<path d="M111.155 221.753H66.6199V224.285H111.155V221.753Z" fill="white"/>
<path d="M108.112 230.278H69.1545V232.81H108.112V230.278Z" fill="white"/>
<path d="M72.3839 237.375L72.3767 240.571L104.266 240.643L104.273 237.447L72.3839 237.375Z" fill="white"/>
<path d="M67.6237 214.182L62.3652 219.435L64.1579 221.226L69.4163 215.973L67.6237 214.182Z" fill="white"/>
<path d="M65.5008 219.004L63.5066 220.567L66.7419 224.684L68.7361 223.12L65.5008 219.004Z" fill="white"/>
<path d="M34.8679 145.356L32.6899 146.653L67.9461 205.756L70.1241 204.459L34.8679 145.356Z" fill="white"/>
<path d="M65.8352 133.983L64.3318 134.754L78.7756 162.836L80.2789 162.064L65.8352 133.983Z" fill="white"/>
<path d="M63.7462 134.385C64.4929 134.385 65.0983 133.743 65.0983 132.95C65.0983 132.158 64.4929 131.515 63.7462 131.515C62.9994 131.515 62.394 132.158 62.394 132.95C62.394 133.743 62.9994 134.385 63.7462 134.385Z" fill="white"/>
<path d="M63.7464 135.567C62.3098 135.567 61.1267 134.385 61.1267 132.866C61.1267 131.346 62.3098 130.165 63.7464 130.165C65.183 130.165 66.3661 131.346 66.3661 132.866C66.3661 134.385 65.183 135.567 63.7464 135.567ZM63.7464 132.781C63.7464 132.781 63.7464 132.866 63.7464 132.95C63.7464 133.035 63.8309 133.119 63.8309 133.119C63.8309 133.119 63.8309 133.035 63.8309 132.95C63.8309 132.866 63.7464 132.781 63.7464 132.781Z" fill="white"/>
<path d="M87.7465 171.274C79.8028 171.274 71.7747 169.501 71.7747 166.04C71.7747 162.579 79.8028 160.806 87.7465 160.806C95.6902 160.806 103.718 162.579 103.718 166.04C103.718 169.501 95.6057 171.274 87.7465 171.274ZM87.7465 162.495C79.0423 162.495 73.4648 164.605 73.4648 166.04C73.4648 167.475 79.0423 169.585 87.7465 169.585C96.4507 169.585 102.028 167.475 102.028 166.04C102.028 164.605 96.4507 162.495 87.7465 162.495Z" fill="white"/>
<path d="M68.1149 204.252L62.8564 209.505L64.6491 211.295L69.9075 206.043L68.1149 204.252Z" fill="white"/>
<path d="M65.9952 209.058L64.0012 210.622L67.2371 214.738L69.231 213.174L65.9952 209.058Z" fill="white"/>
<path d="M65.9542 222.274L62.3018 226.706L64.2589 228.315L67.9114 223.884L65.9542 222.274Z" fill="white"/>
<path d="M64.9952 225.628L63.2102 227.426L76.052 240.146L77.837 238.347L64.9952 225.628Z" fill="white"/>
<path d="M110.361 213.191L108.568 214.981L113.827 220.234L115.619 218.443L110.361 213.191Z" fill="white"/>
<path d="M112.519 217.975L109.282 222.091L111.276 223.656L114.513 219.54L112.519 217.975Z" fill="white"/>
<path d="M110.34 204.177L108.547 205.968L113.805 211.221L115.598 209.43L110.34 204.177Z" fill="white"/>
<path d="M112.539 209.017L109.304 213.134L111.299 214.698L114.534 210.58L112.539 209.017Z" fill="white"/>
<path d="M110.873 222.205L108.916 223.815L112.568 228.246L114.525 226.636L110.873 222.205Z" fill="white"/>
<path d="M111.841 225.561L99.0066 238.287L100.793 240.084L113.627 227.358L111.841 225.561Z" fill="white"/>
<path d="M143.961 145.353L108.725 204.462L110.903 205.758L146.139 146.648L143.961 145.353Z" fill="white"/>
<path d="M96.4771 170.175L92.02 197.502L94.5223 197.909L98.9794 170.582L96.4771 170.175Z" fill="white"/>
<path d="M103.887 194.825H72.6196V200.734H103.887V194.825Z" fill="white"/>
<path d="M110.404 134.145L95.9597 162.227L97.4631 162.999L111.907 134.917L110.404 134.145Z" fill="white"/>
<path d="M112.423 135.736C110.986 135.736 109.803 134.554 109.803 133.035C109.803 131.515 110.986 130.333 112.423 130.333C113.859 130.333 115.042 131.515 115.042 133.035C115.042 134.554 113.859 135.736 112.423 135.736ZM112.423 132.95C112.423 132.95 112.423 133.035 112.423 133.119C112.423 133.203 112.507 133.288 112.507 133.288C112.507 133.288 112.507 133.203 112.507 133.119C112.507 132.95 112.423 132.95 112.423 132.95Z" fill="white"/>
<path d="M112.845 131.937H111.07V131.093H112C111.746 121.217 101.098 113.282 88.0843 113.282C74.9012 113.282 64.1688 121.47 64.1688 131.515H63.3237C63.3237 120.964 74.3942 112.438 88.0843 112.438C101.69 112.438 112.845 120.964 112.845 131.515V131.937Z" fill="white"/>
</g>
<defs>
<filter id="filter0_d" x="0.031949" y="0" width="175.936" height="268.194" filterUnits="userSpaceOnUse" color-interpolation-filters="sRGB">
<feFlood flood-opacity="0" result="BackgroundImageFix"/>
<feColorMatrix in="SourceAlpha" type="matrix" values="0 0 0 0 0 0 0 0 0 0 0 0 0 0 0 0 0 0 127 0"/>
<feOffset dy="9.96805"/>
<feGaussianBlur stdDeviation="4.98403"/>
<feColorMatrix type="matrix" values="0 0 0 0 0 0 0 0 0 0 0 0 0 0 0 0 0 0 0.1 0"/>
<feBlend mode="normal" in2="BackgroundImageFix" result="effect1_dropShadow"/>
<feBlend mode="normal" in="SourceGraphic" in2="effect1_dropShadow" result="shape"/>
</filter>
<filter id="filter1_f" x="2.45166" y="26.4193" width="181.161" height="173.613" filterUnits="userSpaceOnUse" color-interpolation-filters="sRGB">
<feFlood flood-opacity="0" result="BackgroundImageFix"/>
<feBlend mode="normal" in="SourceGraphic" in2="BackgroundImageFix" result="shape"/>
<feGaussianBlur stdDeviation="18.871" result="effect1_foregroundBlur"/>
</filter>
<filter id="filter2_f" x="21.3225" y="49.0645" width="147.194" height="143.419" filterUnits="userSpaceOnUse" color-interpolation-filters="sRGB">
<feFlood flood-opacity="0" result="BackgroundImageFix"/>
<feBlend mode="normal" in="SourceGraphic" in2="BackgroundImageFix" result="shape"/>
<feGaussianBlur stdDeviation="18.871" result="effect1_foregroundBlur"/>
</filter>
<clipPath id="clip0">
<rect width="156" height="248.258" fill="white" transform="translate(10)"/>
</clipPath>
</defs>
</svg>
