<svg fill="none" height="261" viewBox="0 0 176 261" width="176" xmlns="http://www.w3.org/2000/svg" xmlns:xlink="http://www.w3.org/1999/xlink"><filter id="a" color-interpolation-filters="sRGB" filterUnits="userSpaceOnUse" height="268.194" width="175.936" x=".031949" y="0"><feFlood flood-opacity="0" result="BackgroundImageFix"/><feColorMatrix in="SourceAlpha" type="matrix" values="0 0 0 0 0 0 0 0 0 0 0 0 0 0 0 0 0 0 127 0"/><feOffset dy="9.96805"/><feGaussianBlur stdDeviation="4.98403"/><feColorMatrix type="matrix" values="0 0 0 0 0 0 0 0 0 0 0 0 0 0 0 0 0 0 0.1 0"/><feBlend in2="BackgroundImageFix" mode="normal" result="effect1_dropShadow"/><feBlend in="SourceGraphic" in2="effect1_dropShadow" mode="normal" result="shape"/></filter><filter id="b" color-interpolation-filters="sRGB" filterUnits="userSpaceOnUse" height="173.613" width="181.161" x="2.4516" y="26.4193"><feFlood flood-opacity="0" result="BackgroundImageFix"/><feBlend in="SourceGraphic" in2="BackgroundImageFix" mode="normal" result="shape"/><feGaussianBlur result="effect1_foregroundBlur" stdDeviation="18.871"/></filter><filter id="c" color-interpolation-filters="sRGB" filterUnits="userSpaceOnUse" height="143.419" width="147.194" x="21.3226" y="49.0645"><feFlood flood-opacity="0" result="BackgroundImageFix"/><feBlend in="SourceGraphic" in2="BackgroundImageFix" mode="normal" result="shape"/><feGaussianBlur result="effect1_foregroundBlur" stdDeviation="18.871"/></filter><clipPath id="d"><path d="m10 0h156v248.258h-156z"/></clipPath><g clip-path="url(#d)" filter="url(#a)"><g filter="url(#b)" opacity=".8"><ellipse cx="93.0322" cy="113.226" fill="#adb7d0" rx="52.8387" ry="49.0645"/></g><g filter="url(#c)" opacity=".8"><ellipse cx="94.9193" cy="120.774" fill="#cba863" rx="35.8548" ry="33.9677"/></g><g fill="#fff"><path d="m88 173.806c-43.0141 0-78-36.551-78-81.3739 0-44.9076 34.9859-81.3739 78-81.3739 43.014 0 78 36.4663 78 81.3739 0 44.8229-34.986 81.3739-78 81.3739zm0-155.9948c-39.2958 0-71.2394 33.4275-71.2394 74.6209 0 41.1939 31.9436 74.6209 71.2394 74.6209 39.296 0 71.239-33.512 71.239-74.6209 0-41.109-31.943-74.6209-71.239-74.6209z"/><path d="m91.211 3.37653h-6.7606v194.40247h6.7606z"/><path d="m97.5496 0h-19.6902v6.75303h19.6902z"/><path d="m79.1679 170.239-2.5022.407 4.4599 27.328 2.5022-.408z"/><path d="m109.887 203.182h-42.1687v2.532h42.1687z"/><path d="m109.887 213.311h-42.1687v2.533h42.1687z"/><path d="m111.155 221.753h-44.5351v2.532h44.5351z"/><path d="m108.112 230.278h-38.9575v2.532h38.9575z"/><path d="m72.3838 237.375-.0072 3.196 31.8894.072.007-3.196z"/><path d="m67.6238 214.182-5.2585 5.253 1.7927 1.791 5.2584-5.253z"/><path d="m65.5007 219.004-1.9942 1.563 3.2354 4.117 1.9942-1.564z"/><path d="m34.868 145.356-2.178 1.297 35.2562 59.103 2.178-1.297z"/><path d="m65.8352 133.983-1.5034.771 14.4438 28.082 1.5034-.772z"/><path d="m63.7461 134.385c.7468 0 1.3521-.642 1.3521-1.435 0-.792-.6053-1.435-1.3521-1.435s-1.3521.643-1.3521 1.435c0 .793.6053 1.435 1.3521 1.435z"/><path d="m63.7463 135.567c-1.4366 0-2.6197-1.182-2.6197-2.701 0-1.52 1.1831-2.701 2.6197-2.701 1.4367 0 2.6198 1.181 2.6198 2.701 0 1.519-1.1831 2.701-2.6198 2.701zm0-2.786v.169c0 .085.0845.169.0845.169s0-.084 0-.169c0-.084-.0845-.169-.0845-.169z"/><path d="m87.7464 171.274c-7.9437 0-15.9718-1.773-15.9718-5.234s8.0281-5.234 15.9718-5.234 15.9716 1.773 15.9716 5.234-8.1124 5.234-15.9716 5.234zm0-8.779c-8.7042 0-14.2817 2.11-14.2817 3.545s5.5775 3.545 14.2817 3.545 14.2816-2.11 14.2816-3.545-5.5774-3.545-14.2816-3.545z"/><path d="m68.115 204.252-5.2585 5.253 1.7927 1.79 5.2584-5.252z"/><path d="m65.9951 209.058-1.994 1.564 3.2359 4.116 1.994-1.564z"/><path d="m65.9542 222.274-3.6525 4.432 1.9572 1.609 3.6524-4.431z"/><path d="m64.9953 225.628-1.785 1.798 12.8418 12.72 1.785-1.799z"/><path d="m110.361 213.191-1.793 1.79 5.259 5.253 1.792-1.791z"/><path d="m112.519 217.975-3.237 4.116 1.994 1.565 3.237-4.116z"/><path d="m110.34 204.177-1.793 1.791 5.258 5.253 1.793-1.791z"/><path d="m112.539 209.017-3.235 4.117 1.995 1.564 3.235-4.118z"/><path d="m110.873 222.205-1.957 1.61 3.652 4.431 1.957-1.61z"/><path d="m111.841 225.561-12.8345 12.726 1.7865 1.797 12.834-12.726z"/><path d="m143.961 145.353-35.236 59.109 2.178 1.296 35.236-59.11z"/><path d="m96.4772 170.175-4.4571 27.327 2.5023.407 4.4571-27.327z"/><path d="m103.887 194.825h-31.2674v5.909h31.2674z"/><path d="m110.403 134.145-14.4433 28.082 1.5033.772 14.444-28.082z"/><path d="m112.423 135.736c-1.437 0-2.62-1.182-2.62-2.701 0-1.52 1.183-2.702 2.62-2.702 1.436 0 2.619 1.182 2.619 2.702 0 1.519-1.183 2.701-2.619 2.701zm0-2.786v.169c0 .084.084.169.084.169s0-.085 0-.169c0-.169-.084-.169-.084-.169z"/><path d="m112.845 131.937h-1.775v-.844h.93c-.254-9.876-10.902-17.811-23.9158-17.811-13.1831 0-23.9155 8.188-23.9155 18.233h-.845c0-10.551 11.0704-19.077 24.7605-19.077 13.6058 0 24.7608 8.526 24.7608 19.077z"/></g></g></svg>