<svg width="209" height="37" viewBox="0 0 209 37" fill="none" xmlns="http://www.w3.org/2000/svg">
<path d="M14.7529 29.6001H9.83529V37.0026H0V-0.00238037C2.3826 0.0568196 10.8336 -0.00238037 14.7529 -0.00238037C26.2873 -0.00238037 31.9672 4.84215 31.9672 14.8001C31.9672 23.8626 25.2103 29.6001 14.7529 29.6001ZM12.2966 7.40009C11.7163 7.40009 10.4918 7.36062 9.83529 7.40009V22.2001H12.2966C18.1387 22.2001 22.1319 19.4054 22.1319 14.8001C22.1319 10.3404 17.8314 7.40009 12.2966 7.40009ZM59.0118 37.0026V22.2001H46.7152V37.0026H36.8799V-0.00238037H46.7152V14.8001H59.0118V-0.00238037H68.8471V37.0026H59.0118ZM78.6824 37.0026V-0.00238037H88.5201V37.0026H78.6824ZM118.026 37.0026H98.3554V-0.00238037H108.191V29.6001H120.482L118.026 37.0026ZM125.4 37.0026V-0.00238037H135.235V37.0026H125.4ZM159.824 29.6001H154.906V37.0026H145.071V-0.00238037C147.453 0.0568196 155.907 -0.00238037 159.824 -0.00238037C171.358 -0.00238037 177.035 4.84215 177.035 14.8001C177.035 23.8626 170.281 29.6001 159.824 29.6001ZM157.365 7.40009C156.789 7.40009 155.56 7.36062 154.906 7.40009V22.2001H157.365C163.207 22.2001 167.2 19.4054 167.2 14.8001C167.2 10.3404 162.904 7.40009 157.365 7.40009ZM191.314 9.80755C191.314 15.4513 209.002 13.2264 209.002 25.1108C209.002 34.0253 201.311 36.9976 191.931 36.9976C188.243 36.9976 183.627 36.4056 180.242 35.2142L179.01 27.0422C182.396 28.6751 188.088 29.869 191.776 29.869C195.931 29.869 197.623 28.6751 197.623 26.4477C197.623 20.6535 180.087 23.1769 180.087 10.7005C180.087 3.45835 186.244 0.00255296 195.314 0.00255296C200.084 0.00255296 202.696 0.446553 205.619 1.04102L206.546 8.76662C203.925 7.72815 200.084 6.98815 196.546 6.98815C193.32 6.98815 191.314 7.87615 191.314 9.80755Z" fill="#ADB7D0"/>
</svg>
