<svg width="117" height="51" viewBox="0 0 117 51" fill="none" xmlns="http://www.w3.org/2000/svg">
<g clip-path="url(#clip0)">
<path fill-rule="evenodd" clip-rule="evenodd" d="M54.1241 42.5759L56.6575 37.567C56.6575 37.567 57.3485 35.9732 58.2697 35.9732C58.9607 35.9732 99.7264 35.9732 100.417 35.9732C101.108 35.9732 102.03 35.0625 102.03 34.3795V31.192C102.03 30.5089 101.108 29.5982 100.417 29.5982H65.8701C64.9489 29.5982 64.2579 29.5982 63.3367 28.4598C62.4154 27.0938 63.3367 25.0446 63.3367 25.0446L71.628 8.87947C71.628 8.87947 72.7796 6.60268 74.8524 6.60268H115.388C116.079 6.60268 117 5.91964 117 5.00893C117 4.09821 117 2.50446 117 1.59375C117 0.683036 116.079 0 115.388 0H71.8583C68.6339 0 67.252 2.73214 67.252 2.73214L46.9843 41.6652C46.9843 41.6652 45.8327 43.942 43.9902 43.942H31.5532C29.4804 43.942 28.3288 41.6652 28.3288 41.6652L7.60045 1.59375C7.60045 1.59375 6.90951 0 5.98825 0H1.15163C-0.46057 0 0.230374 1.59375 0.230374 1.59375L23.7225 46.9018C23.7225 46.9018 25.565 50.317 28.3288 50.317H106.175C112.163 50.317 117.23 47.5848 117.23 40.7545V23.2232C117.23 18.8973 112.854 14.5714 108.478 14.5714H78.7678C77.8465 14.5714 77.1556 16.1652 77.1556 16.1652L75.3131 19.3527C75.3131 19.3527 74.3918 20.9464 76.2343 20.9464H105.945C108.248 20.9464 110.321 23.2232 110.321 25.2723V39.1607C110.321 41.4375 108.018 43.4866 105.945 43.4866H55.0453C53.4331 44.1696 54.1241 42.5759 54.1241 42.5759Z" fill="#ADB7D0"/>
<path fill-rule="evenodd" clip-rule="evenodd" d="M40.0749 27.7768L53.6634 1.82141C53.6634 1.82141 54.5847 0.227661 52.9725 0.227661H23.0315C21.4193 0.227661 22.1103 1.82141 22.1103 1.82141L35.6989 27.7768C35.6989 27.7768 36.3898 29.3705 38.002 29.3705C39.3839 29.5982 40.0749 27.7768 40.0749 27.7768Z" fill="#ADB7D0"/>
</g>
<defs>
<clipPath id="clip0">
<rect width="117" height="51" fill="white"/>
</clipPath>
</defs>
</svg>
