<svg width="234" height="73" viewBox="0 0 234 73" fill="none" xmlns="http://www.w3.org/2000/svg">
<g clip-path="url(#clip0)">
<path d="M22.0541 13.8334C20.1108 10.5738 15.9895 9.62207 12.8464 9.62207C10.9162 9.62207 8.33385 10.274 8.33385 12.1254C8.33385 13.5726 9.63805 14.055 14.9201 15.4761C19.2631 16.6365 22.9931 19.1659 22.9931 24.8375C22.9931 31.2391 17.5415 34.9811 11.477 34.9811C7.7359 35.0518 4.07348 33.9031 1.04336 31.7085V23.1164C2.84316 26.0891 7.56437 27.6798 10.7205 27.6798C12.429 27.6798 15.1809 27.3277 15.1809 25.1765C15.1809 23.8726 14.5027 23.4685 8.6599 21.7866C2.49103 20.0264 0 17.1059 0 12.3731C0 5.58028 5.37331 1.55152 11.9856 1.55152C15.5697 1.4541 19.0932 2.48982 22.0541 4.51116V13.8334Z" fill="#ADB7D0"/>
<path d="M46.3774 18.0447C45.6055 17.0807 44.6243 16.305 43.508 15.7764C42.3917 15.2479 41.1698 14.9802 39.9347 14.9938C35.8917 14.9938 33.9093 17.1842 33.9093 21.3955C33.9093 24.4985 35.5004 27.3799 39.6738 27.3799C42.6344 27.3799 44.6168 25.9588 46.3774 23.5467V31.1609C45.3361 32.4243 44.0119 33.4249 42.512 34.0817C41.0121 34.7386 39.3786 35.0333 37.7436 34.942C29.0968 34.942 25.5754 28.2795 25.5754 20.7566C25.5754 12.2949 29.6184 6.62335 38.474 6.62335C39.9344 6.55611 41.3926 6.79644 42.7542 7.32876C44.1157 7.86108 45.3501 8.67351 46.3774 9.71337V18.0447Z" fill="#ADB7D0"/>
<path d="M50.4335 0.951782H59.0282V12.2427H59.1065C59.5792 10.5602 60.6128 9.08974 62.036 8.07486C63.4591 7.05998 65.1864 6.56166 66.9317 6.66244C71.2355 6.66244 74.3395 9.12663 74.3395 14.0029V34.2118H65.6927V18.6966C65.6927 16.3236 65.2232 14.7851 62.68 14.7851C59.589 14.7851 59.0282 17.3928 59.0282 20.3654V34.2118H50.4335V0.951782Z" fill="#ADB7D0"/>
<path d="M78.7738 7.43168H86.8599V14.3418H86.9381C87.5511 10.7694 89.1814 6.6494 93.5635 6.6494C94.8042 6.62864 96.0297 6.92482 97.124 7.50991V17.5622C96.6223 16.8818 95.959 16.3371 95.1939 15.9775C94.4287 15.6178 93.586 15.4544 92.7418 15.5022C89.2205 15.5022 87.3685 18.5531 87.3685 22.4254V34.1597H78.7738V7.43168Z" fill="#ADB7D0"/>
<path d="M117.196 17.6665C116.974 14.9546 114.692 13.7551 111.979 13.7551C110.825 13.6965 109.689 14.0618 108.786 14.7823C107.883 15.5028 107.274 16.5286 107.075 17.6665H117.196ZM111.209 0H119.765L119.465 0.338989L112.331 4.9023H106.097L111.209 0ZM121.447 31.2913C119.595 33.6121 115.735 35.0332 112.318 35.0332C103.188 35.0332 99.2759 29.818 99.2759 21.0695C99.2759 12.3209 102.68 6.72763 112.174 6.72763C119.608 6.72763 122.96 11.7082 122.96 19.0616C122.946 20.6067 122.824 22.149 122.595 23.6771H106.945C107.545 26.9496 110.166 28.7098 113.7 28.7098C115.201 28.764 116.692 28.4474 118.041 27.7878C119.39 27.1283 120.556 26.1463 121.434 24.9287L121.447 31.2913Z" fill="#ADB7D0"/>
<path d="M133.916 20.6262C133.916 24.1465 134.646 27.419 138.167 27.419C141.689 27.419 142.601 24.8114 142.601 21.1868C142.601 17.5622 141.78 14.746 138.089 14.746C134.737 14.746 133.916 18.1359 133.916 20.6262ZM142.641 29.9875H142.562C141.18 32.7385 139.25 34.968 134.815 34.968C131.164 34.968 125.582 32.1257 125.582 20.7044C125.582 14.9416 127.081 6.64941 134.815 6.64941C139.458 6.64941 140.671 8.57904 142.041 12.0993H142.158V0.951782H150.492V34.2118H142.667L142.641 29.9875Z" fill="#ADB7D0"/>
<path d="M171.829 17.6665C171.62 14.9546 169.338 13.7551 166.612 13.7551C165.459 13.6969 164.325 14.0627 163.424 14.7833C162.523 15.504 161.917 16.5297 161.721 17.6665H171.829ZM176.067 31.2913C174.215 33.612 170.342 35.0332 166.938 35.0332C157.73 35.0332 153.896 29.818 153.896 21.0694C153.896 12.3209 157.287 6.7276 166.794 6.7276C174.228 6.7276 177.58 11.7081 177.58 19.0616C177.584 20.6267 177.484 22.1904 177.28 23.7422H161.63C162.23 27.0148 164.851 28.7749 168.373 28.7749C169.875 28.8314 171.369 28.5158 172.721 27.8561C174.072 27.1965 175.24 26.2133 176.119 24.9939L176.067 31.2913Z" fill="#ADB7D0"/>
<path d="M181.049 7.4317H189.109V14.3419H189.201C189.801 10.7694 191.431 6.64942 195.813 6.64942C197.058 6.63044 198.287 6.92646 199.386 7.50993V17.5623C198.883 16.8836 198.22 16.3402 197.455 15.9807C196.69 15.6212 195.848 15.4568 195.004 15.5022C191.47 15.5022 189.631 18.5532 189.631 22.4254V34.1597H181.023L181.049 7.4317Z" fill="#ADB7D0"/>
<path d="M11.1509 50.1183H2.21713V57.6151H10.8118V58.7494H2.21713V66.3637H11.3465V67.4719H1.0303V48.9839H11.1509V50.1183Z" fill="#ADB7D0"/>
<path d="M22.2758 54.16H23.6452L19.0805 60.679L23.906 67.524H22.5236L18.4153 61.5786L14.3462 67.4718H13.042L17.8284 60.6269L13.3029 54.1078H14.6071L18.4414 59.7272L22.2758 54.16Z" fill="#ADB7D0"/>
<path d="M36.9741 61.2788C37.081 62.9638 36.6618 64.6404 35.7743 66.0768C35.3324 66.6359 34.7601 67.078 34.1075 67.3644C33.4549 67.6508 32.7419 67.7728 32.0312 67.7196C30.9782 67.7537 29.9431 67.4423 29.0837 66.833C28.3016 66.2576 27.7365 65.4354 27.4795 64.4992C27.4795 64.9816 27.4795 65.4771 27.4795 65.9725C27.4795 66.468 27.4795 66.9895 27.4795 67.511V72.8305H26.3318V54.1601H27.3883V57.1979C27.6914 56.2457 28.2955 55.4176 29.1098 54.838C29.9852 54.2445 31.0262 53.9432 32.0834 53.9775C32.7945 53.9149 33.5099 54.0341 34.1624 54.3237C34.8148 54.6134 35.3829 55.064 35.8134 55.6333C36.6529 57.0635 37.0479 58.711 36.9481 60.3662L36.9741 61.2788ZM35.8134 60.4053C35.8232 59.6482 35.7532 58.8922 35.6047 58.1497C35.4985 57.5521 35.277 56.9809 34.9526 56.4678C34.6581 56.023 34.2477 55.6669 33.7658 55.4378C33.1994 55.173 32.5777 55.0478 31.953 55.0727C31.3039 55.0586 30.6607 55.1971 30.0749 55.4769C29.5323 55.7256 29.048 56.0854 28.6533 56.533C28.27 56.978 27.9736 57.491 27.7795 58.0454C27.5746 58.6229 27.473 59.2319 27.4795 59.8446V61.5396C27.471 62.2121 27.5723 62.8815 27.7795 63.5214C27.9889 64.1006 28.2979 64.6389 28.6925 65.112C29.0746 65.5753 29.5501 65.9529 30.0879 66.2202C30.6629 66.4896 31.292 66.6234 31.9269 66.6114C32.5054 66.6556 33.0855 66.5476 33.6095 66.2983C34.1334 66.049 34.583 65.667 34.9135 65.1902C35.5724 63.9958 35.8841 62.641 35.8134 61.2788V60.4053Z" fill="#ADB7D0"/>
<path d="M40.7563 61.7221C40.7698 62.41 40.8705 63.0935 41.0563 63.756C41.209 64.3275 41.48 64.8605 41.8519 65.3206C42.2194 65.7677 42.6953 66.1133 43.2343 66.3245C43.8875 66.5739 44.583 66.6935 45.2819 66.6766C45.9521 66.7014 46.6228 66.6401 47.2774 66.494C47.8478 66.3431 48.4024 66.1379 48.9337 65.8812L49.2076 66.82C48.6643 67.1038 48.0913 67.3268 47.4991 67.4849C46.774 67.6651 46.029 67.7527 45.2819 67.7457C44.3895 67.7694 43.5017 67.6096 42.6735 67.2763C41.987 66.9953 41.3818 66.5471 40.9128 65.9725C40.4225 65.3633 40.0789 64.6496 39.9086 63.8864C39.692 63.0344 39.5868 62.1579 39.5956 61.2788V60.4053C39.5852 59.5276 39.6816 58.652 39.8825 57.7977C40.0476 57.0654 40.358 56.3738 40.7955 55.7637C41.2273 55.2003 41.7918 54.7524 42.4388 54.4599C43.2152 54.1382 44.0504 53.9827 44.8907 54.0036C45.7346 53.969 46.5736 54.1484 47.3295 54.5251C47.9298 54.8596 48.4365 55.3392 48.8033 55.9202C49.1717 56.5184 49.4198 57.1827 49.5336 57.8759C49.6646 58.6162 49.73 59.3666 49.7293 60.1184V61.7482L40.7563 61.7221ZM40.7563 60.7573H48.5816V60.0923C48.5807 59.4422 48.5327 58.7929 48.4381 58.1497C48.3489 57.5794 48.1637 57.0284 47.8903 56.5199C47.6193 56.0514 47.2274 55.6642 46.7557 55.3987C46.1585 55.0969 45.494 54.9532 44.8255 54.9814C44.1434 54.9576 43.4649 55.0914 42.8431 55.3726C42.3145 55.6148 41.8632 55.9984 41.5389 56.4808C41.1993 56.9935 40.9685 57.5704 40.8607 58.1758C40.7133 58.8964 40.6433 59.6307 40.652 60.3661L40.7563 60.7573Z" fill="#ADB7D0"/>
<path d="M59.2629 55.2552H59.0021C58.3192 55.2417 57.6406 55.3659 57.0067 55.6203C56.4362 55.8523 55.9305 56.2191 55.5329 56.6894C55.1142 57.1672 54.7989 57.7266 54.6069 58.3322C54.3917 59.0153 54.286 59.7282 54.2939 60.4443V67.4718H53.1462V54.16H54.1766V57.5629C54.4206 56.5741 54.9789 55.6912 55.7677 55.0466C56.6696 54.3538 57.7877 54.0028 58.9239 54.0557H59.2108L59.2629 55.2552Z" fill="#ADB7D0"/>
<path d="M59.9933 54.16H62.6017L62.7843 49.5446H63.6842V54.2252H68.1315V55.2291H63.6842V63.5474C63.6834 64.0183 63.7139 64.4887 63.7755 64.9555C63.8201 65.3012 63.9452 65.6317 64.1407 65.9203C64.3186 66.1828 64.5739 66.3833 64.871 66.494C65.251 66.6315 65.6541 66.6935 66.0579 66.6765C66.4564 66.6776 66.854 66.6382 67.2447 66.5592C67.6153 66.4861 67.9778 66.3769 68.3272 66.2333L68.588 67.2111C68.2018 67.3615 67.8052 67.4836 67.4012 67.5762C66.9336 67.673 66.4572 67.7211 65.9796 67.7196C65.3991 67.7356 64.8204 67.6473 64.2711 67.4588C63.8537 67.3002 63.4913 67.0239 63.2277 66.6635C62.9453 66.2793 62.7616 65.8316 62.693 65.3597C62.6015 64.7646 62.5709 64.1617 62.6017 63.5605V55.164H59.9933V54.16Z" fill="#ADB7D0"/>
<path d="M74.0526 66.6505C74.9297 66.6793 75.8 66.4865 76.5828 66.0898C76.9066 65.898 77.1701 65.6191 77.343 65.2848C77.516 64.9505 77.5915 64.5744 77.5609 64.1993C77.5735 63.8106 77.5024 63.4238 77.3522 63.065C77.2088 62.7472 76.9893 62.4696 76.7132 62.2567C76.3937 62.0007 76.0376 61.7942 75.6568 61.6439C75.2394 61.4613 74.7699 61.2788 74.2352 61.0832C73.7005 60.8877 73.1005 60.679 72.5789 60.4835C72.1147 60.2914 71.6765 60.0418 71.2747 59.7403C70.9036 59.4539 70.6007 59.0888 70.3878 58.6712C70.1503 58.1757 70.0383 57.6295 70.0618 57.0805C70.0258 56.6345 70.1053 56.1867 70.2926 55.7802C70.4799 55.3738 70.7687 55.0224 71.1312 54.7598C72.1006 54.1897 73.2164 53.9176 74.3395 53.9775C75.055 53.9702 75.7687 54.049 76.4654 54.2122C77.074 54.3493 77.6713 54.5323 78.2521 54.7598L78.0174 55.7637C77.487 55.5326 76.9371 55.3494 76.3741 55.2161C75.7072 55.0621 75.0238 54.9921 74.3395 55.0075C73.5171 54.9605 72.6962 55.122 71.9528 55.4769C71.6824 55.6428 71.4635 55.8806 71.3207 56.1639C71.1779 56.4471 71.1168 56.7645 71.1442 57.0805C71.1334 57.4747 71.2232 57.865 71.4051 58.2149C71.593 58.5379 71.8516 58.8143 72.1615 59.0232C72.5052 59.2607 72.8777 59.4535 73.2701 59.5969C73.7005 59.7664 74.1569 59.9359 74.5743 60.0923C75.2786 60.3357 75.8785 60.5704 76.3741 60.7964C76.8537 60.9798 77.2957 61.2494 77.6783 61.5917C78.0031 61.8879 78.2571 62.2533 78.4217 62.6608C78.6068 63.1521 78.6954 63.6745 78.6825 64.1993C78.6948 64.7487 78.5787 65.2933 78.3434 65.79C78.1307 66.2228 77.8122 66.595 77.4175 66.8721C76.9794 67.1569 76.4933 67.3601 75.9828 67.4719C75.3648 67.5974 74.7354 67.6586 74.1048 67.6544C73.3434 67.6586 72.5833 67.5887 71.8355 67.4458C71.1917 67.3289 70.5651 67.1318 69.9705 66.8591L70.2183 65.816C70.7714 66.0821 71.3535 66.2833 71.9528 66.4158C72.641 66.5769 73.3459 66.6557 74.0526 66.6505Z" fill="#ADB7D0"/>
<path d="M89.0901 49.8966C89.223 49.8792 89.3581 49.8952 89.4833 49.9429C89.6085 49.9907 89.7199 50.0689 89.8074 50.1704C89.9501 50.366 90.0152 50.6076 89.99 50.8484C89.9956 51.0769 89.927 51.3011 89.7943 51.4872C89.7041 51.5846 89.592 51.659 89.4672 51.7044C89.3425 51.7497 89.2087 51.7647 89.077 51.748C88.9454 51.7636 88.8119 51.7482 88.6874 51.7029C88.5628 51.6576 88.4506 51.5837 88.3597 51.4872C88.2317 51.2995 88.1677 51.0754 88.1771 50.8484C88.1676 50.6294 88.2319 50.4136 88.3597 50.2356C88.4421 50.1212 88.5526 50.0299 88.6805 49.9705C88.8084 49.9111 88.9495 49.8857 89.0901 49.8966ZM89.677 67.4719H88.5032V54.16H89.677V67.4719Z" fill="#ADB7D0"/>
<path d="M102.862 59.1406C102.933 58.0713 102.698 57.0041 102.184 56.0636C101.87 55.6884 101.466 55.3984 101.011 55.2207C100.555 55.0429 100.061 54.983 99.5759 55.0466C98.8964 55.0387 98.2223 55.1672 97.5935 55.4247C97.0334 55.6633 96.5309 56.0189 96.1197 56.4678C95.7103 56.9303 95.3996 57.4716 95.2068 58.0584C94.9816 58.717 94.8713 59.4094 94.8807 60.1054V67.4588H93.733V54.16H94.7764V57.3283C95.0421 56.3333 95.658 55.4676 96.511 54.8902C97.4372 54.254 98.5442 53.9339 99.6671 53.9775C100.356 53.9569 101.042 54.0675 101.689 54.3034C102.201 54.5101 102.651 54.8472 102.993 55.2813C103.354 55.7395 103.604 56.275 103.723 56.8459C103.889 57.555 103.968 58.2819 103.958 59.0102V67.4719H102.81L102.862 59.1406Z" fill="#ADB7D0"/>
<path d="M115.826 67.4719H114.679V48.8405H115.826V67.4719Z" fill="#ADB7D0"/>
<path d="M120.508 49.8966C120.643 49.8793 120.78 49.8952 120.907 49.943C121.035 49.9907 121.148 50.0688 121.239 50.1704C121.361 50.3513 121.424 50.5651 121.421 50.7832C121.425 51.0095 121.361 51.2318 121.239 51.422C121.146 51.5196 121.031 51.594 120.905 51.6393C120.778 51.6846 120.642 51.6995 120.508 51.6828C120.377 51.6984 120.243 51.683 120.119 51.6377C119.994 51.5924 119.882 51.5185 119.791 51.422C119.668 51.2318 119.605 51.0095 119.608 50.7832C119.605 50.5651 119.669 50.3513 119.791 50.1704C119.879 50.0698 119.991 49.9923 120.116 49.9446C120.241 49.8969 120.375 49.8804 120.508 49.8966ZM121.095 67.4719H119.987V54.16H121.16L121.095 67.4719Z" fill="#ADB7D0"/>
<path d="M135.507 54.16V55.0597H132.82C133.422 55.297 133.924 55.7344 134.242 56.2983C134.589 56.9607 134.76 57.7017 134.737 58.4495V58.6712C134.799 59.2849 134.722 59.9045 134.512 60.4844C134.302 61.0644 133.964 61.5898 133.524 62.022C132.423 62.7869 131.091 63.1463 129.755 63.0389C129.223 63.0406 128.691 63.0057 128.164 62.9346C127.709 62.8774 127.267 62.7406 126.86 62.5304L125.556 64.1863C125.574 64.4484 125.653 64.7026 125.787 64.9288C125.92 65.1551 126.104 65.3472 126.325 65.4901C126.777 65.7344 127.285 65.8558 127.799 65.8421H130.512C131.748 65.7276 132.986 66.0405 134.02 66.7287C134.374 67.0594 134.649 67.4654 134.825 67.9168C135.001 68.3681 135.074 68.8532 135.037 69.3363C135.037 71.7875 133.289 73 129.82 73C129.052 73.0084 128.284 72.9517 127.525 72.8305C126.913 72.7427 126.322 72.5485 125.777 72.2568C125.317 72.0136 124.936 71.6423 124.682 71.1877C124.42 70.6622 124.294 70.0794 124.317 69.4928C124.31 69.1292 124.368 68.7674 124.486 68.4236C124.592 68.1278 124.737 67.8473 124.917 67.5892C125.097 67.3587 125.303 67.1488 125.529 66.9634C125.75 66.7962 125.981 66.6438 126.221 66.5071C125.791 66.3444 125.419 66.0587 125.151 65.6857C124.778 65.2284 124.551 64.6698 124.499 64.082L126.012 62.0872C125.564 61.7153 125.218 61.2351 125.008 60.6921C124.798 60.0404 124.718 59.3537 124.773 58.6712V58.4626C124.717 57.8563 124.795 57.2451 125.002 56.6726C125.21 56.1001 125.541 55.5805 125.973 55.1509C127.072 54.3713 128.412 54.0064 129.755 54.1209L135.507 54.16ZM125.49 69.4928C125.459 69.8954 125.549 70.2981 125.749 70.649C125.949 71 126.25 71.2829 126.612 71.4615C127.656 71.8928 128.784 72.0844 129.912 72.0221C130.995 72.0973 132.078 71.8717 133.042 71.3702C133.373 71.1491 133.64 70.8448 133.816 70.4877C133.993 70.1307 134.072 69.7336 134.046 69.3363C134.079 68.9832 134.025 68.6273 133.889 68.3C133.753 67.9726 133.538 67.6837 133.263 67.4588C132.469 67.0149 131.562 66.8153 130.655 66.8852H127.381C126.855 67.1063 126.383 67.4401 125.999 67.863C125.636 68.3261 125.455 68.9057 125.49 69.4928ZM129.755 62.0611C130.808 62.1541 131.86 61.8875 132.742 61.3049C133.075 60.9635 133.328 60.5526 133.484 60.1018C133.639 59.651 133.693 59.1714 133.642 58.6973V58.4887C133.686 58.0238 133.628 57.5548 133.47 57.1153C133.312 56.6758 133.059 56.2766 132.729 55.9462C131.86 55.344 130.809 55.0628 129.755 55.1509C128.703 55.062 127.651 55.3283 126.768 55.9071C126.433 56.2469 126.178 56.6576 126.022 57.1088C125.867 57.5601 125.814 58.0405 125.869 58.5147V58.6712C125.817 59.1453 125.871 59.6249 126.026 60.0757C126.182 60.5266 126.435 60.9374 126.768 61.2788C127.646 61.8725 128.699 62.1485 129.755 62.0611Z" fill="#ADB7D0"/>
<path d="M147.544 59.1406C147.54 58.5457 147.483 57.9524 147.375 57.3674C147.301 56.8993 147.122 56.4537 146.853 56.0636C146.594 55.7185 146.241 55.4558 145.836 55.3074C145.327 55.1213 144.787 55.0329 144.245 55.0466C143.565 55.0347 142.89 55.1634 142.262 55.4247C141.698 55.6631 141.192 56.0186 140.776 56.4678C140.358 56.9265 140.042 57.4686 139.85 58.0584C139.624 58.717 139.514 59.4094 139.524 60.1054V67.4588H138.376V48.8405H139.55V54.0557L139.471 57.3674C139.706 56.3758 140.301 55.5068 141.141 54.9293C142.078 54.2954 143.192 53.9757 144.323 54.0166C144.95 53.9458 145.584 54.0274 146.172 54.2544C146.76 54.4814 147.285 54.8471 147.701 55.3204C148.41 56.4296 148.748 57.7355 148.666 59.0493V67.511H147.492L147.544 59.1406Z" fill="#ADB7D0"/>
<path d="M150.766 54.16H153.27L153.505 49.5446H154.418V54.2252H158.865V55.2291H154.418V63.5474C154.41 64.0185 154.441 64.4894 154.509 64.9555C154.55 65.3001 154.67 65.6305 154.861 65.9203C155.042 66.1799 155.296 66.3797 155.591 66.494C155.972 66.6302 156.375 66.6922 156.778 66.6765C157.556 66.6773 158.327 66.5267 159.047 66.2333L159.308 67.2111C158.923 67.3634 158.526 67.4854 158.122 67.5762C157.654 67.6737 157.178 67.7218 156.7 67.7196C156.119 67.7356 155.541 67.6473 154.991 67.4588C154.576 67.2964 154.215 67.0209 153.948 66.6635C153.666 66.2793 153.482 65.8316 153.413 65.3597C153.314 64.7827 153.266 64.1981 153.27 63.6126V55.164H150.766V54.16Z" fill="#ADB7D0"/>
<path d="M170.225 67.4719H169.194V64.434C169.039 64.8548 168.838 65.2571 168.594 65.6335C168.054 66.4482 167.269 67.0694 166.351 67.4067C165.837 67.5946 165.294 67.6874 164.747 67.6805C164.17 67.6851 163.595 67.6106 163.038 67.4588C162.56 67.3157 162.116 67.0761 161.734 66.7548C161.363 66.4183 161.076 65.9982 160.899 65.5292C160.688 64.949 160.586 64.3344 160.6 63.7169C160.552 63.1273 160.646 62.5348 160.872 61.9885C161.099 61.4421 161.453 60.9575 161.904 60.5747C162.977 59.8615 164.256 59.5224 165.542 59.6099C166.206 59.6127 166.868 59.6607 167.525 59.7533C168.113 59.8237 168.696 59.9282 169.272 60.0662V58.6712C169.343 57.7047 169.08 56.7433 168.529 55.9462C168.171 55.6007 167.741 55.3386 167.27 55.1786C166.799 55.0185 166.298 54.9646 165.803 55.0205C164.46 55.0314 163.131 55.3014 161.891 55.8158L161.63 54.838C162.247 54.5701 162.889 54.3648 163.547 54.2252C164.314 54.0624 165.097 53.9837 165.882 53.9905C166.512 53.9256 167.149 53.9943 167.751 54.1919C168.354 54.3896 168.907 54.7119 169.377 55.1379C170.13 56.1154 170.497 57.3361 170.407 58.5669L170.225 67.4719ZM161.63 63.7169C161.588 64.1313 161.638 64.55 161.778 64.9424C161.918 65.3349 162.143 65.6912 162.438 65.9855C163.11 66.485 163.937 66.7299 164.773 66.6765C165.352 66.6783 165.925 66.5584 166.455 66.3245C166.976 66.0981 167.446 65.7701 167.838 65.3597C168.239 64.9335 168.554 64.4331 168.764 63.8864C169.004 63.2672 169.123 62.6078 169.116 61.9437V61.0441C168.554 60.9066 167.983 60.8064 167.407 60.7442C166.779 60.6773 166.148 60.6425 165.516 60.6399C164.478 60.5569 163.441 60.8082 162.556 61.357C162.229 61.6519 161.976 62.0185 161.815 62.428C161.654 62.8375 161.591 63.2787 161.63 63.7169Z" fill="#ADB7D0"/>
<path d="M184.923 61.2788C185.037 62.9644 184.617 64.6431 183.723 66.0768C183.277 66.6287 182.703 67.0633 182.05 67.3428C181.398 67.6223 180.687 67.7382 179.98 67.6805C178.92 67.7206 177.878 67.4038 177.019 66.7809C176.25 66.1952 175.699 65.369 175.454 64.434L175.389 67.4719H174.333V48.8405H175.48V54.0557L175.389 57.1718H175.454C175.734 56.222 176.327 55.3947 177.137 54.825C178.013 54.2352 179.054 53.9385 180.11 53.9775C180.822 53.9149 181.537 54.0341 182.189 54.3237C182.842 54.6133 183.41 55.064 183.84 55.6333C184.68 57.0635 185.075 58.7109 184.975 60.3661L184.923 61.2788ZM183.762 60.4053C183.772 59.6482 183.702 58.8921 183.553 58.1497C183.447 57.5521 183.226 56.9808 182.901 56.4678C182.607 56.0229 182.196 55.6668 181.715 55.4378C181.148 55.173 180.526 55.0478 179.902 55.0727C179.254 55.0632 178.613 55.1968 178.024 55.4638C177.482 55.7081 176.998 56.0634 176.602 56.5069C176.219 56.9519 175.922 57.4649 175.728 58.0193C175.523 58.5968 175.422 59.2058 175.428 59.8186V61.5135C175.422 62.1901 175.523 62.8635 175.728 63.5083C175.916 64.1011 176.212 64.6538 176.602 65.1381C176.99 65.6011 177.469 65.9785 178.011 66.2463C178.592 66.5264 179.231 66.665 179.876 66.6505C180.458 66.6945 181.042 66.5824 181.567 66.3257C182.092 66.0691 182.539 65.6771 182.862 65.1902C183.521 63.9958 183.833 62.641 183.762 61.2788V60.4053Z" fill="#ADB7D0"/>
<path d="M188.875 49.8966C189.007 49.8804 189.142 49.8968 189.267 49.9446C189.392 49.9923 189.504 50.0698 189.592 50.1704C189.714 50.3512 189.778 50.5651 189.775 50.7832C189.778 51.0095 189.714 51.2317 189.592 51.422C189.501 51.5185 189.389 51.5924 189.264 51.6377C189.14 51.683 189.006 51.6984 188.875 51.6828C188.743 51.7006 188.609 51.6861 188.484 51.6407C188.359 51.5953 188.247 51.5203 188.157 51.422C188.025 51.2358 187.956 51.0117 187.962 50.7832C187.956 50.5627 188.025 50.3467 188.157 50.1704C188.244 50.0679 188.355 49.9891 188.481 49.9412C188.606 49.8934 188.742 49.878 188.875 49.8966ZM189.462 67.4719H188.288V54.16H189.462V67.4719Z" fill="#ADB7D0"/>
<path d="M194.73 67.4719H193.583V48.8405H194.73V67.4719Z" fill="#ADB7D0"/>
<path d="M199.413 49.8966C199.545 49.8792 199.681 49.8952 199.806 49.9429C199.931 49.9907 200.042 50.0689 200.13 50.1704C200.262 50.3468 200.331 50.5627 200.326 50.7832C200.331 51.0117 200.263 51.2359 200.13 51.422C200.04 51.5194 199.928 51.5938 199.803 51.6392C199.678 51.6845 199.544 51.6995 199.413 51.6828C199.281 51.6984 199.147 51.683 199.023 51.6377C198.898 51.5924 198.786 51.5185 198.695 51.422C198.573 51.2317 198.509 51.0095 198.513 50.7832C198.51 50.5651 198.573 50.3512 198.695 50.1704C198.783 50.0698 198.895 49.9923 199.02 49.9446C199.145 49.8969 199.28 49.8804 199.413 49.8966ZM199.999 67.4719H198.826V54.16H199.999V67.4719Z" fill="#ADB7D0"/>
<path d="M202.425 54.16H204.929L205.164 49.4794H206.077V54.16H210.524V55.164H206.064V63.4822C206.057 63.9533 206.087 64.4242 206.155 64.8903C206.202 65.2336 206.322 65.5627 206.507 65.8551C206.688 66.1147 206.943 66.3145 207.238 66.4288C207.618 66.565 208.021 66.627 208.425 66.6114C209.203 66.6121 209.973 66.4615 210.694 66.1681L210.955 67.1459C210.569 67.2982 210.172 67.4202 209.768 67.511C209.3 67.6085 208.824 67.6566 208.346 67.6544C207.77 67.6705 207.196 67.5822 206.651 67.3936C206.232 67.2315 205.866 66.9561 205.594 66.5983C205.317 66.2112 205.134 65.7647 205.06 65.2945C204.961 64.7175 204.913 64.1329 204.916 63.5474V55.164H202.412L202.425 54.16Z" fill="#ADB7D0"/>
<path d="M211.45 54.16H212.676L216.25 63.5083C216.419 63.9646 216.589 64.447 216.745 64.9425C216.902 65.4379 217.058 65.9203 217.202 66.4028C217.306 65.9203 217.437 65.4379 217.593 64.9425C217.75 64.447 217.906 63.9516 218.089 63.4431L221.31 54.16H222.536L217.124 69.5971C216.824 70.5335 216.336 71.3987 215.689 72.1395C215.392 72.4337 215.037 72.6624 214.646 72.8106C214.255 72.9588 213.837 73.0233 213.42 73C213.043 73.0084 212.667 72.9734 212.298 72.8957C212.001 72.8413 211.709 72.7628 211.424 72.661L211.581 71.644C212.144 71.8536 212.741 71.9553 213.341 71.9439C213.648 71.9623 213.954 71.9122 214.238 71.7971C214.523 71.6821 214.778 71.5051 214.985 71.279C215.446 70.6738 215.79 69.9887 216.002 69.2581L216.563 67.6023L211.45 54.16Z" fill="#ADB7D0"/>
<path d="M228.157 49.714H226.449V54.1339H225.784V49.714H224.088V49.1012H228.157V49.714ZM231.366 52.9605L230.844 52.1521C230.674 51.8653 230.531 51.5915 230.387 51.3307L229.996 50.6006C229.909 50.4399 229.83 50.2745 229.761 50.1052C229.761 50.4181 229.761 50.744 229.761 51.07V54.173H229.109V49.1012H229.8L231.587 52.1521L233.309 49.0621H234V54.0948H233.348V51.0309C233.348 50.7049 233.348 50.379 233.348 50.0661C233.257 50.2486 233.139 50.4833 232.97 50.7962L232.435 51.8001L231.796 52.9605H231.366Z" fill="#ADB7D0"/>
<ellipse cx="208.02" cy="37.1584" rx="5.86892" ry="5.86712" fill="#ADB7D0"/>
</g>
<defs>
<clipPath id="clip0">
<rect width="234" height="73" fill="white"/>
</clipPath>
</defs>
</svg>
