<svg fill="none" height="56" viewBox="0 0 160 56" width="160" xmlns="http://www.w3.org/2000/svg"><path clip-rule="evenodd" d="m62.4719.448h10.7865v45.248h13.0337v9.856h-23.8202zm91.6851 4.48h1.349.449c.449 0 .449 0 .449-.448 0 0 0 0 0-.448v-.448c-.449-.448-.449-.448-.898-.448h-1.349zm-146.96599 17.92h23.82019l-2.6966 4.48h-21.12359zm.44944 22.848v2.688h2.24719v.448h-2.69663v-3.136zm2.69665 0v3.136h-.44946v-3.136zm2.2472 1.344h1.7977v.448.896s-.4494 0-.8989.448c0 0 0 0-.4494 0 0 0 0 0-.4494 0-.4495 0-.8989-.448-1.3483-.448 0 0-.4495-.448-.4495-.896s0-.448 0-.448v-.448c0-.448.4495-.448.4495-.896h1.3483.4494.4494.8989v.448.448h-.4494c0-.448 0-.448 0-.448l-.4495-.448c-.4494 0-.4494 0-.4494 0-.4494 0-.4494 0-.4494 0-.4495 0-.8989 0-.8989.448v.448.448.448.448c0 .448 0 .448.4494.448h.4495.4494.8989c0-.448 0-.448 0-.896h-1.3483zm5.8427-1.344v3.136h-.8989v-1.792h-2.2472v1.792h-.4494v-3.136h.4494v1.344h2.2472v-1.344zm1.7977 0v3.136h-.4494v-3.136h-1.3483 3.146zm4.045 0v1.344h1.7977-1.7977v1.792h-.4495v-3.136h2.2472zm4.4943 2.24h-1.7977l-.4494.896h-.4495l1.3483-3.136h.8989l1.3483 3.136h-.4494zm0-.448-.8988-1.792-.8989 1.792zm4.045 0h.4494v.448s0 .448-.4494.448c0 0 0 0-.4494.448h-.4495s0 0-.4494 0h-.4495c-.4494 0-.8988-.448-.8988-.448 0-.448-.4495-.896-.4495-.896s0 0 0-.448v-.448c0-.448.4495-.448.4495-.448 0-.448.4494-.448.8988-.448h.4495.4494.8989s.4494.448.4494.896h-.4494c0-.448 0-.448-.4494-.448 0 0 0-.448-.4495-.448h-.4494-.4495c-.4494 0-.4494.448-.4494.448v.448.448.448.448.448h.4494.4495.4494.4495c.4494 0 .4494-.448.4494-.448zm2.6966-1.792v3.136h-.8989v-3.136h-1.3483 3.1461zm1.3483 1.344c0-.448 0-.896 0-.896.4495-.448.4495-.448 1.3483-.448h1.3484c.4494 0 .4494.448.4494.896v.448.448c0 .448 0 .896-.4494.896 0 0-.4495.448-.8989.448 0 0 0 0-.4495 0-.4494 0-.8988-.448-.8988-.448-.4495 0-.4495-.448-.4495-.448 0-.448 0-.448 0-.448zm.4495 0v.448.896h.8988.8989c.4495 0 .4495-.448.4495-.896s0-.448 0-.448c0-.448 0-.448 0-.448 0-.448 0-.448 0-.448-.4495-.448-.8989-.448-1.3484-.448-.4494 0-.4494 0-.8988.448v.448zm3.146 1.792v-3.136h2.2472.8989v.896.448s-.4494 0-.4494.448h.4494v.448.896h-.4494v-.896-.448c-.4495 0-.4495 0-.8989 0h-1.3483v1.344zm.4495-1.792h1.3483.8989v-.448c0-.448 0-.448 0-.448l-.4495-.448h-1.7977zm6.7415-1.344-1.7977 1.792v1.344h-.4494v-1.344l-1.3484-1.792h.4495l1.3483 1.344.8989-1.344zm-33.2584-35.392h23.3708l-2.2472 4.48h-23.8202zm18.8764 12.544h14.382v4.48h-17.0786zm-2.2472 6.272h15.2809l-2.2472 4.48h-8.9887zm-22.92131 0h20.67411l3.5956 4.48h-21.5731zm3.59551 6.272h31.0112l-2.2472 4.48h-26.0674zm25.1685-18.816h7.191l2.2472 4.48h-12.1348zm3.5955-6.272 2.2472 4.48h-4.9438zm-29.6629 6.272h23.8202l-2.6966 4.48h-23.82021zm-10.7865 38.976v-49.28c0-3.136 2.24719-5.824 5.39326-5.824h48.98874v49.728c0 3.136-2.2472 5.376-5.3932 5.376zm153.708-47.488v-5.376h1.798.898c.45.448.45.448.45.448.449.448.449.448.449.896s-.449.896-.449.896c0 .448-.45.448-.899.448 0 .448.449.448.449.448s0 .448.45.448l.449 1.792h-.449l-.45-1.344c-.449-.448-.449-.448-.898-.896-.45 0-.45-.448-.45-.448h-.899v2.688zm1.798-6.72c2.247 0 4.045 1.792 4.045 4.032s-1.798 4.032-4.045 4.032c-2.248 0-4.045-1.792-4.045-4.032s1.797-4.032 4.045-4.032zm0-.896h.449l.449.448h.45.449l.45.448h.449l.45.448v.448h.449l.45.448v.448l.449.448v.448.448.448.448.448.448.448.448l-.449.448v.448l-.45.448-.449.448-.45.448h-.449l-.45.448h-.449l-.45.448h-.449-.449-.45-.449l-.45-.448h-.449l-.45-.448h-.449l-.449-.448h-.45l-.449-.448v-.448l-.45-.448v-.448-.448l-.449-.448v-.448-.448-.448-.448l.449-.448v-.448-.448l.45-.448v-.448h.449l.45-.448.449-.448h.449l.45-.448h.449.45l.449-.448zm-16.63 16.576h10.337v-5.824c0-6.272-6.292-11.2-13.932-11.2-6.742 0-13.933 3.136-14.382 11.2v33.152c0 7.616 7.191 11.648 13.932 11.648 7.191 0 14.382-4.032 14.382-11.648v-17.472h-13.033v10.304h2.696v6.72c0 1.344-1.797 2.688-3.595 3.136-1.798 0-3.146-1.792-3.596-3.584v-30.016c0-2.688 1.798-4.032 3.596-4.032s3.595.896 3.595 4.032zm-50.3367-16.576h10.7865v40.768c0 3.584 1.7982 4.48 3.5952 4.48 1.349 0 3.146-.896 3.146-4.48v-40.768h10.787v43.008c0 7.168-7.191 12.544-13.933 12.544-7.1907 0-14.3817-5.376-14.3817-12.544z" fill="#adb7d0" fill-rule="evenodd"/></svg>