<svg xmlns="http://www.w3.org/2000/svg" width="102" height="102" viewBox="10 0 102 102" fill="none" style="&#10;    /* background: rebeccapurple; */&#10;">
    <path d="M55.5138 56.7153H38.5394C38.1601 56.7153 37.8527 57.0229 37.8527 57.4021C37.8527 57.7814 38.1602 58.0888 38.5394 58.0888H55.5138C55.8931 58.0888 56.2006 57.7813 56.2006 57.4021C56.2006 57.0228 55.8931 56.7153 55.5138 56.7153Z" fill="#ADB7D0" />
    <path d="M70.0696 59.3954V58.7922C70.0696 57.4851 69.0063 56.4217 67.6992 56.4217H67.535V52.6355C67.535 51.7519 66.8162 51.0331 65.9326 51.0331H61.7128V49.3504C62.3502 48.7302 63.8141 47.1591 63.8141 45.8155C63.8141 44.8338 63.0155 44.0352 62.0339 44.0352C61.9248 44.0352 61.8176 44.0462 61.7128 44.0653V41.9999C62.3924 42.5784 63.272 42.9286 64.2324 42.9286C65.7331 42.9286 67.0682 42.0891 67.7216 40.7638C69.5447 40.619 70.9841 39.0903 70.9841 37.2307C70.9841 35.2758 69.3936 33.6853 67.4387 33.6853C65.4838 33.6853 63.8934 35.2758 63.8934 37.2307C63.8934 38.7633 64.871 40.0716 66.2353 40.5655C65.7676 41.1812 65.0372 41.5551 64.2325 41.5551C62.8431 41.5551 61.7129 40.4249 61.7129 39.0356V36.2026C63.042 35.9422 64.1282 34.9391 64.4661 33.5856C64.5579 33.2176 64.3341 32.8448 63.9662 32.7529C63.598 32.6611 63.2253 32.8848 63.1335 33.2528C62.8919 34.2205 62.0254 34.8963 61.0262 34.8963C59.8286 34.8963 58.8543 33.9219 58.8543 32.7244C58.8543 31.5268 59.8286 30.5525 61.0262 30.5525C61.5247 30.5525 61.9934 30.7166 62.3816 31.0272C62.6779 31.2642 63.11 31.2161 63.347 30.92C63.5839 30.6239 63.5359 30.1917 63.2398 29.9547C62.6144 29.4544 61.8283 29.1789 61.0262 29.1789C59.0713 29.1789 57.4808 30.7694 57.4808 32.7243C57.4808 34.4443 58.7121 35.8815 60.3394 36.2024V39.0355C60.3394 40.4248 59.2092 41.555 57.8199 41.555C57.015 41.555 56.2848 41.1812 55.817 40.5654C57.1813 40.0715 58.159 38.7632 58.159 37.2306C58.159 35.2757 56.5685 33.6852 54.6136 33.6852C52.6587 33.6852 51.0682 35.2757 51.0682 37.2306C51.0682 39.0902 52.5077 40.6189 54.3308 40.7637C54.9842 42.0891 56.3192 42.9285 57.82 42.9285C58.7804 42.9285 59.66 42.5783 60.3395 41.9998V44.0652C60.2348 44.0461 60.1277 44.0351 60.0184 44.0351C59.0368 44.0351 58.2382 44.8337 58.2382 45.8154C58.2382 47.159 59.7022 48.7301 60.3395 49.3503V51.033H48.4785C48.1151 49.8677 47.4065 48.8201 46.4489 48.0476C45.3524 47.1629 43.9711 46.6757 42.5597 46.6757C42.1515 46.6757 41.7436 46.7161 41.3441 46.796C40.5638 44.183 38.1526 42.3763 35.4068 42.3763C34.4381 42.3763 33.5102 42.5937 32.6486 43.0227C32.3091 43.1918 32.1709 43.604 32.3399 43.9436C32.509 44.2832 32.9213 44.4214 33.2608 44.2523C33.9305 43.9189 34.6525 43.7498 35.4068 43.7498C37.6002 43.7498 39.5192 45.2305 40.0733 47.3505C40.2324 47.9601 40.8368 48.324 41.4487 48.1788C41.8117 48.0928 42.1855 48.0492 42.5598 48.0492C44.5539 48.0492 46.2911 49.243 47.0222 51.0329H35.9092C35.0256 51.0329 34.3068 51.7517 34.3068 52.6353V56.4215H34.1223C32.8153 56.4215 31.7519 57.4849 31.7519 58.792V59.4049C31.2144 59.6639 30.8416 60.2125 30.8416 60.8479V62.9817C30.8416 63.8653 31.5605 64.5841 32.444 64.5841H34.1461V65.8595H26.5181C25.887 65.8595 25.3735 65.346 25.3735 64.7148V53.6035C25.3735 51.1533 27.2056 49.0932 29.6353 48.8114C30.1485 48.7519 30.5611 48.3531 30.6389 47.8417C30.7315 47.2339 30.9369 46.6568 31.2496 46.1268C31.4422 45.8002 31.3337 45.3791 31.0069 45.1864C30.6802 44.9938 30.2592 45.1024 30.0666 45.4291C29.6931 46.0624 29.4384 46.7478 29.3087 47.469C26.2704 47.9049 24 50.5127 24 53.6035V64.7151C24 66.1036 25.1297 67.2332 26.5181 67.2332H34.1542C34.2024 67.5654 34.4875 67.8208 34.833 67.8208C35.1786 67.8208 35.4637 67.5653 35.5119 67.2332H42.6537C44.554 67.2332 46.3126 66.3711 47.4788 64.8682C47.5364 64.7939 47.6148 64.6948 47.6954 64.5844H66.322V67.1341C66.322 67.5134 66.6296 67.8208 67.0088 67.8208C67.3881 67.8208 67.6955 67.5133 67.6955 67.1341V64.5844H69.3976C70.2811 64.5844 71 63.8655 71 62.982V60.8482C71 60.2048 70.6179 59.6502 70.0696 59.3954ZM65.2667 37.2307C65.2667 36.0331 66.2411 35.0588 67.4386 35.0588C68.6362 35.0588 69.6106 36.0331 69.6106 37.2307C69.6106 38.4283 68.6362 39.4026 67.4386 39.4026C66.241 39.4026 65.2667 38.4283 65.2667 37.2307ZM52.4415 37.2307C52.4415 36.0331 53.4158 35.0588 54.6134 35.0588C55.811 35.0588 56.7853 36.0331 56.7853 37.2307C56.7853 38.4283 55.811 39.4026 54.6134 39.4026C53.4158 39.4026 52.4415 38.4283 52.4415 37.2307ZM59.6114 45.8155C59.6114 45.5912 59.7939 45.4088 60.0182 45.4088C60.1822 45.4088 60.3294 45.5064 60.3932 45.6576C60.5006 45.912 60.7499 46.0773 61.0259 46.0773C61.302 46.0773 61.5513 45.912 61.6586 45.6576C61.7224 45.5064 61.8696 45.4088 62.0336 45.4088C62.2579 45.4088 62.4404 45.5913 62.4404 45.8155C62.4404 46.3834 61.7158 47.3607 61.0258 48.09C60.336 47.3605 59.6114 46.3833 59.6114 45.8155ZM67.6992 57.7953C68.2488 57.7953 68.6961 58.2425 68.6961 58.7922V59.2457H67.5349V57.7953H67.6992ZM35.6803 55.2302H66.1615V56.7153H58.9244C58.5451 56.7153 58.2377 57.0228 58.2377 57.402C58.2377 57.7813 58.5452 58.0888 58.9244 58.0888H66.1615V59.2456H35.6803V55.2302ZM35.9092 52.4065H65.9325C66.0588 52.4065 66.1615 52.5093 66.1615 52.6355V53.8567H35.6803V52.6355C35.6803 52.5093 35.783 52.4065 35.9092 52.4065ZM34.1223 57.7953H34.3068V59.2457H33.1254V58.7922C33.1254 58.2424 33.5727 57.7953 34.1223 57.7953ZM42.6536 65.8597H35.5198V64.5844H45.8841C45.0137 65.4016 43.8715 65.8597 42.6536 65.8597ZM69.6264 62.982C69.6264 63.1082 69.5237 63.2109 69.3975 63.2109H32.4441C32.3179 63.2109 32.2152 63.1082 32.2152 62.982V60.8482C32.2152 60.722 32.3179 60.6192 32.4441 60.6192H69.3975C69.5237 60.6192 69.6264 60.722 69.6264 60.8482V62.982Z" fill="#ADB7D0" />
    <g opacity="0.2" clip-path="url(#clip0)">
        <path d="M59.0001 101.644C86.9702 101.644 109.644 78.9701 109.644 51C109.644 23.0299 86.9702 0.355652 59.0001 0.355652C31.03 0.355652 8.35571 23.0299 8.35571 51C8.35571 78.9701 31.03 101.644 59.0001 101.644Z" stroke="#C4C4C4" stroke-miterlimit="10" />
        <path d="M59 91.5439C81.3918 91.5439 99.5439 73.3918 99.5439 51C99.5439 28.6082 81.3918 10.4561 59 10.4561C36.6082 10.4561 18.4561 28.6082 18.4561 51C18.4561 73.3918 36.6082 91.5439 59 91.5439Z" stroke="#C4C4C4" stroke-miterlimit="10" />
        <path d="M59 81.5146C75.8528 81.5146 89.5146 67.8528 89.5146 51C89.5146 34.1472 75.8528 20.4854 59 20.4854C42.1472 20.4854 28.4854 34.1472 28.4854 51C28.4854 67.8528 42.1472 81.5146 59 81.5146Z" stroke="#C4C4C4" stroke-miterlimit="10" />
        <path d="M59 71.4142C70.2745 71.4142 79.4143 62.2745 79.4143 51C79.4143 39.7255 70.2745 30.5858 59 30.5858C47.7256 30.5858 38.5858 39.7255 38.5858 51C38.5858 62.2745 47.7256 71.4142 59 71.4142Z" stroke="#C4C4C4" stroke-miterlimit="10" />
    </g>
    <defs>
        <clipPath id="clip0">
            <rect width="102" height="102" fill="white" transform="translate(8)" />
        </clipPath>
    </defs>
</svg>