<svg width="64" height="98" viewBox="0 0 64 98" fill="none" xmlns="http://www.w3.org/2000/svg">
<g clip-path="url(#clip0)">
<path d="M49.5372 42.5009C53.1716 38.2182 55.4119 32.5832 55.4119 26.3971C55.4119 13.424 45.6041 2.80501 33.3567 2.27907V0H31.3653V2.30411C19.1677 2.88014 9.43451 13.4741 9.43451 26.4222C9.43451 33.7102 12.5212 40.2719 17.4252 44.7048L26.3618 59.8068L25.0175 61.1592L25.3661 61.5098L26.2871 62.6869L24.8682 64.1145L25.2167 64.4651L25.7643 65.1664L24.8433 66.2683L25.142 66.5188L28.8013 70.1753V70.2003H28.8262L28.9009 70.2755L28.9755 70.2003L36.1696 70.2254L36.2194 70.2755L36.2692 70.2254L39.9783 66.5188L40.277 66.2683L39.4306 65.2415L40.2521 64.1896L40.6006 63.839L39.4057 62.6368L40.277 61.5349L40.6255 61.1843L39.331 59.8819L49.5372 42.5009ZM53.4205 26.4222C53.4205 36.9911 46.3758 45.8318 36.9911 48.0358C36.8168 47.61 36.1945 47.2844 35.3482 47.059L39.3559 39.22C39.4306 39.2451 39.5302 39.2701 39.6298 39.2701C40.0529 39.2701 40.4014 38.9195 40.4014 38.4687C40.4014 38.068 40.1276 37.7424 39.7542 37.6923C39.5551 34.9624 36.8417 32.7335 33.3816 32.3828V4.30769C44.4839 4.80859 53.4205 14.5259 53.4205 26.4222ZM33.3567 56.8014V50.5402C33.8297 50.5152 34.3027 50.4902 34.7756 50.4401L33.755 56.8014H33.3567ZM30.9919 56.8014L29.9464 50.415C30.4193 50.4651 30.8923 50.5152 31.3653 50.5402V56.8014H30.9919ZM25.4158 37.6422C25.6399 35.1127 28.1292 33.034 31.3653 32.6583V46.7335C30.9172 46.7585 30.4691 46.8086 30.0459 46.8837L25.9386 38.8193C26.0133 38.6941 26.0382 38.5689 26.0382 38.4186C26.0382 38.0429 25.7643 37.7174 25.4158 37.6422ZM39.6298 38.4937C39.6298 38.5188 39.6049 38.5438 39.6298 38.5438C39.6298 38.5438 39.6049 38.5188 39.6049 38.4937C39.6049 38.4687 39.6298 38.4436 39.6049 38.4436C39.6049 38.4436 39.6298 38.4436 39.6298 38.4937ZM38.8581 38.4937C38.8581 38.644 38.9079 38.7692 38.9576 38.8945L34.8503 46.9338C34.4022 46.8336 33.8795 46.7835 33.3567 46.7585V32.6583C36.6924 32.9839 39.2813 35.1127 39.4804 37.7174C39.1319 37.7674 38.8581 38.093 38.8581 38.4937ZM33.3567 48.5367V47.2594C35.0992 47.3846 36.2443 47.7853 36.4932 48.136C35.4726 48.3363 34.4271 48.4866 33.3567 48.5367ZM31.3653 47.2594V48.5367C30.2949 48.4866 29.2245 48.3363 28.2039 48.1109C28.4777 47.7603 29.6477 47.3596 31.3653 47.2594ZM31.3653 4.30769V32.4329C28.0047 32.8336 25.3909 34.9875 25.1669 37.6673C24.7935 37.7174 24.5197 38.0429 24.5197 38.4436C24.5197 38.8945 24.8682 39.2451 25.2914 39.2451C25.3909 39.2451 25.4905 39.22 25.5652 39.195L29.5481 47.0089C28.6021 47.2093 27.9051 47.5599 27.706 47.9857C18.396 45.7317 11.426 36.9159 11.426 26.4222C11.426 14.576 20.2879 4.88372 31.3653 4.30769ZM29.1747 50.3148L30.2202 56.8014H27.8802V58.5546H37.0907V56.8014H34.4769L35.5224 50.3399C39.9783 49.6887 44.0358 47.7102 47.3217 44.78L38.7336 59.2809H26.9343L19.1179 46.0823C22.0304 48.2862 25.4656 49.7639 29.1747 50.3148ZM27.7558 68.0715H37.2898L35.8958 69.449L29.1 69.424L27.7558 68.0715ZM27.009 67.3202L25.8639 66.1932L26.3867 65.542H38.6589L39.1817 66.1682L38.0366 67.3202H27.009ZM38.7834 64.7907H26.4365L25.8888 64.1145L26.9343 63.0626L26.9094 63.0376H38.7336L39.5053 63.8139L38.7834 64.7907ZM38.7336 62.2862H26.8347L26.8845 62.2612L26.0382 61.1843L27.0837 60.1324L27.009 60.0572H38.5594L38.4847 60.1324L39.5302 61.1843L38.6838 62.2612L38.7336 62.2862Z" fill="white"/>
<path d="M16.5788 90.111C15.7075 89.4347 14.5624 89.0591 13.4423 89.0591C10.7289 89.0591 8.51343 91.0627 8.51343 93.517C8.51343 95.9965 10.7289 98 13.4423 98C14.6122 98 15.7075 97.6244 16.6037 96.9231C16.6783 96.873 16.7779 96.7478 16.7779 96.5725V95.8462C16.7779 95.6959 16.6783 95.6458 16.6535 95.6208C16.5788 95.5958 16.4792 95.6208 16.4045 95.721C15.7075 96.5725 14.6371 97.0734 13.4671 97.0734C11.3263 97.0734 9.60872 95.4956 9.60872 93.5421C9.60872 91.5886 11.3512 90.0108 13.4671 90.0108C14.6371 90.0108 15.7075 90.4866 16.4045 91.3382C16.4792 91.4383 16.5788 91.4634 16.6535 91.4383C16.7032 91.4133 16.7779 91.3632 16.7779 91.2129V90.4866C16.753 90.3113 16.6535 90.161 16.5788 90.111Z" fill="white"/>
<path d="M23.8227 93.0913C24.5446 92.6906 24.918 92.1396 24.918 91.4384C24.918 89.9858 23.7978 89.1843 21.7565 89.1843H19.5411C19.2672 89.1843 19.0183 89.4097 19.0183 89.6602V97.3489C19.0183 97.6244 19.2423 97.8248 19.5411 97.8248H22.0553C23.6982 97.8248 25.366 96.9482 25.366 95.2702C25.366 94.4688 24.7935 93.6673 23.8227 93.0913ZM22.0553 96.848H20.2879C20.1136 96.848 20.1136 96.7478 20.1136 96.7228V93.6924C20.1136 93.5922 20.1385 93.5672 20.2381 93.5672H22.0553C23.1506 93.5672 24.2956 94.2183 24.2956 95.3203C24.2956 96.3722 23.1257 96.848 22.0553 96.848ZM21.7317 92.5654H20.2132C20.1136 92.5654 20.0887 92.5403 20.0887 92.4401V90.3113C20.0887 90.2612 20.0887 90.2112 20.2381 90.2112H21.8063C23.2501 90.2112 23.8476 90.5868 23.8476 91.4634C23.8476 92.3901 23.0759 92.5654 21.7317 92.5654Z" fill="white"/>
<path d="M28.2038 89.2092H28.1789C27.9051 89.2092 27.6561 89.4346 27.6561 89.6851V97.3738C27.6561 97.6493 27.8802 97.8497 28.1789 97.8497H28.2038C28.4776 97.8497 28.7265 97.6243 28.7265 97.3738V89.6851C28.7265 89.4096 28.5025 89.2092 28.2038 89.2092Z" fill="white"/>
<path d="M36.2691 89.2092H31.2905C31.0166 89.2092 30.7677 89.4346 30.7677 89.7101C30.7677 89.9856 30.9917 90.186 31.2905 90.186H33.2321C33.2321 90.186 33.2321 90.186 33.257 90.186V90.211V97.3738C33.257 97.6493 33.481 97.8497 33.7798 97.8497H33.8046C34.0785 97.8497 34.3274 97.6243 34.3274 97.3738V90.186C34.3274 90.186 34.3523 90.186 34.3772 90.186H36.294C36.5678 90.186 36.8167 89.9606 36.8167 89.7101V89.6851C36.7918 89.4096 36.5429 89.2092 36.2691 89.2092Z" fill="white"/>
<path d="M41.9946 89.4849C41.9199 89.3095 41.7207 89.1843 41.4967 89.1843C41.3225 89.1843 41.0984 89.2845 41.0237 89.4849L37.464 97.1736C37.4142 97.2738 37.4142 97.399 37.4391 97.5242C37.4889 97.6494 37.5885 97.7496 37.7379 97.8248H37.7628C37.8125 97.8498 37.8872 97.8498 37.937 97.8498C38.1361 97.8498 38.3353 97.7246 38.41 97.5493C38.4349 97.4992 41.0984 91.5886 41.2976 91.1629C41.3971 90.9375 41.4469 90.8623 41.4967 90.8122C41.5465 90.8874 41.6461 91.0627 41.671 91.1629C41.8203 91.5135 44.4341 97.2988 44.5585 97.5493C44.6581 97.7997 44.9568 97.8999 45.2307 97.7997H45.2556C45.4049 97.7496 45.5045 97.6494 45.5543 97.4992C45.6041 97.3739 45.604 97.2487 45.5294 97.1485L41.9946 89.4849Z" fill="white"/>
<path d="M51.7277 89.4849C51.653 89.3095 51.4538 89.1843 51.2298 89.1843C51.0058 89.1843 50.8066 89.3095 50.7319 89.4849L47.1722 97.1736C47.1224 97.2988 47.1224 97.424 47.1722 97.5493C47.222 97.6745 47.3216 97.7747 47.4461 97.7997L47.4709 97.8247C47.5456 97.8498 47.5954 97.8748 47.6701 97.8748C47.8692 97.8748 48.0435 97.7747 48.1431 97.5993C48.1431 97.5993 49.0392 95.6459 49.1139 95.5206C49.1637 95.4205 49.1886 95.4205 49.313 95.4205H53.1217C53.271 95.4205 53.2959 95.4705 53.3208 95.4956C53.3706 95.5958 54.2916 97.5993 54.2916 97.6244C54.4161 97.8748 54.7148 97.975 54.9638 97.8748H54.9886C55.138 97.8247 55.2376 97.7246 55.2874 97.5993C55.3371 97.4741 55.3371 97.3489 55.2625 97.2487L51.7277 89.4849ZM52.8229 94.3686H52.7981H49.6864H49.6615C49.6864 94.3185 49.7113 94.2434 49.7611 94.1181C50.0847 93.4169 50.9062 91.5135 51.2298 90.8874V90.8623C51.2298 90.8623 51.2298 90.8623 51.2298 90.8874C51.3543 91.1879 51.6032 91.7389 51.877 92.3149C52.4247 93.5171 52.7981 94.2934 52.8229 94.3686Z" fill="white"/>
<path d="M3.95799 75.7603C1.76741 75.7603 0 77.7638 0 80.2182C0 82.6976 1.76741 84.7012 3.95799 84.7012C6.12369 84.7012 7.81641 82.7227 7.81641 80.2182C7.81641 77.7137 6.12369 75.7603 3.95799 75.7603ZM4.35628 83.6994C4.35628 83.6994 4.35628 83.6994 4.35628 83.6744V76.762C4.35628 76.737 4.35628 76.737 4.35628 76.737C5.82497 76.9624 6.89537 78.44 6.89537 80.2433C6.92026 82.0214 5.84986 83.474 4.35628 83.6994ZM3.46013 83.6994C1.99144 83.4239 0.896149 81.9212 0.896149 80.2182C0.896149 78.4901 1.96655 77.0375 3.43524 76.737C3.46013 76.737 3.46013 76.737 3.46013 76.737V83.6994Z" fill="white"/>
<path d="M10.1066 84.5511C10.3555 84.5511 10.5547 84.3257 10.5547 84.0752V76.3865C10.5547 76.111 10.3555 75.9106 10.1066 75.9106C9.85768 75.9106 9.65853 76.136 9.65853 76.3865V84.0752C9.63364 84.3507 9.83279 84.5511 10.1066 84.5511Z" fill="white"/>
<path d="M15.832 76.186C15.7573 76.0107 15.608 75.8855 15.4088 75.8855C15.2595 75.8855 15.0603 75.9857 15.0106 76.186L12.1728 83.8748C12.0732 84.1252 12.1728 84.4007 12.3968 84.5009H12.4217C12.5213 84.551 12.6457 84.551 12.7453 84.5009C12.8698 84.4508 12.9444 84.3506 12.9942 84.2254C13.0191 84.1753 15.135 78.2647 15.2844 77.839C15.3342 77.6887 15.384 77.5885 15.4088 77.5385C15.4586 77.6136 15.5084 77.7638 15.5333 77.839C15.6578 78.1896 17.7488 83.9749 17.8235 84.2254C17.8733 84.3506 17.9479 84.4508 18.0475 84.5009C18.0973 84.5259 18.172 84.5259 18.2218 84.5259C18.2715 84.5259 18.3462 84.5259 18.396 84.5009L18.4209 84.4758C18.6449 84.3757 18.7445 84.1002 18.6449 83.8497L15.832 76.186Z" fill="white"/>
<path d="M23.4742 75.7603C21.2836 75.7603 19.5162 77.7638 19.5162 80.2182C19.5162 82.6976 21.2836 84.7012 23.4742 84.7012C25.6399 84.7012 27.3326 82.7227 27.3326 80.2182C27.3326 77.7137 25.6399 75.7603 23.4742 75.7603ZM23.4742 83.7746C21.7814 83.7746 20.4123 82.1967 20.4123 80.2433C20.4123 78.2898 21.7814 76.7119 23.4742 76.7119C25.142 76.7119 26.4364 78.2647 26.4364 80.2433C26.4364 82.2218 25.142 83.7746 23.4742 83.7746Z" fill="white"/>
<path d="M35.5223 83.6244C35.5721 83.5743 35.6468 83.4491 35.6468 83.2988V82.5725C35.6468 82.3972 35.5472 82.3722 35.5223 82.3471C35.4974 82.3471 35.373 82.3221 35.2983 82.4473C34.7507 83.2988 33.9043 83.7747 32.9833 83.7747C31.2905 83.7747 29.9214 82.1968 29.9214 80.2434C29.9214 78.2899 31.2905 76.7121 32.9833 76.7121C33.9043 76.7121 34.7507 77.1879 35.2983 78.0394C35.3979 78.1646 35.4974 78.1646 35.5223 78.1396C35.5721 78.1146 35.6468 78.0645 35.6468 77.9142V77.1879C35.6468 77.0376 35.5721 76.9124 35.4974 76.8623C34.8004 76.1861 33.8794 75.7854 32.9584 75.7854C30.7678 75.7854 29.0004 77.789 29.0004 80.2434C29.0004 82.7228 30.7678 84.7264 32.9584 84.7264C33.9043 84.7013 34.8004 84.3257 35.5223 83.6244Z" fill="white"/>
<path d="M41.1979 84.7012C43.3636 84.7012 45.0563 82.7227 45.0563 80.2182C45.0563 77.7137 43.3636 75.7603 41.1979 75.7603C39.0073 75.7603 37.2399 77.7638 37.2399 80.2182C37.2399 82.6976 39.0073 84.7012 41.1979 84.7012ZM41.1979 76.6869C42.8658 76.6869 44.1602 78.2397 44.1602 80.2182C44.1602 82.1967 42.8658 83.7495 41.1979 83.7495C39.5052 83.7495 38.1361 82.1717 38.1361 80.2182C38.1361 78.2647 39.5052 76.6869 41.1979 76.6869Z" fill="white"/>
<path d="M50.6822 84.7012C52.8479 84.7012 54.5407 82.7227 54.5407 80.2182C54.5407 77.7137 52.8479 75.7603 50.6822 75.7603C48.4917 75.7603 46.7242 77.7638 46.7242 80.2182C46.7242 82.6976 48.5165 84.7012 50.6822 84.7012ZM50.1595 76.762C50.1844 76.737 50.1844 76.762 50.1595 76.762L50.1844 83.6994C50.1844 83.6994 50.1844 83.6994 50.1595 83.6994C48.7157 83.4239 47.6204 81.9212 47.6204 80.2182C47.6204 78.5152 48.6908 77.0375 50.1595 76.762ZM51.0805 83.6744V76.762C51.0805 76.737 51.0805 76.737 51.0805 76.737C52.5492 76.9624 53.6196 78.44 53.6196 80.2433C53.6196 82.0214 52.5492 83.4991 51.0556 83.7245C51.0805 83.6994 51.0805 83.6994 51.0805 83.6744Z" fill="white"/>
<path d="M56.8059 75.8855C56.557 75.8855 56.3578 76.1109 56.3578 76.3613V84.0501C56.3578 84.3256 56.557 84.5259 56.8059 84.5259C57.0549 84.5259 57.254 84.3005 57.254 84.0501V76.3864C57.2789 76.1109 57.0797 75.8855 56.8059 75.8855Z" fill="white"/>
<path d="M63.4026 76.8122C63.0043 76.2862 62.4069 76.0107 61.6601 76.0107C61.2867 76.0107 60.9631 76.0859 60.6644 76.2111C60.3657 76.3363 60.0919 76.5116 59.8678 76.7621C59.6438 76.9875 59.4695 77.263 59.3451 77.5886C59.2206 77.9141 59.1708 78.2397 59.1708 78.6154C59.1708 78.966 59.2206 79.2666 59.3202 79.542C59.4197 79.8175 59.5442 80.0429 59.7185 80.2433C59.8927 80.4437 60.067 80.5939 60.291 80.7191H60.3159C60.1914 80.7943 60.0919 80.8694 60.0172 80.9446C59.7931 81.1449 59.6189 81.3954 59.5193 81.6458C59.4197 81.8963 59.3451 82.1467 59.2953 82.4222C59.2704 82.6726 59.2455 82.898 59.2455 83.0984V83.9499C59.2455 84.0501 59.2455 84.1252 59.2206 84.2004C59.1957 84.3005 59.1957 84.3506 59.1708 84.4007L59.0961 84.7013H60.067L60.0919 84.5009C60.1167 84.4258 60.1167 84.3256 60.1416 84.2004C60.1665 84.0751 60.1665 83.9499 60.1665 83.8748V83.1234C60.1665 82.898 60.1914 82.6726 60.2412 82.4222C60.291 82.1968 60.3657 81.9964 60.4901 81.7961C60.6146 81.6208 60.8138 81.4454 61.0627 81.3202C61.3116 81.195 61.6601 81.1199 62.1082 81.1199H63.1288V84.6762H64.0498V78.8658C64.0001 78.0143 63.8009 77.3131 63.4026 76.8122ZM63.0541 80.1932H62.0584C61.7597 80.1932 61.4859 80.1682 61.2369 80.093C60.988 80.0179 60.7889 79.9177 60.6146 79.7925C60.4404 79.6673 60.3159 79.492 60.2163 79.2916C60.1167 79.0912 60.067 78.8408 60.067 78.5403C60.067 78.2648 60.1167 78.0394 60.1914 77.839C60.2661 77.6386 60.3906 77.4633 60.5399 77.3381C60.6893 77.2129 60.8386 77.1127 61.0378 77.0376C61.212 76.9624 61.4112 76.9374 61.5854 76.9374C61.7348 76.9374 61.8842 76.9624 62.0833 77.0125C62.2327 77.0626 62.4069 77.1378 62.5314 77.263C62.6807 77.3882 62.8052 77.5886 62.9048 77.839C63.0043 78.0895 63.0541 78.4651 63.0541 78.8909V80.1932Z" fill="white"/>
</g>
<defs>
<clipPath id="clip0">
<rect width="64" height="98" fill="white"/>
</clipPath>
</defs>
</svg>
