<svg width="26" height="24" viewBox="0 0 26 24" fill="none" xmlns="http://www.w3.org/2000/svg">
<path d="M22.375 3.65039H7.18945L7.04297 3.06445C6.88021 2.31576 6.514 1.7054 5.94434 1.2334C5.37467 0.761393 4.69922 0.525391 3.91797 0.525391H1.52539C1.23242 0.525391 0.988281 0.623047 0.792969 0.818359C0.597656 1.01367 0.5 1.27409 0.5 1.59961C0.5 1.89258 0.597656 2.13672 0.792969 2.33203C0.988281 2.52734 1.23242 2.625 1.52539 2.625H3.91797C4.53646 2.625 4.89453 2.90169 4.99219 3.45508L7.38477 15.9551C7.58008 16.6387 7.96256 17.1921 8.53223 17.6152C9.10189 18.0384 9.72852 18.25 10.4121 18.25H20.2754C20.6009 18.25 20.8613 18.1523 21.0566 17.957C21.252 17.7617 21.3496 17.5176 21.3496 17.2246C21.3496 16.5085 20.9915 16.1504 20.2754 16.1504H10.4121C9.95638 16.1504 9.63086 15.9551 9.43555 15.5645L9.33789 15.125H19.7871C20.4382 15.125 21.0322 14.9297 21.5693 14.5391C22.1064 14.1484 22.4727 13.6439 22.668 13.0254L25.5 7.01953V6.77539C25.5 5.89648 25.1989 5.15592 24.5967 4.55371C23.9945 3.9515 23.2539 3.65039 22.375 3.65039ZM20.8125 12.1953V12.293C20.7148 12.7812 20.373 13.0254 19.7871 13.0254H8.94727L7.58008 5.75H22.375C22.9609 5.75 23.3027 6.02669 23.4004 6.58008L20.8125 12.1953ZM13 21.375C13 21.9609 12.7965 22.4574 12.3896 22.8643C11.9827 23.2712 11.4863 23.4746 10.9004 23.4746C10.347 23.4746 9.86686 23.2712 9.45996 22.8643C9.05306 22.4574 8.84961 21.9609 8.84961 21.375C8.84961 20.7891 9.05306 20.2926 9.45996 19.8857C9.86686 19.4788 10.347 19.2754 10.9004 19.2754C11.4863 19.2754 11.9827 19.4788 12.3896 19.8857C12.7965 20.2926 13 20.7891 13 21.375ZM21.3496 21.375C21.3496 21.9609 21.1462 22.4574 20.7393 22.8643C20.3324 23.2712 19.8359 23.4746 19.25 23.4746C18.6641 23.4746 18.1676 23.2712 17.7607 22.8643C17.3538 22.4574 17.1504 21.9609 17.1504 21.375C17.1504 20.7891 17.3538 20.2926 17.7607 19.8857C18.1676 19.4788 18.6641 19.2754 19.25 19.2754C19.8359 19.2754 20.3324 19.4788 20.7393 19.8857C21.1462 20.2926 21.3496 20.7891 21.3496 21.375Z" fill="#ADB7D0"/>
</svg>
