<svg width="102" height="102" viewBox="0 0 102 102" fill="none" xmlns="http://www.w3.org/2000/svg">
<g clip-path="url(#clip0)">
<path d="M45.75 37.8759C46.1411 37.8759 46.4908 37.6331 46.6281 37.2665C46.7651 36.9003 46.66 36.4872 46.3645 36.2309L39.4585 30.2309C39.1058 29.9244 38.5814 29.9244 38.2288 30.2309L31.3224 36.2309C31.0273 36.4872 30.9221 36.9003 31.0591 37.2665C31.1961 37.6331 31.5462 37.8759 31.9373 37.8759H32.9975L34.6798 45.0009H34.3539C33.8364 45.0009 33.4164 45.4206 33.4164 45.9384C33.4164 46.4562 33.8364 46.8759 34.3539 46.8759H36.0311V67.1258H35.8645C35.4298 67.1258 35.0519 67.425 34.9523 67.8479L32.8272 76.8479C32.7616 77.127 32.8268 77.4203 33.0044 77.6451C33.1824 77.8696 33.453 78.0007 33.7398 78.0007H43.9479C44.2346 78.0007 44.5052 77.87 44.6832 77.6451C44.8608 77.4203 44.9264 77.127 44.8604 76.8479L42.7353 67.8479C42.6357 67.425 42.2578 67.1258 41.8231 67.1258H41.6565V46.8759H43.3337C43.8512 46.8759 44.2712 46.4562 44.2712 45.9384C44.2712 45.4206 43.8512 45.0009 43.3337 45.0009H43.0078L44.6902 37.8759H45.75ZM38.8436 32.1806L43.2414 36.0009H34.4458L38.8436 32.1806ZM34.9241 37.8759H37.9061V45.0009H36.6065L34.9241 37.8759ZM42.7632 76.1257H34.9241L36.6065 69.0008H41.0808L42.7632 76.1257ZM39.7811 67.1258H37.9061V46.8759H39.7811V67.1258ZM41.0808 45.0009H39.7811V37.8759H42.7632L41.0808 45.0009Z" fill="#ADB7D0"/>
<path d="M61.5376 55.519C61.7844 55.519 62.0261 55.4194 62.2004 55.244C62.3751 55.0697 62.4751 54.828 62.4751 54.5815C62.4751 54.3347 62.3751 54.0938 62.2004 53.9187C62.0261 53.744 61.7844 53.644 61.5376 53.644C61.2911 53.644 61.0494 53.744 60.8751 53.9187C60.7008 54.093 60.6001 54.3347 60.6001 54.5815C60.6001 54.828 60.7004 55.0697 60.8751 55.244C61.0494 55.4194 61.2911 55.519 61.5376 55.519Z" fill="#ADB7D0"/>
<path d="M76.9277 62.2694C78.0703 62.2694 79.0001 61.3396 79.0001 60.197V55.7161C79.0001 54.5738 78.0703 53.644 76.9277 53.644H66.9082C66.3904 53.644 65.9707 54.0637 65.9707 54.5815C65.9707 55.0994 66.3904 55.519 66.9082 55.519H76.9277C77.0365 55.519 77.1251 55.6073 77.1251 55.7161V60.197C77.1251 60.3058 77.0365 60.3944 76.9277 60.3944H48.4509C48.3422 60.3944 48.2539 60.3058 48.2539 60.197V55.7161C48.2539 55.6077 48.3422 55.519 48.4509 55.519H58.4708C58.9882 55.519 59.4083 55.0994 59.4083 54.5815C59.4083 54.0637 58.9882 53.644 58.4708 53.644H48.4509C47.3083 53.644 46.3789 54.5738 46.3789 55.7161V60.197C46.3789 61.3396 47.3083 62.2694 48.4509 62.2694H49.8879V66.394H47.3164C46.7986 66.394 46.3789 66.814 46.3789 67.3315V71.8124C46.3789 72.3302 46.7986 72.7499 47.3164 72.7499H49.8879V77.0624C49.8879 77.5802 50.308 77.9999 50.8254 77.9999H54.5754C55.0932 77.9999 55.5129 77.5802 55.5129 77.0624V72.7499H69.8657V77.0624C69.8657 77.5802 70.2858 77.9999 70.8032 77.9999H74.5532C75.071 77.9999 75.4907 77.5802 75.4907 77.0624V72.7499H78.0622C78.5801 72.7499 78.9997 72.3302 78.9997 71.8124V67.3315C78.9997 66.814 78.5801 66.394 78.0622 66.394H75.4907V62.2694H76.9277ZM55.5129 66.394V62.2694H69.8657V66.394H55.5129ZM51.7629 62.2694H53.6379V66.394H51.7629V62.2694ZM53.6379 76.1249H51.7629V72.7499H53.6379V76.1249ZM73.6157 76.1249H71.7407V72.7499H73.6157V76.1249ZM77.1247 70.8749H48.2539V68.269H50.8236L50.8254 68.2693H54.5754L54.5772 68.269H70.8014L70.8032 68.2693H74.5532L74.5551 68.269H77.1247V70.8749ZM73.6157 66.394H71.7407V62.2694H73.6157V66.394Z" fill="#ADB7D0"/>
</g>
<g opacity="0.2" clip-path="url(#clip1)">
<path d="M51.0001 101.644C78.9702 101.644 101.644 78.9701 101.644 51C101.644 23.0299 78.9702 0.355652 51.0001 0.355652C23.03 0.355652 0.355713 23.0299 0.355713 51C0.355713 78.9701 23.03 101.644 51.0001 101.644Z" stroke="#C4C4C4" stroke-miterlimit="10"/>
<path d="M51 91.5439C73.3918 91.5439 91.5439 73.3918 91.5439 51C91.5439 28.6082 73.3918 10.4561 51 10.4561C28.6082 10.4561 10.4561 28.6082 10.4561 51C10.4561 73.3918 28.6082 91.5439 51 91.5439Z" stroke="#C4C4C4" stroke-miterlimit="10"/>
<path d="M51 81.5146C67.8528 81.5146 81.5146 67.8528 81.5146 51C81.5146 34.1472 67.8528 20.4854 51 20.4854C34.1472 20.4854 20.4854 34.1472 20.4854 51C20.4854 67.8528 34.1472 81.5146 51 81.5146Z" stroke="#C4C4C4" stroke-miterlimit="10"/>
<path d="M50.9999 71.4142C62.2744 71.4142 71.4141 62.2745 71.4141 51C71.4141 39.7255 62.2744 30.5858 50.9999 30.5858C39.7255 30.5858 30.5857 39.7255 30.5857 51C30.5857 62.2745 39.7255 71.4142 50.9999 71.4142Z" stroke="#C4C4C4" stroke-miterlimit="10"/>
</g>
<defs>
<clipPath id="clip0">
<rect width="48" height="48" fill="white" transform="translate(31 30)"/>
</clipPath>
<clipPath id="clip1">
<rect width="102" height="102" fill="white"/>
</clipPath>
</defs>
</svg>
