<svg width="102" height="102" viewBox="0 0 102 102" fill="none" xmlns="http://www.w3.org/2000/svg">
<path d="M65.2159 59.5231C65.0219 59.329 64.7527 59.2174 64.4783 59.2174C64.2038 59.2174 63.9346 59.329 63.7405 59.5231C63.5465 59.7173 63.4348 59.9864 63.4348 60.2608C63.4348 60.5353 63.5464 60.8045 63.7405 60.9985C63.9346 61.1925 64.2038 61.3043 64.4783 61.3043C64.7527 61.3043 65.0219 61.1926 65.2159 60.9985C65.41 60.8045 65.5217 60.5353 65.5217 60.2608C65.5217 59.9864 65.41 59.7173 65.2159 59.5231Z" fill="#ADB7D0"/>
<path d="M70.6727 59.8944L64.4118 43.1988C64.259 42.7916 63.8699 42.5218 63.4349 42.5218H60.3045V39.3914C60.3045 38.8152 59.8372 38.348 59.261 38.348H54.0436V31.0434C54.0436 30.4673 53.5763 30 53.0001 30C52.4239 30 51.9567 30.4673 51.9567 31.0434V38.3478H46.7393C46.1631 38.3478 45.6959 38.815 45.6959 39.3912V42.5216H42.5655C42.1305 42.5216 41.7412 42.7914 41.5885 43.1986L35.3274 59.8944C35.2073 60.2149 35.2518 60.5739 35.4467 60.8553C35.6416 61.1366 35.9621 61.3044 36.3044 61.3044H45.6957V70.6958C45.6958 74.7233 48.9724 78 53.0001 78C57.0278 78 60.3045 74.7233 60.3045 70.6957V61.3043H61.3479C61.9241 61.3043 62.3913 60.8371 62.3913 60.2609C62.3913 59.6847 61.9241 59.2175 61.3479 59.2175H59.2609H55.087H50.9131H46.7391H37.8102L41.7232 48.7827H44.6522C45.2284 48.7827 45.6957 48.3155 45.6957 47.7393C45.6957 47.1631 45.2284 46.6958 44.6522 46.6958H42.5058L43.2885 44.6089H46.7392H59.2609H62.7117L68.19 59.2176H67.6087C67.0325 59.2176 66.5653 59.6848 66.5653 60.261C66.5653 60.8372 67.0325 61.3044 67.6087 61.3044H69.6957C70.038 61.3044 70.3585 61.1366 70.5534 60.8553C70.7483 60.5739 70.7929 60.215 70.6727 59.8944ZM51.9566 61.3043H54.0436V70.6957C54.0436 71.271 53.5755 71.7391 53.0001 71.7391C52.4248 71.7391 51.9567 71.271 51.9567 70.6957L51.9566 61.3043ZM47.7827 61.3043H49.8697V70.6957C49.8697 72.4218 51.274 73.8261 53.0001 73.8261C54.7262 73.8261 56.1305 72.4218 56.1305 70.6957V61.3043H58.2175V70.6957C58.2175 73.5726 55.8769 75.913 53.0001 75.913C50.1232 75.913 47.7827 73.5725 47.7827 70.6957V61.3043ZM58.2175 42.5217H47.7827V40.4348H58.2175V42.5217Z" fill="#ADB7D0"/>
<path d="M48.5203 47.0013C48.3264 46.8073 48.0571 46.6956 47.7827 46.6956C47.5083 46.6956 47.239 46.8072 47.045 47.0013C46.8509 47.1954 46.7393 47.4646 46.7393 47.7391C46.7393 48.0135 46.8508 48.2827 47.045 48.4767C47.239 48.6707 47.5083 48.7825 47.7827 48.7825C48.0571 48.7825 48.3264 48.6708 48.5203 48.4767C48.7145 48.2827 48.8261 48.0135 48.8261 47.7391C48.8261 47.4646 48.7145 47.1954 48.5203 47.0013Z" fill="#ADB7D0"/>
<g opacity="0.2" clip-path="url(#clip0)">
<path d="M51.0001 101.644C78.9702 101.644 101.644 78.9701 101.644 51C101.644 23.0299 78.9702 0.355652 51.0001 0.355652C23.03 0.355652 0.355713 23.0299 0.355713 51C0.355713 78.9701 23.03 101.644 51.0001 101.644Z" stroke="#C4C4C4" stroke-miterlimit="10"/>
<path d="M51 91.5439C73.3918 91.5439 91.5439 73.3918 91.5439 51C91.5439 28.6082 73.3918 10.4561 51 10.4561C28.6082 10.4561 10.4561 28.6082 10.4561 51C10.4561 73.3918 28.6082 91.5439 51 91.5439Z" stroke="#C4C4C4" stroke-miterlimit="10"/>
<path d="M51 81.5146C67.8528 81.5146 81.5146 67.8528 81.5146 51C81.5146 34.1472 67.8528 20.4854 51 20.4854C34.1472 20.4854 20.4854 34.1472 20.4854 51C20.4854 67.8528 34.1472 81.5146 51 81.5146Z" stroke="#C4C4C4" stroke-miterlimit="10"/>
<path d="M50.9999 71.4142C62.2744 71.4142 71.4141 62.2745 71.4141 51C71.4141 39.7255 62.2744 30.5858 50.9999 30.5858C39.7255 30.5858 30.5857 39.7255 30.5857 51C30.5857 62.2745 39.7255 71.4142 50.9999 71.4142Z" stroke="#C4C4C4" stroke-miterlimit="10"/>
</g>
<defs>
<clipPath id="clip0">
<rect width="102" height="102" fill="white"/>
</clipPath>
</defs>
</svg>
