<svg width="102" height="102" viewBox="0 0 102 102" fill="none" xmlns="http://www.w3.org/2000/svg">
<g clip-path="url(#clip0)">
<path d="M73.5323 56.8449C74.4943 55.2819 75 53.5056 75 51.6562C75 46.0992 70.3847 41.5781 64.7119 41.5781C63.2446 41.5781 61.8159 41.8805 60.5005 42.4597C60.6908 41.6881 60.7881 40.8904 60.7881 40.0781C60.7881 34.5211 56.1728 30 50.5 30C48.2851 30 46.1752 30.6789 44.3979 31.9633C44.0788 32.1938 44.011 32.634 44.2464 32.9465C44.4818 33.2591 44.9311 33.3253 45.25 33.0949C46.7788 31.9902 48.5942 31.4062 50.5 31.4062C55.3813 31.4062 59.3525 35.2964 59.3525 40.0781C59.3525 41.8547 58.8121 43.5499 57.7885 45H43.2113C42.1877 43.5499 41.6475 41.855 41.6475 40.0781C41.6475 38.2112 42.2436 36.4328 43.3714 34.9354C43.6067 34.6229 43.5389 34.1828 43.2199 33.9522C42.9009 33.7215 42.4516 33.7881 42.2162 34.1006C40.905 35.8416 40.2119 37.9085 40.2119 40.0781C40.2119 40.8899 40.3092 41.6871 40.4992 42.4582C39.1846 41.8793 37.7567 41.5781 36.2881 41.5781C30.6153 41.5781 26 46.0992 26 51.6562C26 53.5068 26.5059 55.282 27.4679 56.8448C26.5991 57.2663 26 58.1438 26 59.1562C26 60.5778 27.1807 61.7344 28.6318 61.7344H29.1599C28.9758 62.0862 28.8711 62.4844 28.8711 62.9062C28.8711 64.3278 30.0518 65.4844 31.5029 65.4844H33.689C33.8566 67.4258 34.7126 69.2287 36.1412 70.6132C37.7191 72.1423 39.8106 72.9844 42.0303 72.9844H45.9541V75.4219C45.9541 76.8434 47.1348 78 48.5859 78H52.4141C53.8652 78 55.0459 76.8434 55.0459 75.4219V72.9844H58.9697C61.1832 72.9844 63.2705 72.1463 64.847 70.6245C66.282 69.2393 67.143 67.4315 67.3111 65.4844H69.4971C70.9482 65.4844 72.1289 64.3278 72.1289 62.9062C72.1289 62.4844 72.0242 62.0862 71.8401 61.7344H72.3682C73.8193 61.7344 75 60.5778 75 59.1562C75 58.144 74.401 57.2665 73.5323 56.8449ZM64.7119 42.9844C69.5933 42.9844 73.5645 46.8745 73.5645 51.6562C73.5645 53.4314 73.0232 55.1278 71.9996 56.5781H57.4232C56.8241 55.7273 56.3823 54.7704 56.1254 53.7707C57.1656 53.4263 57.9169 52.4618 57.9169 51.3281C57.9169 50.9062 57.8122 50.5081 57.6281 50.1562H58.1562C59.6074 50.1562 60.7881 48.9997 60.7881 47.5781C60.7881 46.5657 60.189 45.6882 59.3201 45.2666C59.4811 45.0051 59.6294 44.7377 59.7645 44.4649C61.228 43.4966 62.9372 42.9844 64.7119 42.9844ZM57.0557 61.7344H57.5838C57.3996 62.0862 57.2949 62.4844 57.2949 62.9062C57.2949 64.3278 58.4756 65.4844 59.9268 65.4844H61.9948C61.6665 66.8222 60.4233 67.8281 58.9697 67.8281H54.9456C54.6972 66.9711 54.0068 66.2948 53.1318 66.0514V53.9062H54.6826C54.9239 54.9383 55.3345 55.9344 55.8922 56.8446C55.0231 57.2661 54.4238 58.1438 54.4238 59.1562C54.4238 60.5778 55.6045 61.7344 57.0557 61.7344ZM46.0544 67.8281H42.0303C40.5756 67.8281 39.3333 66.8225 39.0052 65.4844H41.0732C42.5244 65.4844 43.7051 64.3278 43.7051 62.9062C43.7051 62.4844 43.6004 62.0862 43.4162 61.7344H43.9443C45.3955 61.7344 46.5762 60.5778 46.5762 59.1562C46.5762 58.1438 45.977 57.2662 45.108 56.8447C45.6657 55.9345 46.0762 54.9383 46.3175 53.9062H47.8682V66.0514C46.9932 66.2948 46.3028 66.9711 46.0544 67.8281ZM42.8438 46.4062H58.1562C58.8159 46.4062 59.3525 46.9319 59.3525 47.5781C59.3525 48.2243 58.8159 48.75 58.1562 48.75H42.8438C42.1841 48.75 41.6475 48.2243 41.6475 47.5781C41.6475 46.9319 42.1841 46.4062 42.8438 46.4062ZM45.7148 50.1562H55.2852C55.9448 50.1562 56.4814 50.6819 56.4814 51.3281C56.4814 51.9743 55.9448 52.5 55.2852 52.5H45.7148C45.0552 52.5 44.5186 51.9743 44.5186 51.3281C44.5186 50.6819 45.0552 50.1562 45.7148 50.1562ZM49.3037 53.9062H51.6963V65.9531H49.3037V53.9062ZM36.2881 42.9844C38.065 42.9844 39.772 43.4971 41.2358 44.466C41.3709 44.7384 41.519 45.0054 41.6799 45.2666C40.811 45.6881 40.2119 46.5657 40.2119 47.5781C40.2119 48.9997 41.3926 50.1562 42.8438 50.1562H43.3718C43.1877 50.5081 43.083 50.9062 43.083 51.3281C43.083 52.4618 43.8343 53.4263 44.8745 53.7707C44.6176 54.7703 44.1763 55.7274 43.5773 56.5781H28.9999C27.9763 55.1279 27.4355 53.4324 27.4355 51.6562C27.4355 46.8745 31.4067 42.9844 36.2881 42.9844ZM27.4355 59.1562C27.4355 58.51 27.9722 57.9844 28.6318 57.9844H43.9443C44.604 57.9844 45.1406 58.51 45.1406 59.1562C45.1406 59.8025 44.604 60.3281 43.9443 60.3281H28.6318C27.9722 60.3281 27.4355 59.8025 27.4355 59.1562ZM30.3066 62.9062C30.3066 62.26 30.8432 61.7344 31.5029 61.7344H41.0732C41.7329 61.7344 42.2695 62.26 42.2695 62.9062C42.2695 63.5525 41.7329 64.0781 41.0732 64.0781H31.5029C30.8432 64.0781 30.3066 63.5525 30.3066 62.9062ZM42.0303 71.5781C38.4627 71.5781 35.4925 68.8969 35.1303 65.4844H37.5415C37.693 66.4234 38.1458 67.288 38.8509 67.9642C39.7055 68.7832 40.8346 69.2344 42.0303 69.2344H45.9541V71.5781H42.0303ZM53.6104 75.4219C53.6104 76.0681 53.0737 76.5938 52.4141 76.5938H48.5859C47.9263 76.5938 47.3896 76.0681 47.3896 75.4219V68.5312C47.3896 67.885 47.9263 67.3594 48.5859 67.3594H52.4141C53.0737 67.3594 53.6104 67.885 53.6104 68.5312V75.4219ZM58.9697 71.5781H55.0459V69.2344H58.9697C60.1638 69.2344 61.2917 68.7844 62.1458 67.9673C62.8528 67.2909 63.3066 66.425 63.4585 65.4844H65.8695C65.5064 68.8946 62.5314 71.5781 58.9697 71.5781ZM72.3682 60.3281H67.8589C67.4624 60.3281 67.1411 60.6428 67.1411 61.0312C67.1411 61.4197 67.4624 61.7344 67.8589 61.7344H69.4971C70.1567 61.7344 70.6934 62.26 70.6934 62.9062C70.6934 63.5525 70.1567 64.0781 69.4971 64.0781H59.9268C59.2671 64.0781 58.7305 63.5525 58.7305 62.9062C58.7305 62.26 59.2671 61.7344 59.9268 61.7344H64.9878C65.3843 61.7344 65.7056 61.4197 65.7056 61.0312C65.7056 60.6428 65.3843 60.3281 64.9878 60.3281H57.0557C56.396 60.3281 55.8594 59.8025 55.8594 59.1562C55.8594 58.51 56.396 57.9844 57.0557 57.9844H72.3682C73.0278 57.9844 73.5645 58.51 73.5645 59.1562C73.5645 59.8025 73.0278 60.3281 72.3682 60.3281Z" fill="#ADB7D0" stroke="#ADB7D0" stroke-width="0.5"/>
</g>
<g opacity="0.2" clip-path="url(#clip1)">
<path d="M51.0001 101.644C78.9702 101.644 101.644 78.9701 101.644 51C101.644 23.0299 78.9702 0.355652 51.0001 0.355652C23.03 0.355652 0.355713 23.0299 0.355713 51C0.355713 78.9701 23.03 101.644 51.0001 101.644Z" stroke="#C4C4C4" stroke-miterlimit="10"/>
<path d="M51 91.5439C73.3918 91.5439 91.5439 73.3918 91.5439 51C91.5439 28.6082 73.3918 10.4561 51 10.4561C28.6082 10.4561 10.4561 28.6082 10.4561 51C10.4561 73.3918 28.6082 91.5439 51 91.5439Z" stroke="#C4C4C4" stroke-miterlimit="10"/>
<path d="M51 81.5146C67.8528 81.5146 81.5146 67.8528 81.5146 51C81.5146 34.1472 67.8528 20.4854 51 20.4854C34.1472 20.4854 20.4854 34.1472 20.4854 51C20.4854 67.8528 34.1472 81.5146 51 81.5146Z" stroke="#C4C4C4" stroke-miterlimit="10"/>
<path d="M50.9999 71.4142C62.2744 71.4142 71.4141 62.2745 71.4141 51C71.4141 39.7255 62.2744 30.5858 50.9999 30.5858C39.7255 30.5858 30.5857 39.7255 30.5857 51C30.5857 62.2745 39.7255 71.4142 50.9999 71.4142Z" stroke="#C4C4C4" stroke-miterlimit="10"/>
</g>
<defs>
<clipPath id="clip0">
<rect width="49" height="48" fill="white" transform="translate(26 30)"/>
</clipPath>
<clipPath id="clip1">
<rect width="102" height="102" fill="white"/>
</clipPath>
</defs>
</svg>
