<svg width="104" height="104" viewBox="0 0 104 104" fill="none" xmlns="http://www.w3.org/2000/svg">
<g clip-path="url(#clip0)">
<path fill-rule="evenodd" clip-rule="evenodd" d="M69.6016 67.8C70.0434 67.8 70.4016 67.4418 70.4016 67C70.3904 57.7991 63.6195 50.1264 54.7053 48.803C53.6469 48.6459 52.8016 47.7771 52.8016 46.7072V38.8411C52.8016 37.9265 53.4812 37.1735 54.1577 36.558C55.0006 35.7911 55.4031 34.5958 55.1025 33.4145C54.8189 32.3002 53.9571 31.4266 52.8497 31.1262C52.8215 31.1186 52.8016 31.0931 52.8016 31.0639C52.8016 31.0286 52.7729 31 52.7376 31H51.2655C51.2302 31 51.2016 31.0286 51.2016 31.0639C51.2016 31.0931 51.1815 31.1186 51.1533 31.1263C49.4776 31.5803 48.471 33.2971 48.9008 34.9855C49.0576 35.6019 49.3914 36.1446 49.8458 36.5574C50.5227 37.1724 51.2016 37.9265 51.2016 38.841V46.7072C51.2016 47.7771 50.3562 48.6459 49.2979 48.803C40.3837 50.1264 33.6128 57.7991 33.6016 67C33.6016 67.4418 33.9598 67.8 34.4016 67.8H69.6016ZM50.4016 34.2C50.4016 33.3163 51.1179 32.6 52.0016 32.6C52.8853 32.6 53.6016 33.3163 53.6016 34.2C53.6016 35.0837 52.8853 35.8 52.0016 35.8C51.1179 35.8 50.4016 35.0837 50.4016 34.2ZM52.0016 50.2C60.2554 50.2098 67.1672 56.1777 68.5514 64.1129C68.7478 65.2388 67.8259 66.2 66.683 66.2H37.3202C36.1772 66.2 35.2553 65.2388 35.4517 64.1129C36.8359 56.1777 43.7477 50.2098 52.0016 50.2ZM52.0016 71C51.5597 71 51.2016 70.6418 51.2016 70.2C51.2016 69.7582 51.5597 69.4 52.0016 69.4C52.4434 69.4 52.8016 69.7582 52.8016 70.2C52.8016 70.6418 52.4434 71 52.0016 71ZM52.8016 73.4V78.2C52.8016 78.6418 52.4434 79 52.0016 79C51.5597 79 51.2016 78.6418 51.2016 78.2V73.4C51.2016 72.9581 51.5597 72.6 52.0016 72.6C52.4434 72.6 52.8016 72.9581 52.8016 73.4ZM52.0016 52.6046C52.0016 52.161 52.3633 51.7999 52.8062 51.8256C59.2746 52.2003 64.8156 56.6204 66.6187 62.8439C66.7421 63.2698 66.4705 63.7025 66.0381 63.801C65.6094 63.8987 65.1844 63.6305 65.0596 63.2089C63.4307 57.7032 58.5269 53.7916 52.7969 53.4275C52.3578 53.3996 52.0016 53.0446 52.0016 52.6046ZM69.9859 75.0566L66.5919 71.6626C66.2794 71.3501 65.7729 71.3501 65.4605 71.6626C65.1481 71.975 65.1481 72.4815 65.4605 72.7939L68.8546 76.188C69.167 76.5004 69.6735 76.5004 69.9859 76.188C70.2983 75.8756 70.2983 75.3691 69.9859 75.0566ZM64.3294 69.4008C64.6418 69.7132 64.6418 70.2197 64.3294 70.5321C64.0169 70.8445 63.5104 70.8445 63.198 70.5321C62.8856 70.2197 62.8856 69.7132 63.198 69.4008C63.5104 69.0883 64.0169 69.0883 64.3294 69.4008ZM37.4074 71.6637L34.0133 75.0578C33.7009 75.3702 33.7009 75.8768 34.0133 76.1892C34.3257 76.5016 34.8322 76.5016 35.1446 76.1892L38.5387 72.7951C38.8511 72.4827 38.8511 71.9762 38.5387 71.6637C38.2263 71.3513 37.7198 71.3513 37.4074 71.6637ZM40.8019 69.4006C41.1143 69.713 41.1143 70.2195 40.8019 70.5319C40.4894 70.8444 39.9829 70.8444 39.6705 70.5319C39.3581 70.2195 39.3581 69.713 39.6705 69.4006C39.9829 69.0882 40.4894 69.0882 40.8019 69.4006Z" fill="#ADB7D0"/>
<path d="M70.4016 67H70.6516V66.9997L70.4016 67ZM54.7053 48.803L54.742 48.5557L54.7053 48.803ZM54.1577 36.558L54.3259 36.7429L54.1577 36.558ZM55.1025 33.4145L55.3447 33.3528V33.3528L55.1025 33.4145ZM52.8497 31.1262L52.9151 30.885V30.885L52.8497 31.1262ZM51.1533 31.1263L51.2187 31.3676V31.3676L51.1533 31.1263ZM48.9008 34.9855L49.143 34.9238L49.143 34.9238L48.9008 34.9855ZM49.8458 36.5574L50.0139 36.3724V36.3724L49.8458 36.5574ZM49.2979 48.803L49.3346 49.0503L49.2979 48.803ZM33.6016 67L33.3516 66.9997V67H33.6016ZM68.5514 64.1129L68.3051 64.1559L68.5514 64.1129ZM52.0016 50.2L52.0019 49.95H52.0013L52.0016 50.2ZM35.4517 64.1129L35.698 64.1559H35.698L35.4517 64.1129ZM52.8062 51.8256L52.8206 51.576L52.8062 51.8256ZM66.6187 62.8439L66.8588 62.7743L66.6187 62.8439ZM66.0381 63.801L65.9826 63.5573H65.9826L66.0381 63.801ZM65.0596 63.2089L65.2994 63.1379L65.0596 63.2089ZM52.7969 53.4275L52.781 53.677H52.781L52.7969 53.4275ZM66.5919 71.6626L66.4151 71.8393L66.5919 71.6626ZM69.9859 75.0566L70.1627 74.8799L69.9859 75.0566ZM65.4605 71.6626L65.2837 71.4858L65.4605 71.6626ZM65.4605 72.7939L65.6373 72.6171L65.4605 72.7939ZM68.8546 76.188L69.0313 76.0112L68.8546 76.188ZM64.3294 70.5321L64.1526 70.3553H64.1526L64.3294 70.5321ZM64.3294 69.4008L64.5061 69.224H64.5061L64.3294 69.4008ZM63.198 70.5321L63.3748 70.3553H63.3748L63.198 70.5321ZM63.198 69.4008L63.0212 69.224H63.0212L63.198 69.4008ZM34.0133 75.0578L34.1901 75.2346H34.1901L34.0133 75.0578ZM37.4074 71.6637L37.2306 71.487L37.4074 71.6637ZM34.0133 76.1892L34.1901 76.0124L34.0133 76.1892ZM35.1446 76.1892L34.9679 76.0124H34.9679L35.1446 76.1892ZM38.5387 72.7951L38.362 72.6183H38.362L38.5387 72.7951ZM40.8019 70.5319L40.6251 70.3552L40.8019 70.5319ZM39.6705 70.5319L39.4937 70.7087L39.6705 70.5319ZM39.6705 69.4006L39.8473 69.5774L39.6705 69.4006ZM70.1516 67C70.1516 67.3037 69.9053 67.55 69.6016 67.55V68.05C70.1814 68.05 70.6516 67.5799 70.6516 67H70.1516ZM54.6685 49.0503C63.4615 50.3557 70.1405 57.9244 70.1516 67.0003L70.6516 66.9997C70.6402 57.6738 63.7774 49.8971 54.742 48.5557L54.6685 49.0503ZM52.5516 46.7072C52.5516 47.9165 53.5037 48.8774 54.6685 49.0503L54.742 48.5557C53.7902 48.4144 53.0516 47.6377 53.0516 46.7072H52.5516ZM52.5516 38.8411V46.7072H53.0516V38.8411H52.5516ZM53.9895 36.3731C53.3169 36.985 52.5516 37.8054 52.5516 38.8411H53.0516C53.0516 38.0477 53.6455 37.362 54.3259 36.7429L53.9895 36.3731ZM54.8602 33.4762C55.1372 34.5644 54.7667 35.6659 53.9895 36.3731L54.3259 36.7429C55.2345 35.9163 55.6691 34.6273 55.3447 33.3528L54.8602 33.4762ZM52.7842 31.3675C53.8047 31.6443 54.5988 32.4493 54.8602 33.4762L55.3447 33.3528C55.0389 32.151 54.1094 31.2089 52.9151 30.885L52.7842 31.3675ZM52.5516 31.0639C52.5516 31.2086 52.6496 31.331 52.7842 31.3675L52.9151 30.885C52.9933 30.9062 53.0516 30.9777 53.0516 31.0639H52.5516ZM52.7376 31.25C52.6349 31.25 52.5516 31.1667 52.5516 31.0639H53.0516C53.0516 30.8905 52.911 30.75 52.7376 30.75V31.25ZM51.2655 31.25H52.7376V30.75H51.2655V31.25ZM51.4516 31.0639C51.4516 31.1667 51.3682 31.25 51.2655 31.25V30.75C51.0921 30.75 50.9516 30.8905 50.9516 31.0639H51.4516ZM51.2187 31.3676C51.3528 31.3313 51.4516 31.2092 51.4516 31.0639H50.9516C50.9516 30.9771 51.0103 30.906 51.0879 30.885L51.2187 31.3676ZM49.143 34.9238C48.747 33.368 49.6746 31.786 51.2187 31.3676L51.0879 30.885C49.2806 31.3747 48.195 33.2262 48.6585 35.0472L49.143 34.9238ZM50.0139 36.3724C49.5951 35.9919 49.2876 35.4918 49.143 34.9238L48.6585 35.0472C48.8277 35.712 49.1877 36.2973 49.6777 36.7425L50.0139 36.3724ZM51.4516 38.841C51.4516 37.8055 50.6873 36.9841 50.0139 36.3724L49.6777 36.7425C50.3582 37.3606 50.9516 38.0475 50.9516 38.841H51.4516ZM51.4516 46.7072V38.841H50.9516V46.7072H51.4516ZM49.3346 49.0503C50.4995 48.8774 51.4516 47.9165 51.4516 46.7072H50.9516C50.9516 47.6377 50.2129 48.4144 49.2612 48.5557L49.3346 49.0503ZM33.8516 67.0003C33.8626 57.9244 40.5416 50.3557 49.3346 49.0503L49.2612 48.5557C40.2258 49.8971 33.3629 57.6738 33.3516 66.9997L33.8516 67.0003ZM34.4016 67.55C34.0978 67.55 33.8516 67.3037 33.8516 67H33.3516C33.3516 67.5799 33.8217 68.05 34.4016 68.05V67.55ZM69.6016 67.55H34.4016V68.05H69.6016V67.55ZM52.0016 32.35C50.9798 32.35 50.1516 33.1782 50.1516 34.2H50.6516C50.6516 33.4544 51.2559 32.85 52.0016 32.85V32.35ZM53.8516 34.2C53.8516 33.1782 53.0233 32.35 52.0016 32.35V32.85C52.7472 32.85 53.3516 33.4544 53.3516 34.2H53.8516ZM52.0016 36.05C53.0233 36.05 53.8516 35.2218 53.8516 34.2H53.3516C53.3516 34.9456 52.7472 35.55 52.0016 35.55V36.05ZM50.1516 34.2C50.1516 35.2218 50.9798 36.05 52.0016 36.05V35.55C51.2559 35.55 50.6516 34.9456 50.6516 34.2H50.1516ZM68.7977 64.07C67.3929 56.0165 60.3785 49.9599 52.0019 49.95L52.0013 50.45C60.1323 50.4596 66.9415 56.3388 68.3051 64.1559L68.7977 64.07ZM66.683 66.45C67.9589 66.45 69.0245 65.37 68.7977 64.07L68.3051 64.1559C68.4712 65.1077 67.6929 65.95 66.683 65.95V66.45ZM37.3202 66.45H66.683V65.95H37.3202V66.45ZM35.2054 64.07C34.9787 65.37 36.0442 66.45 37.3202 66.45V65.95C36.3102 65.95 35.532 65.1077 35.698 64.1559L35.2054 64.07ZM52.0013 49.95C43.6246 49.9599 36.6103 56.0165 35.2054 64.07L35.698 64.1559C37.0616 56.3388 43.8709 50.4596 52.0019 50.45L52.0013 49.95ZM50.9516 70.2C50.9516 70.7799 51.4217 71.25 52.0016 71.25V70.75C51.6978 70.75 51.4516 70.5038 51.4516 70.2H50.9516ZM52.0016 69.15C51.4217 69.15 50.9516 69.6201 50.9516 70.2H51.4516C51.4516 69.8962 51.6978 69.65 52.0016 69.65V69.15ZM53.0516 70.2C53.0516 69.6201 52.5815 69.15 52.0016 69.15V69.65C52.3053 69.65 52.5516 69.8962 52.5516 70.2H53.0516ZM52.0016 71.25C52.5815 71.25 53.0516 70.7799 53.0516 70.2H52.5516C52.5516 70.5038 52.3053 70.75 52.0016 70.75V71.25ZM53.0516 78.2V73.4H52.5516V78.2H53.0516ZM52.0016 79.25C52.5815 79.25 53.0516 78.7799 53.0516 78.2H52.5516C52.5516 78.5037 52.3053 78.75 52.0016 78.75V79.25ZM50.9516 78.2C50.9516 78.7799 51.4217 79.25 52.0016 79.25V78.75C51.6978 78.75 51.4516 78.5037 51.4516 78.2H50.9516ZM50.9516 73.4V78.2H51.4516V73.4H50.9516ZM52.0016 72.35C51.4217 72.35 50.9516 72.8201 50.9516 73.4H51.4516C51.4516 73.0962 51.6978 72.85 52.0016 72.85V72.35ZM53.0516 73.4C53.0516 72.8201 52.5815 72.35 52.0016 72.35V72.85C52.3053 72.85 52.5516 73.0962 52.5516 73.4H53.0516ZM52.8206 51.576C52.2257 51.5415 51.7516 52.0258 51.7516 52.6046H52.2516C52.2516 52.2961 52.5008 52.0583 52.7917 52.0751L52.8206 51.576ZM66.8588 62.7743C65.0263 56.4491 59.3948 51.9569 52.8206 51.576L52.7917 52.0751C59.1543 52.4438 64.605 56.7918 66.3786 62.9134L66.8588 62.7743ZM66.0936 64.0448C66.6578 63.9163 67.0246 63.3465 66.8588 62.7743L66.3786 62.9134C66.4596 63.1932 66.2832 63.4888 65.9826 63.5573L66.0936 64.0448ZM64.8199 63.2798C64.9794 63.8189 65.5273 64.1738 66.0936 64.0448L65.9826 63.5573C65.6914 63.6236 65.3894 63.4422 65.2994 63.1379L64.8199 63.2798ZM52.781 53.677C58.4063 54.0345 63.2208 57.8747 64.8199 63.2798L65.2994 63.1379C63.6407 57.5316 58.6475 53.5488 52.8127 53.178L52.781 53.677ZM51.7516 52.6046C51.7516 53.1858 52.2197 53.6413 52.781 53.677L52.8127 53.178C52.4959 53.1579 52.2516 52.9035 52.2516 52.6046H51.7516ZM66.4151 71.8393L69.8092 75.2334L70.1627 74.8799L66.7686 71.4858L66.4151 71.8393ZM65.6373 71.8393C65.8521 71.6245 66.2003 71.6245 66.4151 71.8393L66.7686 71.4858C66.3586 71.0757 65.6938 71.0757 65.2837 71.4858L65.6373 71.8393ZM65.6373 72.6171C65.4225 72.4024 65.4225 72.0541 65.6373 71.8393L65.2837 71.4858C64.8737 71.8958 64.8737 72.5607 65.2837 72.9707L65.6373 72.6171ZM69.0313 76.0112L65.6373 72.6171L65.2837 72.9707L68.6778 76.3648L69.0313 76.0112ZM69.8092 76.0112C69.5944 76.226 69.2461 76.226 69.0313 76.0112L68.6778 76.3648C69.0878 76.7748 69.7527 76.7748 70.1627 76.3648L69.8092 76.0112ZM69.8092 75.2334C70.0239 75.4482 70.0239 75.7964 69.8092 76.0112L70.1627 76.3648C70.5728 75.9547 70.5728 75.2899 70.1627 74.8799L69.8092 75.2334ZM64.5061 70.7089C64.9162 70.2988 64.9162 69.634 64.5061 69.224L64.1526 69.5775C64.3674 69.7923 64.3674 70.1406 64.1526 70.3553L64.5061 70.7089ZM63.0212 70.7089C63.4313 71.1189 64.0961 71.1189 64.5061 70.7089L64.1526 70.3553C63.9378 70.5701 63.5896 70.5701 63.3748 70.3553L63.0212 70.7089ZM63.0212 69.224C62.6112 69.634 62.6112 70.2988 63.0212 70.7089L63.3748 70.3553C63.16 70.1406 63.16 69.7923 63.3748 69.5775L63.0212 69.224ZM64.5061 69.224C64.0961 68.8139 63.4313 68.8139 63.0212 69.224L63.3748 69.5775C63.5896 69.3627 63.9378 69.3627 64.1526 69.5775L64.5061 69.224ZM34.1901 75.2346L37.5841 71.8405L37.2306 71.487L33.8365 74.881L34.1901 75.2346ZM34.1901 76.0124C33.9753 75.7976 33.9753 75.4494 34.1901 75.2346L33.8365 74.881C33.4265 75.2911 33.4265 75.9559 33.8365 76.366L34.1901 76.0124ZM34.9679 76.0124C34.7531 76.2272 34.4049 76.2272 34.1901 76.0124L33.8365 76.366C34.2466 76.776 34.9114 76.776 35.3214 76.366L34.9679 76.0124ZM38.362 72.6183L34.9679 76.0124L35.3214 76.366L38.7155 72.9719L38.362 72.6183ZM38.362 71.8405C38.5767 72.0553 38.5767 72.4035 38.362 72.6183L38.7155 72.9719C39.1256 72.5618 39.1256 71.897 38.7155 71.487L38.362 71.8405ZM37.5841 71.8405C37.7989 71.6257 38.1472 71.6257 38.362 71.8405L38.7155 71.487C38.3055 71.0769 37.6406 71.0769 37.2306 71.487L37.5841 71.8405ZM40.9786 70.7087C41.3887 70.2987 41.3887 69.6339 40.9786 69.2238L40.6251 69.5774C40.8399 69.7921 40.8399 70.1404 40.6251 70.3552L40.9786 70.7087ZM39.4937 70.7087C39.9038 71.1188 40.5686 71.1188 40.9786 70.7087L40.6251 70.3552C40.4103 70.57 40.0621 70.57 39.8473 70.3552L39.4937 70.7087ZM39.4937 69.2238C39.0837 69.6339 39.0837 70.2987 39.4937 70.7087L39.8473 70.3552C39.6325 70.1404 39.6325 69.7921 39.8473 69.5774L39.4937 69.2238ZM40.9786 69.2238C40.5686 68.8138 39.9038 68.8138 39.4937 69.2238L39.8473 69.5774C40.0621 69.3626 40.4103 69.3626 40.6251 69.5774L40.9786 69.2238Z" fill="#ADB7D0"/>
</g>
<g opacity="0.2">
<path d="M52.0001 102.644C79.9702 102.644 102.644 79.9701 102.644 52C102.644 24.0299 79.9702 1.35565 52.0001 1.35565C24.03 1.35565 1.35571 24.0299 1.35571 52C1.35571 79.9701 24.03 102.644 52.0001 102.644Z" stroke="#C4C4C4" stroke-miterlimit="10"/>
<path d="M52 92.5439C74.3918 92.5439 92.5439 74.3918 92.5439 52C92.5439 29.6082 74.3918 11.4561 52 11.4561C29.6082 11.4561 11.4561 29.6082 11.4561 52C11.4561 74.3918 29.6082 92.5439 52 92.5439Z" stroke="#C4C4C4" stroke-miterlimit="10"/>
<path d="M52 82.5146C68.8528 82.5146 82.5146 68.8528 82.5146 52C82.5146 35.1472 68.8528 21.4854 52 21.4854C35.1472 21.4854 21.4854 35.1472 21.4854 52C21.4854 68.8528 35.1472 82.5146 52 82.5146Z" stroke="#C4C4C4" stroke-miterlimit="10"/>
<path d="M51.9999 72.4142C63.2744 72.4142 72.4141 63.2745 72.4141 52C72.4141 40.7255 63.2744 31.5858 51.9999 31.5858C40.7255 31.5858 31.5857 40.7255 31.5857 52C31.5857 63.2745 40.7255 72.4142 51.9999 72.4142Z" stroke="#C4C4C4" stroke-miterlimit="10"/>
</g>
<defs>
<clipPath id="clip0">
<rect width="48" height="48" fill="white" transform="translate(28 31)"/>
</clipPath>
</defs>
</svg>
