<svg width="180" height="56" viewBox="0 0 180 56" fill="none" xmlns="http://www.w3.org/2000/svg">
<g opacity="0.2" clip-path="url(#clip0)">
<path d="M16.91 10.61C15.42 8.11001 12.26 7.38001 9.85 7.38001C8.37 7.38001 6.39 7.88001 6.39 9.30001C6.39 10.41 7.39 10.78 11.44 11.87C14.77 12.76 17.63 14.7 17.63 19.05C17.63 23.96 13.45 26.83 8.8 26.83C5.93152 26.8843 3.12335 26.0032 0.8 24.32V17.73C2.18 20.01 5.8 21.23 8.22 21.23C9.53 21.23 11.64 20.96 11.64 19.31C11.64 18.31 11.12 18 6.64 16.71C1.91 15.36 0 13.12 0 9.49001C0 4.28001 4.12 1.19001 9.19 1.19001C11.9381 1.11529 14.6397 1.90967 16.91 3.46001V10.61Z" fill="#ADB7D0"/>
<path d="M35.5601 13.84C34.9683 13.1007 34.2159 12.5057 33.36 12.1003C32.5041 11.6949 31.5671 11.4896 30.6201 11.5C27.5201 11.5 26.0001 13.18 26.0001 16.41C26.0001 18.79 27.2201 21 30.4201 21C32.6901 21 34.2101 19.91 35.5601 18.06V23.9C34.7616 24.869 33.7463 25.6364 32.5963 26.1402C31.4462 26.644 30.1937 26.87 28.9401 26.8C22.3101 26.8 19.6101 21.69 19.6101 15.92C19.6101 9.43 22.7101 5.08 29.5001 5.08C30.6199 5.02843 31.738 5.21277 32.782 5.62105C33.8259 6.02933 34.7724 6.65245 35.5601 7.45V13.84Z" fill="#ADB7D0"/>
<path d="M38.6699 0.72998H45.2599V9.38998H45.3199C45.6824 8.09954 46.4749 6.97168 47.5661 6.19329C48.6574 5.41489 49.9818 5.03268 51.3199 5.10998C54.6199 5.10998 56.9999 6.99998 56.9999 10.74V26.24H50.3699V14.34C50.3699 12.52 50.0099 11.34 48.0599 11.34C45.6899 11.34 45.2599 13.34 45.2599 15.62V26.24H38.6699V0.72998Z" fill="#ADB7D0"/>
<path d="M60.3999 5.70003H66.5999V11H66.6599C67.1299 8.26003 68.3799 5.10003 71.7399 5.10003C72.6912 5.0841 73.6309 5.31128 74.4699 5.76003V13.47C74.0853 12.9482 73.5767 12.5304 72.99 12.2545C72.4033 11.9786 71.7572 11.8534 71.1099 11.89C68.4099 11.89 66.9899 14.23 66.9899 17.2V26.2H60.3999V5.70003Z" fill="#ADB7D0"/>
<path d="M89.8601 13.55C89.6901 11.47 87.9401 10.55 85.8601 10.55C84.9752 10.505 84.1045 10.7852 83.4119 11.3378C82.7193 11.8904 82.2527 12.6772 82.1001 13.55H89.8601ZM85.2701 0H91.8301L91.6001 0.26L86.1301 3.76H81.3501L85.2701 0ZM93.1201 24C91.7001 25.78 88.7401 26.87 86.1201 26.87C79.1201 26.87 76.1201 22.87 76.1201 16.16C76.1201 9.45 78.7301 5.16 86.0101 5.16C91.7101 5.16 94.2801 8.98 94.2801 14.62C94.2693 15.8051 94.1757 16.988 94.0001 18.16H82.0001C82.4601 20.67 84.4701 22.02 87.1801 22.02C88.3308 22.0616 89.474 21.8188 90.5084 21.3129C91.5428 20.807 92.4364 20.0538 93.1101 19.12L93.1201 24Z" fill="#ADB7D0"/>
<path d="M102.68 15.82C102.68 18.52 103.24 21.03 105.94 21.03C108.64 21.03 109.34 19.03 109.34 16.25C109.34 13.47 108.71 11.31 105.88 11.31C103.31 11.31 102.68 13.91 102.68 15.82ZM109.37 23H109.31C108.25 25.11 106.77 26.82 103.37 26.82C100.57 26.82 96.29 24.64 96.29 15.88C96.29 11.46 97.44 5.09998 103.37 5.09998C106.93 5.09998 107.86 6.57998 108.91 9.27998H109V0.72998H115.39V26.24H109.39L109.37 23Z" fill="#ADB7D0"/>
<path d="M131.75 13.55C131.59 11.47 129.84 10.55 127.75 10.55C126.866 10.5054 125.997 10.7859 125.306 11.3387C124.615 11.8914 124.15 12.6781 124 13.55H131.75ZM135 24C133.58 25.78 130.61 26.87 128 26.87C120.94 26.87 118 22.87 118 16.16C118 9.45003 120.6 5.16003 127.89 5.16003C133.59 5.16003 136.16 8.98003 136.16 14.62C136.163 15.8205 136.086 17.0198 135.93 18.21H123.93C124.39 20.72 126.4 22.07 129.1 22.07C130.252 22.1133 131.398 21.8713 132.434 21.3653C133.47 20.8594 134.365 20.1053 135.04 19.17L135 24Z" fill="#ADB7D0"/>
<path d="M138.82 5.70002H145V11H145.07C145.53 8.26002 146.78 5.10002 150.14 5.10002C151.094 5.08547 152.037 5.31251 152.88 5.76002V13.47C152.494 12.9495 151.985 12.5327 151.399 12.257C150.813 11.9813 150.167 11.8552 149.52 11.89C146.81 11.89 145.4 14.23 145.4 17.2V26.2H138.8L138.82 5.70002Z" fill="#ADB7D0"/>
<path d="M8.55004 38.4399H1.70004V44.1899H8.29004V45.0599H1.70004V50.8999H8.70004V51.7499H0.790039V37.5699H8.55004V38.4399Z" fill="#ADB7D0"/>
<path d="M17.08 41.54H18.13L14.63 46.54L18.33 51.79H17.27L14.12 47.23L11 51.75H10L13.67 46.5L10.2 41.5H11.2L14.14 45.81L17.08 41.54Z" fill="#ADB7D0"/>
<path d="M28.3499 47C28.4319 48.2924 28.1104 49.5783 27.4299 50.68C27.0911 51.1088 26.6523 51.4479 26.1519 51.6676C25.6515 51.8873 25.1049 51.9808 24.5599 51.94C23.7526 51.9661 22.9588 51.7273 22.2999 51.26C21.7003 50.8187 21.2669 50.188 21.0699 49.47C21.0699 49.84 21.0699 50.22 21.0699 50.6C21.0699 50.98 21.0699 51.38 21.0699 51.78V55.86H20.1899V41.54H20.9999V43.87C21.2324 43.1397 21.6956 42.5045 22.3199 42.06C22.9912 41.6048 23.7893 41.3737 24.5999 41.4C25.1452 41.352 25.6937 41.4434 26.194 41.6655C26.6943 41.8877 27.1299 42.2333 27.4599 42.67C28.1036 43.7669 28.4065 45.0305 28.3299 46.3L28.3499 47ZM27.4599 46.33C27.4674 45.7493 27.4138 45.1695 27.2999 44.6C27.2185 44.1417 27.0487 43.7035 26.7999 43.31C26.5741 42.9688 26.2595 42.6957 25.8899 42.52C25.4556 42.317 24.979 42.2209 24.4999 42.24C24.0023 42.2292 23.5091 42.3354 23.0599 42.55C22.6439 42.7408 22.2726 43.0167 21.9699 43.36C21.676 43.7014 21.4487 44.0948 21.2999 44.52C21.1428 44.9629 21.0649 45.4301 21.0699 45.9V47.2C21.0634 47.7158 21.1411 48.2292 21.2999 48.72C21.4605 49.1643 21.6974 49.5772 21.9999 49.94C22.293 50.2953 22.6576 50.5849 23.0699 50.79C23.5108 50.9966 23.9932 51.0993 24.4799 51.09C24.9236 51.1239 25.3683 51.0411 25.7701 50.8499C26.1718 50.6587 26.5165 50.3657 26.7699 50C27.2752 49.0839 27.5142 48.0448 27.4599 47V46.33Z" fill="#ADB7D0"/>
<path d="M31.25 47.34C31.2602 47.8676 31.3375 48.3918 31.48 48.9C31.597 49.3383 31.8049 49.7471 32.09 50.1C32.3718 50.4429 32.7367 50.708 33.15 50.87C33.6507 51.0612 34.184 51.153 34.72 51.14C35.2338 51.1591 35.7481 51.112 36.25 51C36.6873 50.8842 37.1126 50.7268 37.52 50.53L37.73 51.25C37.3134 51.4676 36.874 51.6387 36.42 51.76C35.864 51.8982 35.2928 51.9654 34.72 51.96C34.0357 51.9781 33.3549 51.8556 32.72 51.6C32.1936 51.3844 31.7295 51.0407 31.37 50.6C30.994 50.1327 30.7305 49.5853 30.6 49C30.4338 48.3465 30.3532 47.6742 30.36 47V46.33C30.352 45.6568 30.4259 44.9853 30.58 44.33C30.7065 43.7684 30.9445 43.2379 31.28 42.77C31.611 42.3378 32.0439 41.9943 32.54 41.77C33.1353 41.5232 33.7757 41.4039 34.42 41.42C35.067 41.3935 35.7103 41.5311 36.29 41.82C36.7502 42.0765 37.1387 42.4444 37.42 42.89C37.7024 43.3488 37.8927 43.8583 37.98 44.39C38.0804 44.9578 38.1305 45.5333 38.13 46.11V47.36L31.25 47.34ZM31.25 46.6H37.25V46.09C37.2493 45.5913 37.2125 45.0933 37.14 44.6C37.0715 44.1626 36.9295 43.7399 36.72 43.35C36.5121 42.9906 36.2117 42.6936 35.85 42.49C35.3921 42.2585 34.8825 42.1483 34.37 42.17C33.8469 42.1517 33.3268 42.2543 32.85 42.47C32.4447 42.6558 32.0986 42.9499 31.85 43.32C31.5896 43.7132 31.4126 44.1556 31.33 44.62C31.2169 45.1727 31.1633 45.7359 31.17 46.3L31.25 46.6Z" fill="#ADB7D0"/>
<path d="M45.44 42.3801H45.24C44.7164 42.3697 44.196 42.4649 43.71 42.6601C43.2726 42.838 42.8848 43.1194 42.58 43.4801C42.2589 43.8466 42.0172 44.2756 41.87 44.7401C41.7049 45.264 41.6239 45.8108 41.63 46.3601V51.7501H40.75V41.5401H41.54V44.1501C41.7272 43.3917 42.1552 42.7145 42.76 42.2201C43.4515 41.6887 44.3089 41.4195 45.18 41.4601H45.4L45.44 42.3801Z" fill="#ADB7D0"/>
<path d="M46 41.54H48L48.14 38H48.83V41.59H52.24V42.36H48.83V48.74C48.8294 49.1012 48.8527 49.462 48.9 49.82C48.9342 50.0852 49.0301 50.3386 49.18 50.56C49.3164 50.7613 49.5121 50.9151 49.74 51C50.0313 51.1055 50.3404 51.153 50.65 51.14C50.9556 51.1408 51.2605 51.1106 51.56 51.05C51.8442 50.9939 52.1221 50.9102 52.39 50.8L52.59 51.55C52.2939 51.6654 51.9898 51.759 51.68 51.83C51.3215 51.9043 50.9562 51.9412 50.59 51.94C50.1449 51.9523 49.7012 51.8845 49.28 51.74C48.9599 51.6183 48.6821 51.4064 48.48 51.13C48.2634 50.8353 48.1226 50.4919 48.07 50.13C47.9998 49.6736 47.9763 49.2112 48 48.75V42.31H46V41.54Z" fill="#ADB7D0"/>
<path d="M56.7799 51.12C57.4524 51.1422 58.1197 50.9943 58.7199 50.69C58.9682 50.5429 59.1702 50.329 59.3028 50.0726C59.4355 49.8162 59.4933 49.5277 59.4699 49.24C59.4796 48.9419 59.425 48.6452 59.3099 48.37C59.1999 48.1263 59.0316 47.9134 58.8199 47.75C58.5749 47.5538 58.3019 47.3953 58.0099 47.28C57.6899 47.14 57.3299 47 56.9199 46.85C56.5099 46.7 56.0499 46.54 55.6499 46.39C55.294 46.2428 54.958 46.0512 54.6499 45.82C54.3654 45.6004 54.1331 45.3203 53.9699 45C53.7878 44.62 53.702 44.201 53.7199 43.78C53.6924 43.4379 53.7533 43.0945 53.8969 42.7827C54.0405 42.471 54.262 42.2014 54.5399 42C55.2832 41.5628 56.1388 41.3541 56.9999 41.4C57.5485 41.3945 58.0958 41.4549 58.6299 41.58C59.0965 41.6852 59.5545 41.8256 59.9999 42L59.8199 42.77C59.4132 42.5928 58.9916 42.4522 58.5599 42.35C58.0486 42.2319 57.5245 42.1782 56.9999 42.19C56.3693 42.154 55.7398 42.2778 55.1699 42.55C54.9625 42.6773 54.7947 42.8597 54.6852 43.077C54.5757 43.2942 54.5288 43.5377 54.5499 43.78C54.5416 44.0823 54.6104 44.3817 54.7499 44.65C54.894 44.8978 55.0923 45.1098 55.3299 45.27C55.5934 45.4522 55.879 45.6001 56.1799 45.71C56.5099 45.84 56.8599 45.97 57.1799 46.09C57.7199 46.2767 58.1799 46.4567 58.5599 46.63C58.9276 46.7707 59.2665 46.9775 59.5599 47.24C59.8089 47.4672 60.0037 47.7475 60.1299 48.06C60.2718 48.4368 60.3398 48.8375 60.3299 49.24C60.3393 49.6614 60.2503 50.0791 60.0699 50.46C59.9068 50.792 59.6626 51.0775 59.3599 51.29C59.024 51.5085 58.6513 51.6643 58.2599 51.75C57.786 51.8463 57.3034 51.8932 56.8199 51.89C56.2361 51.8933 55.6533 51.8397 55.0799 51.73C54.5863 51.6404 54.1059 51.4892 53.6499 51.28L53.8399 50.48C54.264 50.6841 54.7103 50.8384 55.1699 50.94C55.6975 51.0636 56.238 51.124 56.7799 51.12Z" fill="#ADB7D0"/>
<path d="M68.3101 38.27C68.412 38.2567 68.5156 38.2689 68.6116 38.3056C68.7076 38.3422 68.793 38.4022 68.8601 38.48C68.9695 38.63 69.0194 38.8153 69.0001 39C69.0044 39.1753 68.9518 39.3472 68.8501 39.49C68.7809 39.5647 68.6949 39.6218 68.5993 39.6565C68.5036 39.6913 68.4011 39.7028 68.3001 39.69C68.1992 39.702 68.0968 39.6901 68.0013 39.6554C67.9058 39.6207 67.8197 39.564 67.7501 39.49C67.6519 39.346 67.6028 39.1741 67.6101 39C67.6028 38.8321 67.6521 38.6666 67.7501 38.53C67.8133 38.4422 67.898 38.3722 67.9961 38.3267C68.0941 38.2812 68.2023 38.2616 68.3101 38.27ZM68.7601 51.75H67.8601V41.54H68.7601V51.75Z" fill="#ADB7D0"/>
<path d="M78.8701 45.36C78.9243 44.5399 78.7439 43.7214 78.3501 43C78.1093 42.7122 77.7998 42.4898 77.4501 42.3535C77.1005 42.2171 76.7222 42.1712 76.3501 42.22C75.8291 42.2139 75.3122 42.3125 74.8301 42.51C74.4007 42.6929 74.0154 42.9657 73.7001 43.31C73.3862 43.6648 73.148 44.0799 73.0001 44.53C72.8275 45.0351 72.7429 45.5662 72.7501 46.1V51.74H71.8701V41.54H72.6701V43.97C72.8738 43.2068 73.3461 42.5428 74.0001 42.1C74.7103 41.6121 75.5591 41.3666 76.4201 41.4C76.948 41.3842 77.474 41.469 77.9701 41.65C78.3631 41.8085 78.7079 42.0671 78.9701 42.4C79.2468 42.7514 79.4385 43.1621 79.5301 43.6C79.6575 44.1439 79.7179 44.7014 79.7101 45.26V51.75H78.8301L78.8701 45.36Z" fill="#ADB7D0"/>
<path d="M88.8099 51.75H87.9299V37.46H88.8099V51.75Z" fill="#ADB7D0"/>
<path d="M92.4001 38.27C92.5035 38.2567 92.6085 38.2689 92.7061 38.3055C92.8037 38.3421 92.8909 38.402 92.9601 38.48C93.0536 38.6187 93.1024 38.7827 93.1001 38.95C93.1027 39.1235 93.054 39.294 92.9601 39.44C92.8889 39.5148 92.8011 39.5719 92.7039 39.6066C92.6066 39.6413 92.5026 39.6528 92.4001 39.64C92.2991 39.6519 92.1968 39.6401 92.1013 39.6054C92.0058 39.5706 91.9197 39.514 91.8501 39.44C91.7561 39.294 91.7074 39.1235 91.7101 38.95C91.7077 38.7827 91.7565 38.6187 91.8501 38.48C91.9177 38.4028 92.0032 38.3434 92.099 38.3068C92.1949 38.2702 92.2982 38.2575 92.4001 38.27ZM92.8501 51.75H92.0001V41.54H92.9001L92.8501 51.75Z" fill="#ADB7D0"/>
<path d="M103.9 41.54V42.23H101.84C102.302 42.412 102.687 42.7475 102.93 43.18C103.197 43.688 103.328 44.2564 103.31 44.83V45C103.357 45.4706 103.298 45.9459 103.137 46.3907C102.976 46.8355 102.718 47.2385 102.38 47.57C101.536 48.1567 100.515 48.4323 99.49 48.35C99.082 48.3512 98.6744 48.3245 98.27 48.27C97.9211 48.226 97.5826 48.1211 97.27 47.96L96.27 49.23C96.2841 49.431 96.3448 49.6259 96.4472 49.7995C96.5496 49.973 96.6909 50.1204 96.86 50.23C97.2066 50.4173 97.5962 50.5104 97.99 50.5H100.07C101.018 50.4121 101.968 50.6521 102.76 51.18C103.032 51.4336 103.243 51.745 103.378 52.0912C103.513 52.4374 103.568 52.8095 103.54 53.18C103.54 55.06 102.2 55.99 99.54 55.99C98.9507 55.9964 98.362 55.9529 97.78 55.86C97.3111 55.7926 96.8576 55.6437 96.44 55.42C96.0868 55.2334 95.795 54.9486 95.6 54.6C95.3994 54.1969 95.3031 53.7499 95.32 53.3C95.3152 53.0211 95.3592 52.7436 95.45 52.48C95.5315 52.2531 95.6424 52.0379 95.78 51.84C95.9185 51.6631 96.0762 51.5022 96.25 51.36C96.4188 51.2318 96.5958 51.1149 96.78 51.01C96.4507 50.8852 96.1654 50.6661 95.96 50.38C95.674 50.0293 95.4998 49.6008 95.46 49.15L96.62 47.62C96.2764 47.3348 96.0113 46.9664 95.85 46.55C95.6888 46.0501 95.6277 45.5234 95.67 45V44.84C95.6268 44.375 95.6869 43.9061 95.8459 43.4671C96.0049 43.028 96.259 42.6294 96.59 42.3C97.4329 41.702 98.4603 41.4221 99.49 41.51L103.9 41.54ZM96.22 53.3C96.1961 53.6088 96.2652 53.9177 96.4185 54.1868C96.5718 54.456 96.8022 54.673 97.08 54.81C97.8806 55.1407 98.7451 55.2877 99.61 55.24C100.441 55.2976 101.271 55.1245 102.01 54.74C102.264 54.5704 102.469 54.3369 102.604 54.0631C102.739 53.7893 102.8 53.4847 102.78 53.18C102.806 52.9092 102.764 52.6362 102.66 52.3851C102.555 52.134 102.39 51.9125 102.18 51.74C101.571 51.3995 100.875 51.2464 100.18 51.3H97.67C97.2662 51.4696 96.9044 51.7256 96.61 52.05C96.332 52.4052 96.1933 52.8497 96.22 53.3ZM99.49 47.6C100.297 47.6713 101.104 47.4668 101.78 47.02C102.035 46.7581 102.23 46.443 102.349 46.0972C102.468 45.7515 102.51 45.3836 102.47 45.02V44.86C102.504 44.5034 102.459 44.1437 102.338 43.8066C102.217 43.4695 102.023 43.1633 101.77 42.91C101.104 42.448 100.298 42.2323 99.49 42.3C98.6833 42.2318 97.877 42.436 97.2 42.88C96.9429 43.1406 96.7474 43.4555 96.628 43.8016C96.5086 44.1478 96.4683 44.5162 96.51 44.88V45C96.4704 45.3636 96.5118 45.7315 96.631 46.0772C96.7503 46.423 96.9446 46.7381 97.2 47C97.8726 47.4553 98.6806 47.667 99.49 47.6Z" fill="#ADB7D0"/>
<path d="M113.13 45.36C113.126 44.9037 113.083 44.4486 113 44C112.943 43.6409 112.807 43.2992 112.6 43C112.402 42.7352 112.131 42.5338 111.82 42.42C111.43 42.2773 111.016 42.2094 110.6 42.22C110.079 42.2108 109.561 42.3095 109.08 42.51C108.648 42.6928 108.259 42.9655 107.94 43.31C107.62 43.6618 107.378 44.0776 107.23 44.53C107.057 45.0351 106.973 45.5662 106.98 46.1V51.74H106.1V37.46H107V41.46L106.94 44C107.12 43.2394 107.576 42.5729 108.22 42.13C108.939 41.6438 109.793 41.3986 110.66 41.43C111.14 41.3756 111.627 41.4382 112.078 41.6123C112.529 41.7864 112.931 42.0669 113.25 42.43C113.794 43.2807 114.053 44.2823 113.99 45.29V51.78H113.09L113.13 45.36Z" fill="#ADB7D0"/>
<path d="M115.6 41.54H117.52L117.7 38H118.4V41.59H121.81V42.36H118.4V48.74C118.394 49.1013 118.418 49.4625 118.47 49.82C118.501 50.0843 118.594 50.3377 118.74 50.56C118.879 50.7591 119.074 50.9123 119.3 51C119.592 51.1045 119.901 51.152 120.21 51.14C120.807 51.1406 121.398 51.0251 121.95 50.8L122.15 51.55C121.854 51.6668 121.55 51.7604 121.24 51.83C120.882 51.9048 120.516 51.9417 120.15 51.94C119.705 51.9523 119.261 51.8845 118.84 51.74C118.522 51.6154 118.245 51.4041 118.04 51.13C117.824 50.8353 117.683 50.4919 117.63 50.13C117.554 49.6874 117.517 49.239 117.52 48.79V42.31H115.6V41.54Z" fill="#ADB7D0"/>
<path d="M130.52 51.75H129.73V49.42C129.611 49.7428 129.457 50.0513 129.27 50.34C128.856 50.9649 128.254 51.4414 127.55 51.7C127.156 51.8442 126.739 51.9154 126.32 51.91C125.878 51.9136 125.437 51.8564 125.01 51.74C124.643 51.6303 124.303 51.4465 124.01 51.2C123.725 50.942 123.506 50.6198 123.37 50.26C123.208 49.815 123.13 49.3436 123.14 48.87C123.104 48.4178 123.175 47.9634 123.349 47.5444C123.523 47.1253 123.794 46.7536 124.14 46.46C124.963 45.913 125.944 45.6529 126.93 45.72C127.439 45.7222 127.946 45.759 128.45 45.83C128.901 45.884 129.348 45.9642 129.79 46.07V45C129.844 44.2588 129.643 43.5214 129.22 42.91C128.946 42.645 128.616 42.444 128.255 42.3212C127.893 42.1985 127.509 42.1571 127.13 42.2C126.1 42.2084 125.081 42.4155 124.13 42.81L123.93 42.06C124.403 41.8545 124.896 41.6971 125.4 41.59C125.988 41.4652 126.589 41.4048 127.19 41.41C127.674 41.3603 128.162 41.4129 128.624 41.5645C129.086 41.7162 129.51 41.9634 129.87 42.29C130.448 43.0398 130.729 43.9761 130.66 44.92L130.52 51.75ZM123.93 48.87C123.898 49.1879 123.936 49.509 124.044 49.81C124.151 50.111 124.324 50.3843 124.55 50.61C125.065 50.9931 125.699 51.1809 126.34 51.14C126.784 51.1414 127.224 51.0494 127.63 50.87C128.029 50.6964 128.39 50.4448 128.69 50.13C128.998 49.8032 129.239 49.4193 129.4 49C129.584 48.5251 129.676 48.0194 129.67 47.51V46.82C129.239 46.7146 128.801 46.6378 128.36 46.59C127.878 46.5387 127.394 46.512 126.91 46.51C126.114 46.4463 125.319 46.6391 124.64 47.06C124.39 47.2862 124.195 47.5674 124.072 47.8815C123.949 48.1956 123.9 48.534 123.93 48.87Z" fill="#ADB7D0"/>
<path d="M141.79 47C141.877 48.2928 141.555 49.5803 140.87 50.68C140.528 51.1033 140.088 51.4366 139.588 51.651C139.087 51.8654 138.542 51.9543 138 51.91C137.187 51.9407 136.388 51.6977 135.73 51.22C135.14 50.7708 134.718 50.1371 134.53 49.42L134.48 51.75H133.67V37.46H134.55V41.46L134.48 43.85H134.53C134.744 43.1214 135.199 42.4869 135.82 42.05C136.492 41.5976 137.29 41.37 138.1 41.4C138.645 41.352 139.194 41.4433 139.694 41.6655C140.194 41.8876 140.63 42.2333 140.96 42.67C141.604 43.7669 141.906 45.0304 141.83 46.3L141.79 47ZM140.9 46.33C140.907 45.7493 140.854 45.1694 140.74 44.6C140.658 44.1416 140.489 43.7035 140.24 43.31C140.014 42.9688 139.699 42.6957 139.33 42.52C138.896 42.3169 138.419 42.2209 137.94 42.24C137.444 42.2327 136.952 42.3352 136.5 42.54C136.085 42.7273 135.713 42.9998 135.41 43.34C135.116 43.6813 134.889 44.0748 134.74 44.5C134.583 44.9429 134.505 45.41 134.51 45.88V47.18C134.505 47.6989 134.583 48.2154 134.74 48.71C134.884 49.1646 135.111 49.5885 135.41 49.96C135.707 50.3151 136.075 50.6046 136.49 50.81C136.935 51.0248 137.425 51.1311 137.92 51.12C138.367 51.1537 138.814 51.0677 139.217 50.8709C139.62 50.674 139.962 50.3734 140.21 50C140.715 49.0839 140.954 48.0447 140.9 47V46.33Z" fill="#ADB7D0"/>
<path d="M144.82 38.27C144.922 38.2576 145.025 38.2702 145.121 38.3068C145.217 38.3434 145.302 38.4029 145.37 38.48C145.463 38.6187 145.512 38.7828 145.51 38.95C145.513 39.1236 145.464 39.2941 145.37 39.44C145.3 39.514 145.214 39.5707 145.119 39.6054C145.023 39.6402 144.921 39.652 144.82 39.64C144.719 39.6537 144.616 39.6426 144.52 39.6078C144.424 39.5729 144.339 39.5154 144.27 39.44C144.168 39.2972 144.116 39.1253 144.12 38.95C144.115 38.7809 144.168 38.6153 144.27 38.48C144.336 38.4015 144.422 38.341 144.518 38.3043C144.614 38.2676 144.718 38.2558 144.82 38.27ZM145.27 51.75H144.37V41.54H145.27V51.75Z" fill="#ADB7D0"/>
<path d="M149.31 51.75H148.43V37.46H149.31V51.75Z" fill="#ADB7D0"/>
<path d="M152.9 38.27C153.002 38.2567 153.106 38.2689 153.202 38.3056C153.298 38.3422 153.383 38.4022 153.45 38.48C153.552 38.6153 153.604 38.7809 153.6 38.95C153.604 39.1253 153.552 39.2972 153.45 39.44C153.381 39.5147 153.295 39.5718 153.199 39.6065C153.104 39.6413 153.001 39.6528 152.9 39.64C152.799 39.652 152.697 39.6401 152.601 39.6054C152.506 39.5707 152.42 39.514 152.35 39.44C152.256 39.294 152.207 39.1236 152.21 38.95C152.208 38.7827 152.257 38.6187 152.35 38.48C152.418 38.4029 152.503 38.3434 152.599 38.3068C152.695 38.2702 152.798 38.2576 152.9 38.27ZM153.35 51.75H152.45V41.54H153.35V51.75Z" fill="#ADB7D0"/>
<path d="M155.21 41.54H157.13L157.31 37.95H158.01V41.54H161.42V42.31H158V48.6899C157.994 49.0512 158.018 49.4124 158.07 49.77C158.105 50.0332 158.198 50.2857 158.34 50.5099C158.479 50.709 158.674 50.8622 158.9 50.95C159.192 51.0544 159.5 51.1019 159.81 51.09C160.407 51.0905 160.997 50.975 161.55 50.75L161.75 51.5C161.454 51.6167 161.15 51.7103 160.84 51.7799C160.481 51.8547 160.116 51.8916 159.75 51.8899C159.308 51.9023 158.868 51.8346 158.45 51.6899C158.129 51.5656 157.848 51.3544 157.64 51.08C157.427 50.783 157.287 50.4406 157.23 50.08C157.154 49.6374 157.117 49.189 157.12 48.74V42.31H155.2L155.21 41.54Z" fill="#ADB7D0"/>
<path d="M162.13 41.54H163.07L165.81 48.71C165.94 49.06 166.07 49.43 166.19 49.81C166.31 50.19 166.43 50.56 166.54 50.93C166.62 50.56 166.72 50.19 166.84 49.81C166.96 49.43 167.08 49.05 167.22 48.66L169.69 41.54H170.63L166.48 53.38C166.25 54.0982 165.876 54.7618 165.38 55.33C165.152 55.5557 164.88 55.7311 164.58 55.8448C164.28 55.9584 163.96 56.0079 163.64 55.99C163.351 55.9965 163.063 55.9697 162.78 55.91C162.552 55.8683 162.328 55.8081 162.11 55.73L162.23 54.95C162.662 55.1107 163.12 55.1888 163.58 55.18C163.815 55.1942 164.05 55.1557 164.268 55.0675C164.486 54.9792 164.681 54.8435 164.84 54.67C165.193 54.2059 165.458 53.6804 165.62 53.12L166.05 51.85L162.13 41.54Z" fill="#ADB7D0"/>
<path d="M174.94 38.13H173.63V41.52H173.12V38.13H171.82V37.66H174.94V38.13ZM177.4 40.62L177 40C176.87 39.78 176.76 39.57 176.65 39.37L176.35 38.81C176.283 38.6868 176.223 38.5599 176.17 38.43C176.17 38.67 176.17 38.92 176.17 39.17V41.55H175.67V37.66H176.2L177.57 40L178.89 37.63H179.42V41.49H178.92V39.14C178.92 38.89 178.92 38.64 178.92 38.4C178.85 38.54 178.76 38.72 178.63 38.96L178.22 39.73L177.73 40.62H177.4Z" fill="#ADB7D0"/>
</g>
<defs>
<clipPath id="clip0">
<rect width="179.42" height="55.99" fill="white"/>
</clipPath>
</defs>
</svg>
