<svg width="249" height="44" viewBox="0 0 249 44" fill="none" xmlns="http://www.w3.org/2000/svg">
<g opacity="0.2" clip-path="url(#clip0)">
<path d="M17.5765 35.2006H11.7176V44.0036H0V-0.00231934C2.8386 0.0680807 12.907 -0.00231934 17.5765 -0.00231934C31.3183 -0.00231934 38.0853 5.75875 38.0853 17.6006C38.0853 28.3777 30.0353 35.2006 17.5765 35.2006ZM14.65 8.80062C13.9586 8.80062 12.4998 8.75368 11.7176 8.80062V26.4006H14.65C21.6103 26.4006 26.3676 23.0772 26.3676 17.6006C26.3676 12.2971 21.2441 8.80062 14.65 8.80062ZM70.3059 44.0036V26.4006H55.6559V44.0036H43.9382V-0.00231934H55.6559V17.6006H70.3059V-0.00231934H82.0235V44.0036H70.3059ZM93.7412 44.0036V-0.00231934H105.462V44.0036H93.7412ZM140.615 44.0036H117.179V-0.00231934H128.897V35.2006H143.541L140.615 44.0036ZM149.4 44.0036V-0.00231934H161.118V44.0036H149.4ZM190.412 35.2006H184.553V44.0036H172.835V-0.00231934C175.674 0.0680807 185.745 -0.00231934 190.412 -0.00231934C204.154 -0.00231934 210.918 5.75875 210.918 17.6006C210.918 28.3777 202.871 35.2006 190.412 35.2006ZM187.482 8.80062C186.797 8.80062 185.332 8.75368 184.553 8.80062V26.4006H187.482C194.443 26.4006 199.2 23.0772 199.2 17.6006C199.2 12.2971 194.082 8.80062 187.482 8.80062ZM227.929 11.6635C227.929 18.375 249.003 15.7292 249.003 29.862C249.003 40.463 239.84 43.9977 228.664 43.9977C224.27 43.9977 218.771 43.2937 214.738 41.8769L213.27 32.1588C217.304 34.1006 224.085 35.5204 228.479 35.5204C233.43 35.5204 235.446 34.1006 235.446 31.4518C235.446 24.5614 214.553 27.5622 214.553 12.7254C214.553 4.11315 221.888 0.00354733 232.695 0.00354733C238.378 0.00354733 241.489 0.531547 244.972 1.23848L246.076 10.4257C242.954 9.19075 238.378 8.31075 234.163 8.31075C230.319 8.31075 227.929 9.36675 227.929 11.6635Z" fill="#ADB7D0"/>
</g>
<defs>
<clipPath id="clip0">
<rect width="249" height="44" fill="white"/>
</clipPath>
</defs>
</svg>
