<svg width="238" height="52" viewBox="0 0 238 52" fill="none" xmlns="http://www.w3.org/2000/svg">
<g opacity="0.2" clip-path="url(#clip0)">
<path d="M0 25.6C0 11.1 10.6 0 23.7 0C36.8 0 47.5 11.1 47.5 25.6C47.5 40.1 36.9 51.2 23.7 51.2C10.6 51.3 0 40.1 0 25.6ZM37.1 25.6C37.1 16.8 31.2 11 23.8 11C16.4 11 10.5 16.8 10.5 25.6C10.5 34.4 16.4 40.2 23.8 40.2C31.2 40.3 37.1 34.4 37.1 25.6Z" fill="#ADB7D0"/>
<path d="M50.3 34.5L61.5 33.4C63.3 37.5 66.4 40.2 72.1 40.2C77.6 40.2 78.9001 38.1 78.9001 36.2C78.9001 33.2 76 32 68.5 29.9C61 27.9 51.5 24.3 51.5 14.9C51.5 5.40002 61.8 -0.0999756 70.5 -0.0999756C78.8 -0.0999756 90.3001 4.30002 90.8001 16.4L79.2 16.6C77.5 13.1 75.1 10.9 70.5 10.9C66.9 10.9 65.1 12.7 65.1 14.6C65.1 16.9 66.3 18.4 74.2 20.7C81.8 23 90.4001 25.6 90.4001 36C90.4001 45.5 82.6 51.1 71.7 51.1C61.1 51.3 52.6 50 50.3 34.5Z" fill="#ADB7D0"/>
<path d="M115.8 34.1H107.4V50.3H95.8V1H119C128.6 1 136.3 8.5 136.3 17.9C136.3 24 132.6 29.4 127 32.2L134.7 50.3H122.3L115.8 34.1ZM107.4 24.2H119C122.2 24.2 124.8 21.5 124.8 17.9C124.8 14.3 122.2 11.6 119 11.6H107.4V24.2Z" fill="#ADB7D0"/>
<path d="M169.7 42.5H151L148.5 50.2H135.9L153 1H167.7L184.8 50.3H172.2L169.7 42.5ZM166.2 32L160.3 13.9L154.4 32H166.2Z" fill="#ADB7D0"/>
<path d="M237.2 50.3H225.7V21.6L212.7 42.5H211.4L198.4 21.6V50.3H186.9V1H198.4L212 22.9L225.6 1H237.1V50.3H237.2Z" fill="#ADB7D0"/>
</g>
<defs>
<clipPath id="clip0">
<rect width="237.2" height="51.3" fill="white"/>
</clipPath>
</defs>
</svg>
