<svg width="117" height="51" viewBox="0 0 117 51" fill="none" xmlns="http://www.w3.org/2000/svg">
<g clip-path="url(#clip0)">
<path opacity="0.2" fill-rule="evenodd" clip-rule="evenodd" d="M54.1241 42.5759L56.6576 37.567C56.6576 37.567 57.3485 35.9732 58.2698 35.9732C58.9608 35.9732 99.7265 35.9732 100.417 35.9732C101.108 35.9732 102.03 35.0625 102.03 34.3795V31.192C102.03 30.5089 101.108 29.5982 100.417 29.5982H65.8702C64.9489 29.5982 64.258 29.5982 63.3367 28.4598C62.4155 27.0938 63.3367 25.0446 63.3367 25.0446L71.6281 8.87947C71.6281 8.87947 72.7796 6.60268 74.8525 6.60268H115.388C116.079 6.60268 117 5.91964 117 5.00893C117 4.09821 117 2.50446 117 1.59375C117 0.683036 116.079 0 115.388 0H71.8584C68.634 0 67.2521 2.73214 67.2521 2.73214L46.9844 41.6652C46.9844 41.6652 45.8328 43.942 43.9903 43.942H31.5533C29.4804 43.942 28.3289 41.6652 28.3289 41.6652L7.60051 1.59375C7.60051 1.59375 6.90957 0 5.98831 0H1.1517C-0.460509 0 0.230435 1.59375 0.230435 1.59375L23.7226 46.9018C23.7226 46.9018 25.5651 50.317 28.3289 50.317H106.175C112.164 50.317 117.23 47.5848 117.23 40.7545V23.2232C117.23 18.8973 112.854 14.5714 108.478 14.5714H78.7678C77.8466 14.5714 77.1556 16.1652 77.1556 16.1652L75.3131 19.3527C75.3131 19.3527 74.3919 20.9464 76.2344 20.9464H105.945C108.248 20.9464 110.321 23.2232 110.321 25.2723V39.1607C110.321 41.4375 108.018 43.4866 105.945 43.4866H55.0454C53.4332 44.1696 54.1241 42.5759 54.1241 42.5759Z" fill="#ADB7D0"/>
<path opacity="0.2" fill-rule="evenodd" clip-rule="evenodd" d="M40.0749 27.7768L53.6635 1.82141C53.6635 1.82141 54.5847 0.227661 52.9725 0.227661H23.0316C21.4194 0.227661 22.1103 1.82141 22.1103 1.82141L35.6989 27.7768C35.6989 27.7768 36.3898 29.3705 38.0021 29.3705C39.3839 29.5982 40.0749 27.7768 40.0749 27.7768Z" fill="#ADB7D0"/>
</g>
<defs>
<clipPath id="clip0">
<rect width="117" height="51" fill="white"/>
</clipPath>
</defs>
</svg>
