<svg width="160" height="56" viewBox="0 0 160 56" fill="none" xmlns="http://www.w3.org/2000/svg">
<g opacity="0.2">
<path fill-rule="evenodd" clip-rule="evenodd" d="M62.4719 0.448H73.2584V45.696H86.2921V55.552H62.4719V0.448ZM154.157 4.928H155.506C155.955 4.928 155.955 4.928 155.955 4.928C156.404 4.928 156.404 4.928 156.404 4.48C156.404 4.48 156.404 4.48 156.404 4.032V3.584C155.955 3.136 155.955 3.136 155.506 3.136H154.157V4.928ZM7.19101 22.848H31.0112L28.3146 27.328H7.19101V22.848ZM7.64045 45.696V48.384H9.88764V48.832H7.19101V45.696H7.64045ZM10.3371 45.696V48.832H9.88764V45.696H10.3371ZM12.5843 47.04H14.382C14.382 47.04 14.382 47.04 14.382 47.488C14.382 47.936 14.382 47.936 14.382 48.384C14.382 48.384 13.9326 48.384 13.4831 48.832C13.4831 48.832 13.4831 48.832 13.0337 48.832C13.0337 48.832 13.0337 48.832 12.5843 48.832C12.1348 48.832 11.6854 48.384 11.236 48.384C11.236 48.384 10.7865 47.936 10.7865 47.488C10.7865 47.04 10.7865 47.04 10.7865 47.04V46.592C10.7865 46.144 11.236 46.144 11.236 45.696C11.6854 45.696 11.6854 45.696 12.5843 45.696H13.0337C13.4831 45.696 13.4831 45.696 13.4831 45.696C13.9326 45.696 13.9326 45.696 14.382 45.696V46.144V46.592H13.9326C13.9326 46.144 13.9326 46.144 13.9326 46.144L13.4831 45.696C13.0337 45.696 13.0337 45.696 13.0337 45.696C12.5843 45.696 12.5843 45.696 12.5843 45.696C12.1348 45.696 11.6854 45.696 11.6854 46.144C11.6854 46.144 11.6854 46.144 11.6854 46.592V47.04V47.488V47.936C11.6854 48.384 11.6854 48.384 12.1348 48.384C12.1348 48.384 12.1348 48.384 12.5843 48.384H13.0337C13.4831 48.384 13.4831 48.384 13.9326 48.384C13.9326 47.936 13.9326 47.936 13.9326 47.488H12.5843V47.04ZM18.427 45.696V48.832H17.5281V47.04H15.2809V48.832H14.8315V45.696H15.2809V47.04H17.5281V45.696H18.427ZM20.2247 45.696V48.832H19.7753V45.696H18.427H21.573H20.2247ZM24.2697 45.696V47.04H26.0674H24.2697V48.832H23.8202V45.696H26.0674H24.2697ZM28.764 47.936H26.9663L26.5169 48.832H26.0674L27.4157 45.696H28.3146L29.6629 48.832H29.2135L28.764 47.936ZM28.764 47.488L27.8652 45.696L26.9663 47.488H28.764ZM32.809 47.488H33.2584C33.2584 47.488 33.2584 47.488 33.2584 47.936C33.2584 47.936 33.2584 48.384 32.809 48.384C32.809 48.384 32.809 48.384 32.3596 48.832H31.9101C31.9101 48.832 31.9101 48.832 31.4607 48.832H31.0112C30.5618 48.832 30.1124 48.384 30.1124 48.384C30.1124 47.936 29.6629 47.488 29.6629 47.488C29.6629 47.488 29.6629 47.488 29.6629 47.04V46.592C29.6629 46.144 30.1124 46.144 30.1124 46.144C30.1124 45.696 30.5618 45.696 31.0112 45.696H31.4607C31.4607 45.696 31.4607 45.696 31.9101 45.696C32.3596 45.696 32.809 45.696 32.809 45.696C32.809 45.696 33.2584 46.144 33.2584 46.592H32.809C32.809 46.144 32.809 46.144 32.3596 46.144C32.3596 46.144 32.3596 45.696 31.9101 45.696H31.4607H31.0112C30.5618 45.696 30.5618 46.144 30.5618 46.144V46.592V47.04V47.488C30.5618 47.936 30.5618 47.936 30.5618 47.936C30.5618 48.384 30.5618 48.384 30.5618 48.384C31.0112 48.384 31.0112 48.384 31.0112 48.384C31.4607 48.384 31.4607 48.384 31.4607 48.384C31.4607 48.384 31.4607 48.384 31.9101 48.384C31.9101 48.384 31.9101 48.384 32.3596 48.384C32.809 48.384 32.809 47.936 32.809 47.936V47.488ZM35.5056 45.696V48.832H34.6067V45.696H33.2584H36.4045H35.5056ZM36.8539 47.04C36.8539 46.592 36.8539 46.144 36.8539 46.144C37.3034 45.696 37.3034 45.696 38.2022 45.696C39.1011 45.696 39.5506 45.696 39.5506 45.696C40 45.696 40 46.144 40 46.592V47.04C40 47.488 40 47.488 40 47.488C40 47.936 40 48.384 39.5506 48.384C39.5506 48.384 39.1011 48.832 38.6517 48.832C38.6517 48.832 38.6517 48.832 38.2022 48.832C37.7528 48.832 37.3034 48.384 37.3034 48.384C36.8539 48.384 36.8539 47.936 36.8539 47.936C36.8539 47.488 36.8539 47.488 36.8539 47.488V47.04ZM37.3034 47.04V47.488C37.3034 47.936 37.3034 47.936 37.3034 48.384C37.7528 48.384 37.7528 48.384 38.2022 48.384C38.6517 48.384 39.1011 48.384 39.1011 48.384C39.5506 48.384 39.5506 47.936 39.5506 47.488C39.5506 47.04 39.5506 47.04 39.5506 47.04C39.5506 46.592 39.5506 46.592 39.5506 46.592C39.5506 46.144 39.5506 46.144 39.5506 46.144C39.1011 45.696 38.6517 45.696 38.2022 45.696C37.7528 45.696 37.7528 45.696 37.3034 46.144C37.3034 46.144 37.3034 46.144 37.3034 46.592V47.04ZM40.4494 48.832V45.696H42.6966C43.1461 45.696 43.1461 45.696 43.5955 45.696C43.5955 45.696 43.5955 46.144 43.5955 46.592V47.04C43.5955 47.04 43.1461 47.04 43.1461 47.488H43.5955C43.5955 47.488 43.5955 47.488 43.5955 47.936V48.832H43.1461V47.936V47.488C42.6966 47.488 42.6966 47.488 42.2472 47.488H40.8989V48.832H40.4494ZM40.8989 47.04H42.2472C42.6966 47.04 42.6966 47.04 43.1461 47.04V46.592C43.1461 46.144 43.1461 46.144 43.1461 46.144L42.6966 45.696H40.8989V47.04ZM47.6404 45.696L45.8427 47.488V48.832H45.3933V47.488L44.0449 45.696H44.4944L45.8427 47.04L46.7416 45.696H47.6404ZM14.382 10.304H37.7528L35.5056 14.784H11.6854L14.382 10.304ZM33.2584 22.848H47.6404V27.328H30.5618L33.2584 22.848ZM31.0112 29.12H46.2921L44.0449 33.6H35.0562L31.0112 29.12ZM8.08989 29.12H28.764L32.3596 33.6H10.7865L8.08989 29.12ZM11.6854 35.392H42.6966L40.4494 39.872H14.382L11.6854 35.392ZM36.8539 16.576H44.0449L46.2921 21.056H34.1573L36.8539 16.576ZM40.4494 10.304L42.6966 14.784H37.7528L40.4494 10.304ZM10.7865 16.576H34.6067L31.9101 21.056H8.08989L10.7865 16.576ZM0 55.552V6.272C0 3.136 2.24719 0.448 5.39326 0.448H54.382V50.176C54.382 53.312 52.1348 55.552 48.9888 55.552H0ZM153.708 8.064V2.688H155.506C155.955 2.688 156.404 2.688 156.404 2.688C156.854 3.136 156.854 3.136 156.854 3.136C157.303 3.584 157.303 3.584 157.303 4.032C157.303 4.48 156.854 4.928 156.854 4.928C156.854 5.376 156.404 5.376 155.955 5.376C155.955 5.824 156.404 5.824 156.404 5.824C156.404 5.824 156.404 6.272 156.854 6.272L157.303 8.064H156.854L156.404 6.72C155.955 6.272 155.955 6.272 155.506 5.824C155.056 5.824 155.056 5.376 155.056 5.376H154.157V8.064H153.708ZM155.506 1.344C157.753 1.344 159.551 3.136 159.551 5.376C159.551 7.616 157.753 9.408 155.506 9.408C153.258 9.408 151.461 7.616 151.461 5.376C151.461 3.136 153.258 1.344 155.506 1.344ZM155.506 0.448H155.955L156.404 0.896H156.854H157.303L157.753 1.344H158.202L158.652 1.792V2.24H159.101L159.551 2.688V3.136L160 3.584V4.032V4.48V4.928V5.376V5.824V6.272V6.72V7.168L159.551 7.616V8.064L159.101 8.512L158.652 8.96L158.202 9.408H157.753L157.303 9.856H156.854L156.404 10.304H155.955H155.506H155.056H154.607L154.157 9.856H153.708L153.258 9.408H152.809L152.36 8.96H151.91L151.461 8.512V8.064L151.011 7.616V7.168V6.72L150.562 6.272V5.824V5.376V4.928V4.48L151.011 4.032V3.584V3.136L151.461 2.688V2.24H151.91L152.36 1.792L152.809 1.344H153.258L153.708 0.896H154.157H154.607L155.056 0.448H155.506ZM138.876 17.024H149.213V11.2C149.213 4.928 142.921 0 135.281 0C128.539 0 121.348 3.136 120.899 11.2V44.352C120.899 51.968 128.09 56 134.831 56C142.022 56 149.213 51.968 149.213 44.352V26.88H136.18V37.184H138.876V43.904C138.876 45.248 137.079 46.592 135.281 47.04C133.483 47.04 132.135 45.248 131.685 43.456V13.44C131.685 10.752 133.483 9.408 135.281 9.408C137.079 9.408 138.876 10.304 138.876 13.44V17.024ZM88.5393 0.448H99.3258V41.216C99.3258 44.8 101.124 45.696 102.921 45.696C104.27 45.696 106.067 44.8 106.067 41.216V0.448H116.854V43.456C116.854 50.624 109.663 56 102.921 56C95.7303 56 88.5393 50.624 88.5393 43.456V0.448Z" fill="#ADB7D0"/>
</g>
</svg>
